<svg width="186" height="58" viewBox="0 0 186 58" fill="none" xmlns="http://www.w3.org/2000/svg">
<rect x="1" y="1" width="184" height="56" rx="12" stroke="white" stroke-width="2"/>
<path d="M69.934 42.074H63.818L62.806 45H59.572L65.094 29.622H68.68L74.202 45H70.946L69.934 42.074ZM69.098 39.61L66.876 33.186L64.654 39.61H69.098ZM79.346 34.572C79.742 34.0147 80.2847 33.5527 80.974 33.186C81.678 32.8047 82.4774 32.614 83.372 32.614C84.4134 32.614 85.352 32.8707 86.188 33.384C87.0387 33.8973 87.706 34.6307 88.19 35.584C88.6887 36.5227 88.938 37.6153 88.938 38.862C88.938 40.1087 88.6887 41.216 88.19 42.184C87.706 43.1373 87.0387 43.878 86.188 44.406C85.352 44.934 84.4134 45.198 83.372 45.198C82.4774 45.198 81.6854 45.0147 80.996 44.648C80.3214 44.2813 79.7714 43.8193 79.346 43.262V50.808H76.266V32.812H79.346V34.572ZM85.792 38.862C85.792 38.1287 85.638 37.498 85.33 36.97C85.0367 36.4273 84.6407 36.0167 84.142 35.738C83.658 35.4593 83.13 35.32 82.558 35.32C82.0007 35.32 81.4727 35.4667 80.974 35.76C80.49 36.0387 80.094 36.4493 79.786 36.992C79.4927 37.5347 79.346 38.1727 79.346 38.906C79.346 39.6393 79.4927 40.2773 79.786 40.82C80.094 41.3627 80.49 41.7807 80.974 42.074C81.4727 42.3527 82.0007 42.492 82.558 42.492C83.13 42.492 83.658 42.3453 84.142 42.052C84.6407 41.7587 85.0367 41.3407 85.33 40.798C85.638 40.2553 85.792 39.61 85.792 38.862ZM94.2562 34.572C94.6522 34.0147 95.1949 33.5527 95.8842 33.186C96.5882 32.8047 97.3875 32.614 98.2822 32.614C99.3235 32.614 100.262 32.8707 101.098 33.384C101.949 33.8973 102.616 34.6307 103.1 35.584C103.599 36.5227 103.848 37.6153 103.848 38.862C103.848 40.1087 103.599 41.216 103.1 42.184C102.616 43.1373 101.949 43.878 101.098 44.406C100.262 44.934 99.3235 45.198 98.2822 45.198C97.3875 45.198 96.5955 45.0147 95.9062 44.648C95.2315 44.2813 94.6815 43.8193 94.2562 43.262V50.808H91.1762V32.812H94.2562V34.572ZM100.702 38.862C100.702 38.1287 100.548 37.498 100.24 36.97C99.9469 36.4273 99.5509 36.0167 99.0522 35.738C98.5682 35.4593 98.0402 35.32 97.4682 35.32C96.9109 35.32 96.3829 35.4667 95.8842 35.76C95.4002 36.0387 95.0042 36.4493 94.6962 36.992C94.4029 37.5347 94.2562 38.1727 94.2562 38.906C94.2562 39.6393 94.4029 40.2773 94.6962 40.82C95.0042 41.3627 95.4002 41.7807 95.8842 42.074C96.3829 42.3527 96.9109 42.492 97.4682 42.492C98.0402 42.492 98.5682 42.3453 99.0522 42.052C99.5509 41.7587 99.9469 41.3407 100.24 40.798C100.548 40.2553 100.702 39.61 100.702 38.862ZM116.631 45.154C115.56 45.154 114.592 44.9707 113.727 44.604C112.876 44.2373 112.201 43.7093 111.703 43.02C111.204 42.3307 110.947 41.5167 110.933 40.578H114.233C114.277 41.2087 114.497 41.7073 114.893 42.074C115.303 42.4407 115.861 42.624 116.565 42.624C117.283 42.624 117.848 42.4553 118.259 42.118C118.669 41.766 118.875 41.3113 118.875 40.754C118.875 40.2993 118.735 39.9253 118.457 39.632C118.178 39.3387 117.826 39.1113 117.401 38.95C116.99 38.774 116.418 38.5833 115.685 38.378C114.687 38.0847 113.873 37.7987 113.243 37.52C112.627 37.2267 112.091 36.794 111.637 36.222C111.197 35.6353 110.977 34.858 110.977 33.89C110.977 32.9807 111.204 32.1887 111.659 31.514C112.113 30.8393 112.751 30.326 113.573 29.974C114.394 29.6073 115.333 29.424 116.389 29.424C117.973 29.424 119.256 29.8127 120.239 30.59C121.236 31.3527 121.786 32.4233 121.889 33.802H118.501C118.471 33.274 118.244 32.8413 117.819 32.504C117.408 32.152 116.858 31.976 116.169 31.976C115.567 31.976 115.083 32.13 114.717 32.438C114.365 32.746 114.189 33.1933 114.189 33.78C114.189 34.1907 114.321 34.5353 114.585 34.814C114.863 35.078 115.201 35.298 115.597 35.474C116.007 35.6353 116.579 35.826 117.313 36.046C118.31 36.3393 119.124 36.6327 119.755 36.926C120.385 37.2193 120.928 37.6593 121.383 38.246C121.837 38.8327 122.065 39.6027 122.065 40.556C122.065 41.3773 121.852 42.14 121.427 42.844C121.001 43.548 120.378 44.1127 119.557 44.538C118.735 44.9487 117.76 45.154 116.631 45.154ZM128.321 35.342V41.238C128.321 41.6487 128.416 41.9493 128.607 42.14C128.812 42.316 129.149 42.404 129.619 42.404H131.049V45H129.113C126.517 45 125.219 43.7387 125.219 41.216V35.342H123.767V32.812H125.219V29.798H128.321V32.812H131.049V35.342H128.321ZM138.676 45.198C137.503 45.198 136.447 44.9413 135.508 44.428C134.569 43.9 133.829 43.1593 133.286 42.206C132.758 41.2527 132.494 40.1527 132.494 38.906C132.494 37.6593 132.765 36.5593 133.308 35.606C133.865 34.6527 134.621 33.9193 135.574 33.406C136.527 32.878 137.591 32.614 138.764 32.614C139.937 32.614 141.001 32.878 141.954 33.406C142.907 33.9193 143.655 34.6527 144.198 35.606C144.755 36.5593 145.034 37.6593 145.034 38.906C145.034 40.1527 144.748 41.2527 144.176 42.206C143.619 43.1593 142.856 43.9 141.888 44.428C140.935 44.9413 139.864 45.198 138.676 45.198ZM138.676 42.514C139.233 42.514 139.754 42.382 140.238 42.118C140.737 41.8393 141.133 41.4287 141.426 40.886C141.719 40.3433 141.866 39.6833 141.866 38.906C141.866 37.7473 141.558 36.86 140.942 36.244C140.341 35.6133 139.6 35.298 138.72 35.298C137.84 35.298 137.099 35.6133 136.498 36.244C135.911 36.86 135.618 37.7473 135.618 38.906C135.618 40.0647 135.904 40.9593 136.476 41.59C137.063 42.206 137.796 42.514 138.676 42.514ZM150.373 34.704C150.769 34.0587 151.283 33.5527 151.913 33.186C152.559 32.8193 153.292 32.636 154.113 32.636V35.87H153.299C152.331 35.87 151.598 36.0973 151.099 36.552C150.615 37.0067 150.373 37.7987 150.373 38.928V45H147.293V32.812H150.373V34.704ZM167.518 38.642C167.518 39.082 167.489 39.478 167.43 39.83H158.52C158.593 40.71 158.901 41.3993 159.444 41.898C159.987 42.3967 160.654 42.646 161.446 42.646C162.59 42.646 163.404 42.1547 163.888 41.172H167.21C166.858 42.3453 166.183 43.3133 165.186 44.076C164.189 44.824 162.964 45.198 161.512 45.198C160.339 45.198 159.283 44.9413 158.344 44.428C157.42 43.9 156.694 43.1593 156.166 42.206C155.653 41.2527 155.396 40.1527 155.396 38.906C155.396 37.6447 155.653 36.5373 156.166 35.584C156.679 34.6307 157.398 33.8973 158.322 33.384C159.246 32.8707 160.309 32.614 161.512 32.614C162.671 32.614 163.705 32.8633 164.614 33.362C165.538 33.8607 166.249 34.572 166.748 35.496C167.261 36.4053 167.518 37.454 167.518 38.642ZM164.328 37.762C164.313 36.97 164.027 36.3393 163.47 35.87C162.913 35.386 162.231 35.144 161.424 35.144C160.661 35.144 160.016 35.3787 159.488 35.848C158.975 36.3027 158.659 36.9407 158.542 37.762H164.328Z" fill="white"/>
<path d="M62.926 13.965C63.888 13.965 64.7287 14.1513 65.448 14.524C66.176 14.888 66.735 15.4167 67.125 16.11C67.5237 16.7947 67.723 17.5963 67.723 18.515C67.723 19.4337 67.5237 20.231 67.125 20.907C66.735 21.583 66.176 22.103 65.448 22.467C64.7287 22.8223 63.888 23 62.926 23H59.975V13.965H62.926ZM62.926 21.791C63.9833 21.791 64.7937 21.505 65.357 20.933C65.9203 20.361 66.202 19.555 66.202 18.515C66.202 17.4663 65.9203 16.6473 65.357 16.058C64.7937 15.4687 63.9833 15.174 62.926 15.174H61.457V21.791H62.926ZM72.2988 23.117C71.6228 23.117 71.0118 22.9653 70.4658 22.662C69.9198 22.35 69.4908 21.9167 69.1788 21.362C68.8668 20.7987 68.7108 20.1487 68.7108 19.412C68.7108 18.684 68.8711 18.0383 69.1918 17.475C69.5125 16.9117 69.9501 16.4783 70.5048 16.175C71.0595 15.8717 71.6791 15.72 72.3638 15.72C73.0485 15.72 73.6681 15.8717 74.2228 16.175C74.7775 16.4783 75.2151 16.9117 75.5358 17.475C75.8565 18.0383 76.0168 18.684 76.0168 19.412C76.0168 20.14 75.8521 20.7857 75.5228 21.349C75.1935 21.9123 74.7428 22.35 74.1708 22.662C73.6075 22.9653 72.9835 23.117 72.2988 23.117ZM72.2988 21.83C72.6801 21.83 73.0355 21.739 73.3648 21.557C73.7028 21.375 73.9758 21.102 74.1838 20.738C74.3918 20.374 74.4958 19.932 74.4958 19.412C74.4958 18.892 74.3961 18.4543 74.1968 18.099C73.9975 17.735 73.7331 17.462 73.4038 17.28C73.0745 17.098 72.7191 17.007 72.3378 17.007C71.9565 17.007 71.6011 17.098 71.2718 17.28C70.9511 17.462 70.6955 17.735 70.5048 18.099C70.3141 18.4543 70.2188 18.892 70.2188 19.412C70.2188 20.1833 70.4138 20.7813 70.8038 21.206C71.2025 21.622 71.7008 21.83 72.2988 21.83ZM87.1018 15.837L84.8788 23H83.3188L81.8758 17.709L80.4328 23H78.8728L76.6368 15.837H78.1448L79.6398 21.596L81.1608 15.837H82.7078L84.1638 21.57L85.6458 15.837H87.1018ZM91.8234 15.72C92.3867 15.72 92.8894 15.837 93.3314 16.071C93.782 16.305 94.133 16.6517 94.3844 17.111C94.6357 17.5703 94.7614 18.125 94.7614 18.775V23H93.2924V18.996C93.2924 18.3547 93.132 17.865 92.8114 17.527C92.4907 17.1803 92.053 17.007 91.4984 17.007C90.9437 17.007 90.5017 17.1803 90.1724 17.527C89.8517 17.865 89.6914 18.3547 89.6914 18.996V23H88.2094V15.837H89.6914V16.656C89.934 16.3613 90.2417 16.1317 90.6144 15.967C90.9957 15.8023 91.3987 15.72 91.8234 15.72ZM98.1338 13.38V23H96.6518V13.38H98.1338ZM103.186 23.117C102.51 23.117 101.899 22.9653 101.353 22.662C100.807 22.35 100.378 21.9167 100.066 21.362C99.7545 20.7987 99.5985 20.1487 99.5985 19.412C99.5985 18.684 99.7588 18.0383 100.079 17.475C100.4 16.9117 100.838 16.4783 101.392 16.175C101.947 15.8717 102.567 15.72 103.251 15.72C103.936 15.72 104.556 15.8717 105.11 16.175C105.665 16.4783 106.103 16.9117 106.423 17.475C106.744 18.0383 106.904 18.684 106.904 19.412C106.904 20.14 106.74 20.7857 106.41 21.349C106.081 21.9123 105.63 22.35 105.058 22.662C104.495 22.9653 103.871 23.117 103.186 23.117ZM103.186 21.83C103.568 21.83 103.923 21.739 104.252 21.557C104.59 21.375 104.863 21.102 105.071 20.738C105.279 20.374 105.383 19.932 105.383 19.412C105.383 18.892 105.284 18.4543 105.084 18.099C104.885 17.735 104.621 17.462 104.291 17.28C103.962 17.098 103.607 17.007 103.225 17.007C102.844 17.007 102.489 17.098 102.159 17.28C101.839 17.462 101.583 17.735 101.392 18.099C101.202 18.4543 101.106 18.892 101.106 19.412C101.106 20.1833 101.301 20.7813 101.691 21.206C102.09 21.622 102.588 21.83 103.186 21.83ZM107.876 19.386C107.876 18.6667 108.023 18.0297 108.318 17.475C108.621 16.9203 109.028 16.4913 109.54 16.188C110.06 15.876 110.632 15.72 111.256 15.72C111.819 15.72 112.309 15.8327 112.725 16.058C113.149 16.2747 113.487 16.5477 113.739 16.877V15.837H115.234V23H113.739V21.934C113.487 22.272 113.145 22.5537 112.712 22.779C112.278 23.0043 111.784 23.117 111.23 23.117C110.614 23.117 110.051 22.961 109.54 22.649C109.028 22.3283 108.621 21.8863 108.318 21.323C108.023 20.751 107.876 20.1053 107.876 19.386ZM113.739 19.412C113.739 18.918 113.635 18.489 113.427 18.125C113.227 17.761 112.963 17.4837 112.634 17.293C112.304 17.1023 111.949 17.007 111.568 17.007C111.186 17.007 110.831 17.1023 110.502 17.293C110.172 17.475 109.904 17.748 109.696 18.112C109.496 18.4673 109.397 18.892 109.397 19.386C109.397 19.88 109.496 20.3133 109.696 20.686C109.904 21.0587 110.172 21.3447 110.502 21.544C110.84 21.7347 111.195 21.83 111.568 21.83C111.949 21.83 112.304 21.7347 112.634 21.544C112.963 21.3533 113.227 21.076 113.427 20.712C113.635 20.3393 113.739 19.906 113.739 19.412ZM116.686 19.386C116.686 18.6667 116.833 18.0297 117.128 17.475C117.431 16.9203 117.839 16.4913 118.35 16.188C118.87 15.876 119.446 15.72 120.079 15.72C120.547 15.72 121.006 15.824 121.457 16.032C121.916 16.2313 122.28 16.5 122.549 16.838V13.38H124.044V23H122.549V21.921C122.306 22.2677 121.968 22.5537 121.535 22.779C121.11 23.0043 120.621 23.117 120.066 23.117C119.442 23.117 118.87 22.961 118.35 22.649C117.839 22.3283 117.431 21.8863 117.128 21.323C116.833 20.751 116.686 20.1053 116.686 19.386ZM122.549 19.412C122.549 18.918 122.445 18.489 122.237 18.125C122.038 17.761 121.773 17.4837 121.444 17.293C121.115 17.1023 120.759 17.007 120.378 17.007C119.997 17.007 119.641 17.1023 119.312 17.293C118.983 17.475 118.714 17.748 118.506 18.112C118.307 18.4673 118.207 18.892 118.207 19.386C118.207 19.88 118.307 20.3133 118.506 20.686C118.714 21.0587 118.983 21.3447 119.312 21.544C119.65 21.7347 120.005 21.83 120.378 21.83C120.759 21.83 121.115 21.7347 121.444 21.544C121.773 21.3533 122.038 21.076 122.237 20.712C122.445 20.3393 122.549 19.906 122.549 19.412ZM132.475 23.117C131.799 23.117 131.188 22.9653 130.642 22.662C130.096 22.35 129.667 21.9167 129.355 21.362C129.043 20.7987 128.887 20.1487 128.887 19.412C128.887 18.684 129.047 18.0383 129.368 17.475C129.688 16.9117 130.126 16.4783 130.681 16.175C131.235 15.8717 131.855 15.72 132.54 15.72C133.224 15.72 133.844 15.8717 134.399 16.175C134.953 16.4783 135.391 16.9117 135.712 17.475C136.032 18.0383 136.193 18.684 136.193 19.412C136.193 20.14 136.028 20.7857 135.699 21.349C135.369 21.9123 134.919 22.35 134.347 22.662C133.783 22.9653 133.159 23.117 132.475 23.117ZM132.475 21.83C132.856 21.83 133.211 21.739 133.541 21.557C133.879 21.375 134.152 21.102 134.36 20.738C134.568 20.374 134.672 19.932 134.672 19.412C134.672 18.892 134.572 18.4543 134.373 18.099C134.173 17.735 133.909 17.462 133.58 17.28C133.25 17.098 132.895 17.007 132.514 17.007C132.132 17.007 131.777 17.098 131.448 17.28C131.127 17.462 130.871 17.735 130.681 18.099C130.49 18.4543 130.395 18.892 130.395 19.412C130.395 20.1833 130.59 20.7813 130.98 21.206C131.378 21.622 131.877 21.83 132.475 21.83ZM141.272 15.72C141.835 15.72 142.338 15.837 142.78 16.071C143.23 16.305 143.581 16.6517 143.833 17.111C144.084 17.5703 144.21 18.125 144.21 18.775V23H142.741V18.996C142.741 18.3547 142.58 17.865 142.26 17.527C141.939 17.1803 141.501 17.007 140.947 17.007C140.392 17.007 139.95 17.1803 139.621 17.527C139.3 17.865 139.14 18.3547 139.14 18.996V23H137.658V15.837H139.14V16.656C139.382 16.3613 139.69 16.1317 140.063 15.967C140.444 15.8023 140.847 15.72 141.272 15.72ZM151.206 17.046V21.011C151.206 21.2797 151.267 21.4747 151.388 21.596C151.518 21.7087 151.735 21.765 152.038 21.765H152.948V23H151.778C151.111 23 150.599 22.844 150.244 22.532C149.889 22.22 149.711 21.713 149.711 21.011V17.046H148.866V15.837H149.711V14.056H151.206V15.837H152.948V17.046H151.206ZM158.019 15.72C158.565 15.72 159.05 15.837 159.475 16.071C159.908 16.305 160.246 16.6517 160.489 17.111C160.74 17.5703 160.866 18.125 160.866 18.775V23H159.397V18.996C159.397 18.3547 159.237 17.865 158.916 17.527C158.595 17.1803 158.158 17.007 157.603 17.007C157.048 17.007 156.606 17.1803 156.277 17.527C155.956 17.865 155.796 18.3547 155.796 18.996V23H154.314V13.38H155.796V16.669C156.047 16.3657 156.364 16.1317 156.745 15.967C157.135 15.8023 157.56 15.72 158.019 15.72ZM169.321 19.243C169.321 19.5117 169.304 19.7543 169.269 19.971H163.796C163.84 20.543 164.052 21.0023 164.433 21.349C164.815 21.6957 165.283 21.869 165.837 21.869C166.635 21.869 167.198 21.5353 167.527 20.868H169.126C168.91 21.5267 168.515 22.0683 167.943 22.493C167.38 22.909 166.678 23.117 165.837 23.117C165.153 23.117 164.537 22.9653 163.991 22.662C163.454 22.35 163.029 21.9167 162.717 21.362C162.414 20.7987 162.262 20.1487 162.262 19.412C162.262 18.6753 162.41 18.0297 162.704 17.475C163.008 16.9117 163.428 16.4783 163.965 16.175C164.511 15.8717 165.135 15.72 165.837 15.72C166.513 15.72 167.116 15.8673 167.644 16.162C168.173 16.4567 168.585 16.8727 168.879 17.41C169.174 17.9387 169.321 18.5497 169.321 19.243ZM167.774 18.775C167.766 18.229 167.571 17.7913 167.189 17.462C166.808 17.1327 166.336 16.968 165.772 16.968C165.261 16.968 164.823 17.1327 164.459 17.462C164.095 17.7827 163.879 18.2203 163.809 18.775H167.774Z" fill="white"/>
<path fill-rule="evenodd" clip-rule="evenodd" d="M40.8904 27.2254C40.8444 22.411 44.824 20.0907 45.0036 19.9808C42.7689 16.7047 39.2824 16.2562 38.0408 16.2038C35.0769 15.9062 32.2564 17.9511 30.7516 17.9511C29.2509 17.9511 26.9272 16.2491 24.471 16.2975C21.2369 16.3425 18.2577 18.175 16.5926 21.0679C13.237 26.8943 15.7349 35.5232 19.0072 40.2499C20.6044 42.558 22.5133 45.1617 25.0165 45.0676C27.4312 44.973 28.3404 43.5104 31.2525 43.5104C34.167 43.5104 34.9855 45.0676 37.5395 45.0196C40.1307 44.973 41.7782 42.6622 43.3655 40.3446C45.2004 37.6601 45.956 35.0615 46 34.9265C45.9442 34.9062 40.9428 32.9861 40.8904 27.2254Z" fill="white"/>
<path fill-rule="evenodd" clip-rule="evenodd" d="M36.1011 13.0807C37.4314 11.4683 38.324 9.23095 38.0794 7C36.1647 7.07607 33.8431 8.27812 32.4716 9.88544C31.2387 11.3118 30.1598 13.5894 30.4523 15.7736C32.5883 15.9397 34.7702 14.69 36.1011 13.0807Z" fill="white"/>
</svg>
