<svg xmlns="http://www.w3.org/2000/svg" version="1.1" xmlns:xlink="http://www.w3.org/1999/xlink" width="512" height="512" x="0" y="0" viewBox="0 0 512 511" style="enable-background:new 0 0 512 512" xml:space="preserve" class=""><g><path d="M506.813 111.23 307.405 1.734a10.005 10.005 0 0 0-9.625 0l-75.16 41.27a10.029 10.029 0 0 0-4.293 2.36L98.378 111.23a9.994 9.994 0 0 0-5.187 8.766v132.43c-20.234 6.328-38.777 17.488-54.195 32.91C-1.19 325.52-11.438 386.809 13.5 437.844c2.422 4.96 8.41 7.02 13.371 4.594 4.965-2.426 7.02-8.415 4.598-13.375-21.188-43.364-12.48-95.438 21.668-129.586 21.355-21.356 49.746-33.118 79.945-33.118s58.59 11.762 79.945 33.118c21.352 21.351 33.114 49.742 33.114 79.941s-11.762 58.59-33.118 79.945c-34.148 34.149-86.222 42.856-129.585 21.668-4.961-2.426-10.95-.367-13.372 4.594-2.425 4.965-.37 10.953 4.594 13.375a132.667 132.667 0 0 0 58.336 13.5c34.543-.004 68.625-13.45 94.172-38.996 11.715-11.715 20.973-25.23 27.523-39.922l43.09 23.66c1.5.824 3.156 1.235 4.813 1.235s3.316-.41 4.812-1.235L506.812 347.75a10.003 10.003 0 0 0 5.188-8.766v-69.496c0-5.523-4.477-10-10-10s-10 4.477-10 10v63.578l-179.375 98.497V235.39l59.2-32.508v51.531a9.996 9.996 0 0 0 10 10c1.655 0 3.316-.41 4.82-1.238l42.73-23.52a9.992 9.992 0 0 0 5.176-8.758v-62.46L492 136.895v52.597c0 5.524 4.477 10 10 10s10-4.476 10-10v-69.496a9.998 9.998 0 0 0-5.188-8.766zm-204.22-89.324 178.63 98.09-56.348 30.942-178.629-98.09zm0 196.176-178.628-98.086 58.414-32.078 178.633 98.086zm79.192-43.484L203.156 76.512l22.313-12.254 178.633 98.086zM227.168 285.336c-25.133-25.133-58.547-38.973-94.086-38.973-6.723 0-13.363.496-19.89 1.469V136.895l179.437 98.53v196.173l-31.145-17.102c3.067-11.289 4.653-23.062 4.653-35.078 0-35.54-13.84-68.953-38.969-94.082zm187.387-60.348-22.73 12.512v-45.598l22.73-12.48zm0 0" fill="#FC6240" opacity="1" data-original="#000000" class=""></path><path d="M502 219.441a10.08 10.08 0 0 0-7.07 2.93 10.073 10.073 0 0 0-2.93 7.07 10.07 10.07 0 0 0 2.93 7.067c1.86 1.863 4.441 2.93 7.07 2.93s5.21-1.067 7.07-2.93a10.07 10.07 0 0 0 2.93-7.067c0-2.632-1.07-5.21-2.93-7.07a10.08 10.08 0 0 0-7.07-2.93zM99.457 389.418a9.973 9.973 0 0 0 7.07-2.926c3.907-3.906 3.907-10.238 0-14.144l-6.925-6.93h59.101c14.336 0 26 11.664 26 26s-11.664 26-26 26h-35.02c-5.523 0-10 4.477-10 10 0 5.52 4.477 9.996 10 9.996h35.02c25.363 0 46-20.633 46-45.996s-20.637-45.996-46-45.996H99.602l6.925-6.93c3.907-3.906 3.907-10.238 0-14.144-3.902-3.903-10.234-3.903-14.14 0l-24 24c-3.903 3.906-3.903 10.238 0 14.144l24 23.996a9.968 9.968 0 0 0 7.07 2.93zM46.074 476.45a9.953 9.953 0 0 1-7.64-3.56l-.02-.023c-3.555-4.226-3.008-10.531 1.219-14.086 4.226-3.558 10.535-3.011 14.09 1.215 3.55 4.23 3.015 10.547-1.211 14.102a9.979 9.979 0 0 1-6.438 2.351zm0 0" fill="#FC6240" opacity="1" data-original="#000000" class=""></path></g></svg>