<svg xmlns="http://www.w3.org/2000/svg" version="1.1" xmlns:xlink="http://www.w3.org/1999/xlink" width="512" height="512" x="0" y="0" viewBox="0 0 60 57" style="enable-background:new 0 0 512 512" xml:space="preserve" class=""><g><g fill="#000" fill-rule="nonzero"><path d="M4 38V24H3a3 3 0 0 0-3 3v8a3 3 0 0 0 3 3z" fill="#FC6240" opacity="1" data-original="#000000" class=""></path><rect width="8" height="20" x="46" y="21" rx="2" fill="#FC6240" opacity="1" data-original="#000000" class=""></rect><path d="M57 24h-1v14h1a3 3 0 0 0 3-3v-8a3 3 0 0 0-3-3zM12.25 19a18 18 0 0 1 35.5 0h4C50.174 8.19 40.905.173 29.98.173S9.786 8.19 8.21 19h4zM8 41h1v5a9 9 0 0 0 9 9h4.18A3 3 0 0 0 25 57h10a3 3 0 0 0 0-6H25a3 3 0 0 0-2.82 2H18a7 7 0 0 1-7-7v-5h1a2 2 0 0 0 2-2V23a2 2 0 0 0-2-2H8a2 2 0 0 0-2 2v16a2 2 0 0 0 2 2z" fill="#FC6240" opacity="1" data-original="#000000" class=""></path></g></g></svg>