<svg xmlns="http://www.w3.org/2000/svg" version="1.1" xmlns:xlink="http://www.w3.org/1999/xlink" width="512" height="512" x="0" y="0" viewBox="0 0 512 512" style="enable-background:new 0 0 512 512" xml:space="preserve" class=""><g><path d="m509.423 469.005-54.576-102.999c-3.833-7.175-10.963-11.458-19.074-11.458H329.766c46.029-57.998 90.765-122.951 90.765-178.734 0-90.716-73.802-164.518-164.519-164.518-90.731 0-164.546 73.802-164.546 164.518 0 55.72 44.756 120.699 90.806 178.734H76.251c-8.155 0-15.292 4.296-19.088 11.482L2.619 468.972c-3.673 6.852-3.477 14.608.556 21.312 4.026 6.622 10.774 10.42 18.513 10.42h468.649c7.766 0 14.512-3.81 18.505-10.452 3.997-6.648 4.21-14.391.581-21.247zm-73.65-98.458c2.199 0 3.915 1.037 4.949 2.973l10.057 18.981h-151.82a4535.393 4535.393 0 0 0 17.957-21.954zM256.012 27.294c81.894 0 148.52 66.626 148.52 148.519 0 63.002-68.689 146.598-118.843 207.638-10.679 12.996-20.857 25.382-29.676 36.678-8.812-11.285-18.978-23.662-29.646-36.648-50.179-61.085-118.902-144.743-118.902-207.667 0-81.894 66.638-148.52 148.547-148.52zM76.251 370.547h58.332l-7.345 21.954H61.244l10.062-18.99c1.023-1.939 2.734-2.964 4.945-2.964zM16.865 482.006c-1.081-1.797-1.13-3.639-.127-5.51l16.97-32.027h76.13l-13.466 40.236H21.688c-2.112.001-3.74-.919-4.823-2.699zm96.377 2.7 15.294-45.697a7.998 7.998 0 0 0-7.586-10.538H42.185L52.766 408.5h80.231a7.998 7.998 0 0 0 7.586-5.462l10.87-32.491h43.665c6.387 7.874 12.722 15.586 18.885 23.09 12.265 14.93 23.862 29.047 33.377 41.484a9.801 9.801 0 0 0 8.628 5.096h.003a9.802 9.802 0 0 0 8.631-5.095c6.29-8.222 13.5-17.185 21.2-26.622h173.414l10.582 19.971H293.427a7.998 7.998 0 0 0-5.5 13.807l44.801 42.428h-46.432l-89.807-85.053a7.997 7.997 0 0 0-13.087 3.269l-27.366 81.783h-42.794zm149.788 0h-90.122l21.688-64.812zm232.1-2.699c-1.076 1.791-2.689 2.699-4.794 2.699H355.995l-42.488-40.236h164.809l16.969 32.024c.982 1.854.93 3.709-.155 5.513zM357.094 175.814c0-55.737-45.345-101.083-101.083-101.083s-101.083 45.345-101.083 101.083c0 55.753 45.345 101.111 101.083 101.111s101.083-45.359 101.083-101.111zm-186.166 0c0-46.916 38.168-85.084 85.084-85.084s85.084 38.168 85.084 85.084c0 46.931-38.168 85.112-85.084 85.112s-85.084-38.182-85.084-85.112z" fill="#000000" opacity="1" data-original="#000000" class=""></path></g></svg>