<svg width="434" height="194" viewBox="0 0 434 194" fill="none" xmlns="http://www.w3.org/2000/svg">
<path d="M341.687 123.94H380.819V121.038C380.819 116.817 379.529 113.563 376.95 111.277C374.429 108.932 370.94 107.759 366.485 107.759H347.227V93.8651H367.188C374.927 93.8651 381.434 96.386 386.711 101.428C392.046 106.411 394.713 112.713 394.713 120.334L394.801 123.94V137.834H341.687V123.94ZM362.616 82.697C362.616 80.5865 363.349 78.7984 364.814 77.3328C366.28 75.8085 368.068 75.0464 370.178 75.0464C372.289 75.0464 374.077 75.8085 375.543 77.3328C377.067 78.7984 377.829 80.5865 377.829 82.697C377.829 84.8075 377.096 86.5955 375.63 88.0612C374.106 89.5854 372.289 90.3476 370.178 90.3476C368.068 90.3476 366.28 89.6147 364.814 88.1491C363.349 86.6249 362.616 84.8075 362.616 82.697Z" fill="#232524"/>
<path d="M343.456 137.834H308.281V123.94H343.456V137.834Z" fill="#232524"/>
<path d="M265.684 137.834V123.94H290.131V116.465C290.131 113.944 289.369 111.863 287.845 110.221C286.379 108.58 284.474 107.759 282.129 107.759C280.018 107.759 277.849 108.404 275.621 109.694L270.169 97.3825C273.804 95.0375 277.79 93.865 282.129 93.865C288.284 93.865 293.473 96.0341 297.694 100.372C301.973 104.711 304.113 110.075 304.113 116.465V123.94H310.005V137.834H265.684Z" fill="#232524"/>
<path d="M218.817 123.94C216.765 121.771 215.739 119.103 215.739 115.937C215.739 109.84 217.879 104.652 222.159 100.372C226.497 96.0341 231.685 93.865 237.724 93.865C243.762 93.865 248.921 96.0341 253.201 100.372C257.539 104.652 259.708 109.84 259.708 115.937C259.708 122.034 257.568 127.223 253.288 131.502C249.009 135.723 243.821 137.834 237.724 137.834H210.639V123.94H218.817ZM232.008 121.565C233.59 123.148 235.496 123.94 237.724 123.94C239.951 123.94 241.827 123.148 243.352 121.565C244.934 119.983 245.726 118.077 245.726 115.849C245.726 113.622 244.934 111.716 243.352 110.133C241.769 108.551 239.893 107.759 237.724 107.759C235.496 107.759 233.59 108.551 232.008 110.133C230.425 111.716 229.633 113.622 229.633 115.849C229.633 118.077 230.425 119.983 232.008 121.565Z" fill="#232524"/>
<path d="M212.408 137.834H177.233V123.94H212.408V137.834Z" fill="#232524"/>
<path d="M140.649 123.94H148.212C149.677 123.94 150.821 123.442 151.641 122.445C152.462 121.448 152.873 120.129 152.873 118.488V93.8651H166.767V118.488C166.767 120.129 167.177 121.448 167.998 122.445C168.819 123.442 169.962 123.94 171.427 123.94H178.99V137.834H171.427C166.561 137.834 162.692 136.163 159.82 132.822C156.947 136.163 153.078 137.834 148.212 137.834H140.649V123.94ZM161.051 83.1367C161.051 81.1435 161.754 79.4433 163.161 78.0363C164.568 76.5707 166.298 75.8379 168.35 75.8379C170.401 75.8379 172.131 76.5707 173.538 78.0363C174.945 79.4433 175.648 81.1435 175.648 83.1367C175.648 85.13 174.945 86.8301 173.538 88.2371C172.131 89.7027 170.401 90.4356 168.35 90.4356C166.298 90.4356 164.568 89.7321 163.161 88.3251C161.754 86.8594 161.051 85.13 161.051 83.1367ZM146.277 77.9484C147.684 76.5414 149.384 75.8379 151.378 75.8379C153.371 75.8379 155.071 76.5707 156.478 78.0363C157.944 79.4433 158.676 81.1435 158.676 83.1367C158.676 85.13 157.973 86.8301 156.566 88.2371C155.1 89.7027 153.371 90.4356 151.378 90.4356C149.384 90.4356 147.655 89.7321 146.189 88.3251C144.782 86.8594 144.079 85.13 144.079 83.1367C144.079 81.1435 144.812 79.414 146.277 77.9484Z" fill="#232524"/>
<path d="M142.418 137.834H107.243V123.94H142.418V137.834Z" fill="#232524"/>
<path d="M29.4519 111.453V102.659H43.3461V111.453C43.3461 115.439 44.5479 118.517 46.9515 120.686C49.3552 122.855 52.6382 123.94 56.8006 123.94H63.5718V116.993C63.5718 109.782 65.653 104.124 69.8153 100.021C73.9777 95.9169 79.6351 93.865 86.7873 93.865H102.88V119.191C102.88 120.598 103.202 121.741 103.847 122.621C104.551 123.5 105.547 123.94 106.837 123.94H109.036V137.834H106.837C101.326 137.834 96.9588 136.134 93.7344 132.733C90.51 129.275 88.8978 124.76 88.8978 119.191V107.407H87.0511C80.661 107.407 77.4659 110.573 77.4659 116.905V137.834H56.8006C48.4758 137.834 41.8218 135.372 36.8387 130.447C31.9142 125.523 29.4519 119.191 29.4519 111.453ZM61.4613 150.233C61.4613 148.24 62.1648 146.51 63.5718 145.045C65.0374 143.638 66.7668 142.934 68.7601 142.934C70.812 142.934 72.5414 143.638 73.9484 145.045C75.414 146.51 76.1469 148.24 76.1469 150.233C76.1469 152.226 75.414 153.956 73.9484 155.421C72.4828 156.828 70.7533 157.532 68.7601 157.532C66.7668 157.532 65.0374 156.799 63.5718 155.333C62.1648 153.926 61.4613 152.226 61.4613 150.233ZM43.7858 150.233C43.7858 148.181 44.4893 146.452 45.8963 145.045C47.3619 143.638 49.0913 142.934 51.0846 142.934C53.0779 142.934 54.778 143.638 56.185 145.045C57.6506 146.452 58.3834 148.181 58.3834 150.233C58.3834 152.226 57.6799 153.956 56.2729 155.421C54.8073 156.828 53.0779 157.532 51.0846 157.532C49.0913 157.532 47.3619 156.799 45.8963 155.333C44.4893 153.926 43.7858 152.226 43.7858 150.233Z" fill="#232524"/>
<path d="M123.888 39.1366C122.974 39.5622 122.312 39.864 121.901 40.0421C120.463 40.6587 120.394 40.5306 121.693 39.6577C169.125 7.90063 225.533 -3.98142 281.934 1.15183C313.347 4.00943 343.889 10.8277 373.558 21.6067C373.594 21.6185 373.624 21.642 373.645 21.6735C373.665 21.7049 373.674 21.7426 373.67 21.7805C373.666 21.8184 373.65 21.8545 373.624 21.8832C373.598 21.9118 373.563 21.9314 373.526 21.9389C362.001 23.993 350.548 26.3968 339.166 29.1502C338.949 29.2023 338.737 29.1871 338.529 29.1046C268.971 0.474349 191.101 7.80944 123.888 39.1366Z" fill="#fc6240"/>
<path d="M383.871 49.5938C362.475 49.6826 341.065 51.4672 319.95 54.7209C319.917 54.7236 319.884 54.7146 319.856 54.6954C319.829 54.6763 319.809 54.6482 319.8 54.616C319.792 54.5838 319.794 54.5496 319.808 54.5193C319.822 54.4889 319.846 54.4643 319.876 54.4498C332.884 49.2668 346.252 45.198 359.981 42.2434C373.498 39.3347 389.716 36.3259 403.704 33.2168C403.785 33.1988 403.868 33.1986 403.95 33.216C404.031 33.2334 404.107 33.2681 404.173 33.3177C404.24 33.3673 404.295 33.4306 404.335 33.5034C404.374 33.5762 404.398 33.6566 404.404 33.7393C405.074 43.4611 401.219 53.0595 395.323 60.6762C395.307 60.6976 395.285 60.713 395.26 60.7198C395.234 60.7265 395.207 60.7241 395.183 60.713C395.159 60.7019 395.14 60.6828 395.128 60.659C395.117 60.6352 395.114 60.6081 395.121 60.5825C396.91 53.4441 391.039 49.5642 383.871 49.5938Z" fill="#fc6240"/>
<path d="M145.359 56.2949C179.038 56.6515 212.86 57.1638 246.467 54.6091C260.075 53.576 273.536 51.5768 286.85 48.6116C287.539 48.4603 287.578 48.5575 286.967 48.9033C286.326 49.2621 285.462 49.6879 284.375 50.1807C252.1 64.8666 215.77 67.0711 180.74 67.0452C164.206 67.0322 147.665 67.0128 131.131 66.8571C112.867 66.6842 95.1072 67.6265 77.852 69.6841C65.8418 71.1149 53.9096 74.0694 42.0553 78.5475C25.7053 84.7245 12.4088 94.8393 2.16566 108.892C2.15883 108.905 2.14955 108.916 2.13835 108.925C2.12715 108.934 2.11424 108.941 2.10036 108.946C2.08649 108.95 2.07191 108.951 2.05748 108.95C2.04304 108.948 2.02903 108.944 2.01623 108.937C2.00343 108.931 1.99211 108.921 1.9829 108.91C1.97369 108.899 1.96677 108.886 1.96255 108.872C1.95833 108.858 1.95688 108.844 1.95829 108.829C1.95969 108.815 1.96393 108.801 1.97076 108.788C9.24704 87.5514 23.5831 73.3713 44.9788 66.2477C55.1266 62.8717 65.5256 60.5959 76.1759 59.4202C94.6697 57.3842 113.231 56.4246 131.859 56.5413C132.318 56.5415 132.764 56.3885 133.126 56.1069C136.946 53.1373 140.811 50.1245 144.722 47.0684C148.412 44.1766 151.375 43.1522 155.793 42.5556C158.045 42.2487 159.751 42.3871 160.912 42.9706C164.661 44.8574 164.641 51.1727 161.471 53.6625C159.431 55.264 153.194 54.9592 150.537 55.1084C149.458 55.1732 148.549 54.9463 147.808 54.4276C147.605 54.2849 147.403 54.2892 147.204 54.4405L145.249 55.9642C144.967 56.1804 145.004 56.2906 145.359 56.2949Z" fill="#fc6240"/>
<path d="M286.332 182.749H287.146C288.735 182.749 289.529 181.733 289.529 179.702V162.115H292.425V179.702C292.425 181.492 291.953 182.93 291.007 184.016C290.062 185.102 288.775 185.645 287.146 185.645H286.332V182.749Z" fill="#232524"/>
<path d="M271.751 182.749C270.946 182.186 270.303 181.462 269.82 180.577C269.357 179.672 269.126 178.697 269.126 177.651C269.126 175.7 269.83 174.031 271.238 172.643C272.646 171.255 274.375 170.562 276.426 170.562C278.558 170.562 280.348 171.306 281.796 172.794C283.244 174.282 283.968 176.122 283.968 178.314V182.749H286.925V185.645H266.652V182.749H271.751ZM273.138 181.391C274.043 182.296 275.139 182.749 276.426 182.749H281.072V178.103C281.072 176.796 280.62 175.69 279.715 174.785C278.81 173.88 277.714 173.427 276.426 173.427C275.139 173.427 274.043 173.89 273.138 174.815C272.233 175.72 271.781 176.816 271.781 178.103C271.781 179.39 272.233 180.486 273.138 181.391ZM277.874 165.674C278.216 165.333 278.629 165.162 279.111 165.162C279.574 165.162 279.976 165.333 280.318 165.674C280.68 166.016 280.861 166.429 280.861 166.911C280.861 167.394 280.68 167.806 280.318 168.148C279.976 168.49 279.574 168.661 279.111 168.661C278.629 168.661 278.216 168.49 277.874 168.148C277.533 167.806 277.362 167.394 277.362 166.911C277.362 166.429 277.533 166.016 277.874 165.674ZM271.932 166.911C271.932 166.429 272.103 166.016 272.444 165.674C272.786 165.333 273.199 165.162 273.681 165.162C274.144 165.162 274.546 165.333 274.888 165.674C275.25 166.016 275.431 166.429 275.431 166.911C275.431 167.394 275.25 167.806 274.888 168.148C274.546 168.49 274.144 168.661 273.681 168.661C273.199 168.661 272.786 168.49 272.444 168.148C272.103 167.806 271.932 167.394 271.932 166.911Z" fill="#232524"/>
<path d="M242.583 185.645V182.749H245.902V162.115H248.798V175.117C251.453 172.08 254.117 170.562 256.792 170.562C258.924 170.562 260.654 171.296 261.981 172.764C263.328 174.232 264.002 176.132 264.002 178.465V179.793C264.002 181.764 264.756 182.749 266.265 182.749H267.079V185.645H266.265C264.515 185.645 263.258 184.891 262.494 183.382C261.548 184.891 260.161 185.645 258.331 185.645H242.583ZM248.798 182.749H258.331C259.135 182.749 259.799 182.467 260.322 181.904C260.865 181.321 261.136 180.486 261.136 179.4V178.495C261.136 176.967 260.724 175.74 259.899 174.815C259.075 173.89 257.949 173.427 256.521 173.427C254.208 173.427 251.634 175.157 248.798 178.616V182.749Z" fill="#232524"/>
<path d="M222.887 188.692C222.887 187.324 223.39 186.148 224.396 185.162C225.401 184.177 226.829 183.543 228.679 183.262L223.521 175.599V170.562H234.864C238.886 170.562 240.897 171.989 240.897 174.845C240.897 175.469 240.766 176.112 240.505 176.776C240.263 177.419 239.841 178.133 239.238 178.918C238.655 179.682 238.172 180.285 237.79 180.728C237.428 181.15 236.814 181.824 235.95 182.749H243.159L243.19 185.645H230.61C229.041 185.645 227.845 185.927 227.02 186.49C226.196 187.053 225.783 187.787 225.783 188.692C225.783 189.677 226.185 190.502 226.99 191.166L225.15 193.368C223.641 192.121 222.887 190.562 222.887 188.692ZM226.899 173.427V175.449L231.726 182.749H232.631C232.852 182.508 233.194 182.136 233.657 181.633C234.14 181.13 234.491 180.748 234.713 180.486C234.954 180.225 235.266 179.883 235.648 179.461C236.03 179.038 236.312 178.687 236.493 178.405C236.694 178.123 236.895 177.812 237.096 177.47C237.317 177.128 237.468 176.816 237.548 176.535C237.649 176.253 237.699 175.982 237.699 175.72C237.699 174.815 237.387 174.212 236.764 173.91C236.141 173.588 235.175 173.427 233.868 173.427H226.899Z" fill="#232524"/>
<path d="M210.722 185.645H207.856V162.115H210.722V185.645Z" fill="#232524"/>
<path d="M196.714 182.749H197.529C199.118 182.749 199.912 181.733 199.912 179.702V162.115H202.808V179.702C202.808 181.492 202.335 182.93 201.39 184.016C200.445 185.102 199.158 185.645 197.529 185.645H196.714V182.749Z" fill="#232524"/>
<path d="M175.385 182.749H182.445L177.648 175.599V170.561H188.991C193.013 170.561 195.024 171.989 195.024 174.845C195.024 175.469 194.893 176.112 194.632 176.776C194.391 177.419 193.968 178.133 193.365 178.918C192.782 179.682 192.299 180.285 191.917 180.728C191.555 181.15 190.942 181.824 190.077 182.749H197.287L197.317 185.645H175.385V182.749ZM181.027 175.449L185.853 182.749H186.758C186.98 182.508 187.322 182.136 187.784 181.633C188.267 181.13 188.619 180.748 188.84 180.486C189.081 180.225 189.393 179.883 189.775 179.461C190.157 179.038 190.439 178.686 190.62 178.405C190.821 178.123 191.022 177.812 191.223 177.47C191.444 177.128 191.595 176.816 191.676 176.535C191.776 176.253 191.827 175.981 191.827 175.72C191.827 174.815 191.515 174.212 190.891 173.91C190.268 173.588 189.303 173.427 187.995 173.427H181.027V175.449ZM184.285 167.092C184.285 166.589 184.456 166.167 184.798 165.825C185.139 165.463 185.562 165.282 186.065 165.282C186.567 165.282 186.99 165.463 187.332 165.825C187.694 166.167 187.875 166.589 187.875 167.092C187.875 167.595 187.704 168.017 187.362 168.359C187 168.721 186.567 168.902 186.065 168.902C185.562 168.902 185.139 168.731 184.798 168.389C184.456 168.027 184.285 167.595 184.285 167.092Z" fill="#232524"/>
<path d="M164.367 182.749H166.358C167.927 182.749 168.711 181.733 168.711 179.702V170.562H171.608V179.702C171.608 181.733 172.402 182.749 173.991 182.749H175.982V185.645H173.991C172.261 185.645 170.984 184.961 170.16 183.594C169.335 184.961 168.068 185.645 166.358 185.645H164.367V182.749ZM166.389 188.692C166.731 188.35 167.143 188.179 167.625 188.179C168.088 188.179 168.49 188.35 168.832 188.692C169.194 189.034 169.375 189.446 169.375 189.929C169.375 190.391 169.194 190.794 168.832 191.135C168.49 191.497 168.088 191.678 167.625 191.678C167.143 191.678 166.731 191.497 166.389 191.135C166.047 190.794 165.876 190.391 165.876 189.929C165.876 189.446 166.047 189.034 166.389 188.692ZM171.517 188.692C171.839 188.35 172.241 188.179 172.724 188.179C173.186 188.179 173.588 188.35 173.93 188.692C174.292 189.034 174.473 189.446 174.473 189.929C174.473 190.391 174.292 190.794 173.93 191.135C173.588 191.497 173.186 191.678 172.724 191.678C172.241 191.678 171.829 191.507 171.487 191.166C171.165 190.824 171.004 190.411 171.004 189.929C171.004 189.446 171.175 189.034 171.517 188.692Z" fill="#232524"/>
<path d="M158.953 162.115H161.819V179.702C161.819 181.733 162.613 182.749 164.202 182.749H164.956V185.645H164.202C162.573 185.645 161.286 185.102 160.341 184.016C159.415 182.93 158.953 181.492 158.953 179.702V162.115Z" fill="#232524"/>
<path d="M147.347 189.476C147.769 189.617 148.182 189.687 148.584 189.687C149.71 189.687 150.504 189.355 150.967 188.692C151.45 188.028 151.691 186.992 151.691 185.585V170.561L154.587 170.531V185.615C154.587 187.867 154.074 189.577 153.049 190.743C152.043 191.93 150.585 192.523 148.674 192.523C147.91 192.523 147.196 192.402 146.532 192.161L147.347 189.476Z" fill="#232524"/>
<path d="M137.897 185.645H135.031V162.115H137.897V185.645Z" fill="#232524"/>
<path d="M123.889 182.749H124.704C126.293 182.749 127.087 181.733 127.087 179.702V162.115H129.983V179.702C129.983 181.492 129.511 182.93 128.565 184.016C127.62 185.102 126.333 185.645 124.704 185.645H123.889V182.749Z" fill="#232524"/>
<path d="M104.328 182.749H108.853C108.109 182.246 107.516 181.593 107.073 180.788C106.631 179.964 106.409 179.069 106.409 178.103C106.409 176.012 107.143 174.232 108.612 172.764C110.1 171.296 111.88 170.562 113.951 170.562C116.023 170.562 117.792 171.296 119.261 172.764C120.749 174.232 121.493 176.012 121.493 178.103V180.396C121.493 181.1 121.684 181.673 122.066 182.115C122.448 182.538 122.981 182.749 123.665 182.749H124.479V185.645H123.665C122.619 185.645 121.764 185.384 121.101 184.861C120.437 184.338 119.995 183.614 119.773 182.689C119.11 183.594 118.265 184.318 117.239 184.861C116.214 185.384 115.118 185.645 113.951 185.645H104.328V182.749ZM110.663 181.391C111.568 182.296 112.664 182.749 113.951 182.749C115.238 182.749 116.334 182.296 117.239 181.391C118.144 180.486 118.597 179.39 118.597 178.103C118.597 176.816 118.144 175.72 117.239 174.815C116.334 173.89 115.238 173.427 113.951 173.427C112.664 173.427 111.568 173.89 110.663 174.815C109.758 175.72 109.305 176.816 109.305 178.103C109.305 179.39 109.758 180.486 110.663 181.391Z" fill="#232524"/>
<path d="M79.5992 182.749C81.1879 182.749 81.9823 181.733 81.9823 179.702V170.562H84.8784V179.31C84.8784 180.396 85.1398 181.241 85.6627 181.844C86.1856 182.447 86.8493 182.749 87.6537 182.749C88.4582 182.749 89.1219 182.447 89.6448 181.844C90.1878 181.241 90.4593 180.396 90.4593 179.31V170.562H93.3251V179.31C93.3251 180.396 93.5866 181.241 94.1095 181.844C94.6525 182.447 95.3262 182.749 96.1307 182.749C96.9351 182.749 97.5988 182.447 98.1217 181.844C98.6446 181.241 98.906 180.396 98.906 179.31V170.562H101.802V179.702C101.802 181.733 102.596 182.749 104.185 182.749H104.939V185.645H104.185C102.355 185.645 101.048 184.901 100.264 183.413C99.2982 184.901 97.9206 185.645 96.1307 185.645C94.2201 185.645 92.8123 184.831 91.9073 183.201C90.9621 184.831 89.5442 185.645 87.6537 185.645C85.8236 185.645 84.446 184.891 83.5209 183.383C82.7767 184.891 81.4695 185.645 79.5992 185.645H78.845V182.749H79.5992Z" fill="#232524"/>
<path d="M67.8271 185.645V182.749H69.8182C71.407 182.749 72.2014 181.733 72.2014 179.702V170.561H75.0672V179.702C75.0672 181.733 75.8616 182.749 77.4504 182.749H79.4415V185.645H77.4504C75.741 185.645 74.4739 184.961 73.6494 183.594C72.7846 184.961 71.5075 185.645 69.8182 185.645H67.8271ZM74.9767 165.916C75.3186 165.574 75.7309 165.403 76.2136 165.403C76.6962 165.403 77.1085 165.574 77.4504 165.916C77.7923 166.258 77.9633 166.67 77.9633 167.153C77.9633 167.635 77.7923 168.047 77.4504 168.389C77.1085 168.731 76.6962 168.902 76.2136 168.902C75.7309 168.902 75.3186 168.731 74.9767 168.389C74.6348 168.047 74.4639 167.635 74.4639 167.153C74.4639 166.67 74.6348 166.258 74.9767 165.916ZM69.3958 167.153C69.3958 166.67 69.5567 166.258 69.8785 165.916C70.2204 165.574 70.6327 165.403 71.1154 165.403C71.598 165.403 72.0103 165.574 72.3522 165.916C72.6941 166.258 72.865 166.67 72.865 167.153C72.865 167.635 72.6941 168.047 72.3522 168.389C72.0103 168.731 71.598 168.902 71.1154 168.902C70.6327 168.902 70.2204 168.731 69.8785 168.389C69.5567 168.047 69.3958 167.635 69.3958 167.153Z" fill="#232524"/>
<path d="M46.498 182.749H53.5571L48.7606 175.599V170.562H60.1034C64.1256 170.562 66.1368 171.989 66.1368 174.845C66.1368 175.469 66.006 176.112 65.7446 176.776C65.5033 177.419 65.0809 178.133 64.4776 178.918C63.8944 179.682 63.4117 180.285 63.0296 180.728C62.6676 181.15 62.0542 181.824 61.1894 182.749H68.3993L68.4295 185.645H46.498V182.749ZM52.1393 175.449L56.966 182.749H57.871C58.0922 182.508 58.4341 182.136 58.8967 181.633C59.3794 181.13 59.7313 180.748 59.9525 180.486C60.1939 180.225 60.5056 179.883 60.8877 179.461C61.2698 179.038 61.5514 178.687 61.7324 178.405C61.9335 178.123 62.1346 177.812 62.3357 177.47C62.557 177.128 62.7078 176.816 62.7882 176.535C62.8888 176.253 62.9391 175.982 62.9391 175.72C62.9391 174.815 62.6273 174.212 62.0039 173.91C61.3804 173.588 60.4151 173.427 59.1079 173.427H52.1393V175.449Z" fill="#232524"/>
<path d="M26.9365 182.749H31.4616C30.7175 182.246 30.1242 181.593 29.6817 180.788C29.2393 179.964 29.018 179.069 29.018 178.103C29.018 176.012 29.7521 174.232 31.2202 172.764C32.7085 171.296 34.4883 170.562 36.5598 170.562C38.6313 170.562 40.4011 171.296 41.8692 172.764C43.3574 174.232 44.1016 176.012 44.1016 178.103V180.396C44.1016 181.1 44.2926 181.673 44.6747 182.115C45.0568 182.538 45.5898 182.749 46.2736 182.749H47.0881V185.645H46.2736C45.2278 185.645 44.3731 185.384 43.7094 184.861C43.0457 184.338 42.6033 183.614 42.382 182.689C41.7184 183.594 40.8737 184.318 39.848 184.861C38.8223 185.384 37.7263 185.645 36.5598 185.645H26.9365V182.749ZM33.2716 181.391C34.1766 182.296 35.2727 182.749 36.5598 182.749C37.8469 182.749 38.943 182.296 39.848 181.391C40.753 180.486 41.2055 179.39 41.2055 178.103C41.2055 176.816 40.753 175.72 39.848 174.815C38.943 173.89 37.8469 173.427 36.5598 173.427C35.2727 173.427 34.1766 173.89 33.2716 174.815C32.3666 175.72 31.9141 176.816 31.9141 178.103C31.9141 179.39 32.3666 180.486 33.2716 181.391Z" fill="#232524"/>
<path d="M18.1575 182.749H19.0323C20.6211 182.749 21.4155 181.733 21.4155 179.702V162.115H24.2814V179.702C24.2814 181.733 25.0758 182.749 26.6646 182.749H27.5394V185.645H26.6646C24.9551 185.645 23.6881 184.961 22.8635 183.594C21.9987 184.961 20.7217 185.645 19.0323 185.645H18.1575V182.749Z" fill="#232524"/>
<path d="M3.05023 172.764C4.51836 171.296 6.28816 170.562 8.35962 170.562H15.5394V179.702C15.5394 181.733 16.3237 182.749 17.8924 182.749H18.7672V185.645H17.8924C15.8209 185.645 14.4534 184.7 13.7897 182.809C12.5428 184.7 10.7328 185.645 8.35962 185.645C6.26804 185.645 4.48819 184.911 3.02006 183.443C1.55194 181.975 0.817871 180.195 0.817871 178.103C0.817871 176.012 1.56199 174.232 3.05023 172.764ZM5.07142 181.391C5.97643 182.296 7.0725 182.749 8.35962 182.749C9.58641 182.749 10.602 182.327 11.4065 181.482C12.2311 180.637 12.6433 179.511 12.6433 178.103V173.427H8.35962C7.0725 173.427 5.97643 173.89 5.07142 174.815C4.16641 175.72 3.7139 176.816 3.7139 178.103C3.7139 179.39 4.16641 180.486 5.07142 181.391Z" fill="#232524"/>
<path d="M401.854 147.907L401.558 147.902C401.463 147.903 401.369 147.924 401.284 147.967C401.198 148.009 401.123 148.07 401.065 148.145C378.743 176.726 336.704 176.449 314.397 148.14C314.335 148.063 314.257 148 314.169 147.957C314.08 147.915 313.982 147.892 313.884 147.892H288.094C288.059 147.892 288.024 147.901 287.993 147.919C287.962 147.936 287.937 147.962 287.919 147.992C287.901 148.023 287.891 148.058 287.891 148.093C287.89 148.129 287.899 148.164 287.917 148.195L292.287 156.059C292.376 156.218 292.506 156.271 292.677 156.218C307.777 151.587 320.553 164.518 316.069 179.658C316.057 179.707 316.059 179.759 316.077 179.805C316.095 179.852 316.127 179.89 316.168 179.916C323.824 184.845 332.097 188.302 340.986 190.287C341.091 190.31 341.168 190.273 341.218 190.178C348.375 176.083 366.83 176.286 374.2 190.089C374.282 190.24 374.407 190.298 374.575 190.262C383.395 188.268 391.615 184.834 399.235 179.961C399.389 179.861 399.439 179.724 399.383 179.549C397.104 172.264 398.855 165.063 404.439 159.922C409.339 155.412 415.431 154.153 422.716 156.143C422.877 156.186 423.002 156.137 423.091 155.995C427.922 148.368 431.329 140.138 433.312 131.306C433.333 131.214 433.322 131.118 433.282 131.033C433.241 130.949 433.174 130.881 433.09 130.841C419.189 124.041 419.534 104.676 433.075 97.8861C433.162 97.8438 433.232 97.7734 433.274 97.6863C433.316 97.5991 433.328 97.5003 433.307 97.4057C431.321 88.5603 427.904 80.3225 423.056 72.6922C422.964 72.5436 422.836 72.4958 422.671 72.5486C407.65 77.1793 394.968 64.2035 399.368 49.1426C399.414 48.9874 399.368 48.8653 399.23 48.7761C391.597 43.8896 383.357 41.8584 374.51 39.8707C374.336 39.8311 374.208 39.8922 374.126 40.054C367.234 53.8816 348.168 52.5649 341.287 38.6481C341.208 38.4863 341.08 38.4252 340.902 38.4648C332.088 40.4624 323.873 43.8929 316.257 48.7563C316.186 48.8022 316.131 48.8699 316.102 48.9494C316.073 49.0289 316.07 49.1158 316.094 49.1971C318.417 56.7399 316.439 64.1638 310.5 69.2551C305.629 73.4219 299.693 74.5263 292.692 72.5684C292.494 72.5123 292.346 72.5733 292.248 72.7516L287.946 80.4826C287.926 80.5188 287.916 80.5595 287.917 80.6007C287.918 80.6418 287.929 80.6821 287.95 80.7176C287.971 80.753 288.001 80.7824 288.036 80.8029C288.072 80.8234 288.112 80.8342 288.153 80.8343H313.992C314.051 80.8343 314.109 80.8209 314.162 80.7952C314.215 80.7695 314.261 80.732 314.298 80.6857C327.376 63.8865 348.78 55.898 369.503 60.4989C394.543 66.0557 412.948 88.7881 412.613 114.948C412.468 126.451 409.03 136.967 402.298 146.496C402.205 146.631 402.155 146.792 402.155 146.956L402.165 147.595C402.166 147.636 402.158 147.676 402.143 147.714C402.127 147.752 402.105 147.787 402.076 147.816C402.047 147.845 402.012 147.868 401.974 147.883C401.936 147.899 401.895 147.907 401.854 147.907Z" fill="#fc6240"/>
</svg>
