<svg xmlns="http://www.w3.org/2000/svg" version="1.1" xmlns:xlink="http://www.w3.org/1999/xlink" width="512" height="512" x="0" y="0" viewBox="0 0 488.8 488.8" style="enable-background:new 0 0 512 512" xml:space="preserve"><g><path d="M381.6 200.4c-12 0-21.6 3.2-29.6 4.8l-2.4 18.4c4-1.6 15.2-4.8 24.8-5.6 9.6 0 15.2 1.6 13.6 10.4-28.8 0-48 5.6-52 24.8-5.6 32 29.6 32.8 43.2 18.4l-1.6 8.8h25.6l11.2-52c4-21.6-15.2-28.8-32.8-28zm1.6 53.6c-1.6 6.4-7.2 8.8-13.6 9.6-5.6 0-10.4-3.2-7.2-9.6 3.2-4.8 10.4-4.8 16-4.8h6.4c-.8-.8-1.6 2.4-1.6 4.8z" style="" fill="#32A6CE" data-original="#32a6ce"></path><path d="M349.6 223.6c4-1.6 15.2-4.8 24.8-5.6 9.6 0 15.2 1.6 13.6 10.4-28.8 0-48 5.6-52 24.8-5.6 32 29.6 32.8 43.2 18.4l-1.6 8.8h25.6l11.2-52c4.8-21.6-15.2-27.2-32.8-27.2m1.6 52.8c-1.6 6.4-7.2 8.8-13.6 9.6-5.6 0-10.4-3.2-7.2-9.6 3.2-4.8 10.4-4.8 16-4.8h6.4c-.8-.8-1.6 2.4-1.6 4.8z" style="" fill="#1A80AD" data-original="#1a80ad"></path><path d="m436 176.4-20.8 104h25.6l21.6-104z" style="" fill="#32A6CE" data-original="#32a6ce"></path><path d="m454.4 176.4-39.2 104h25.6l21.6-104H436z" style="" fill="#1A80AD" data-original="#1a80ad"></path><path d="M316.8 176.4h-47.2l-20.8 104h28l7.2-32h20c19.2 0 35.2-11.2 39.2-31.2 4-23.2-12.8-40.8-26.4-40.8zm-.8 36c-1.6 7.2-8.8 12-16 12h-12.8l5.6-24h13.6c7.2 0 11.2 4.8 9.6 12z" style="" fill="#32A6CE" data-original="#32a6ce"></path><path d="M316.8 176.4h-32l-36.8 104h28l7.2-32h20c19.2 0 35.2-11.2 39.2-31.2 4.8-23.2-12-40.8-25.6-40.8zm-.8 36c-1.6 7.2-8.8 12-16 12h-12.8l5.6-24h13.6c7.2 0 11.2 4.8 9.6 12z" style="" fill="#1A80AD" data-original="#1a80ad"></path><path d="M132 200.4c-12 0-21.6 3.2-28.8 4.8l-2.4 18.4c3.2-1.6 15.2-4.8 24.8-5.6 9.6 0 15.2 1.6 13.6 10.4-28 0-47.2 5.6-51.2 24.8-5.6 32 28.8 32.8 42.4 18.4l-1.6 8.8h25.6l11.2-52c4-21.6-16-28.8-33.6-28zm2.4 53.6c-1.6 6.4-7.2 8.8-13.6 9.6-5.6 0-10.4-3.2-6.4-9.6 3.2-4.8 10.4-4.8 15.2-4.8h6.4c-.8-.8-1.6 2.4-1.6 4.8z" style="" fill="#21789E" data-original="#21789e"></path><path d="M101.6 223.6c3.2-1.6 15.2-4.8 24.8-5.6 9.6 0 15.2 1.6 13.6 10.4-28 0-47.2 5.6-51.2 24.8-5.6 32 28.8 32.8 42.4 18.4l-2.4 8.8h25.6l11.2-52c4.8-21.6-15.2-27.2-32.8-27.2m1.6 52.8c-1.6 6.4-7.2 8.8-13.6 9.6-5.6 0-10.4-3.2-6.4-9.6 3.2-4.8 10.4-4.8 15.2-4.8h6.4c-.8-.8-1.6 2.4-1.6 4.8z" style="" fill="#1A5B80" data-original="#1a5b80"></path><path d="M176 200.4h25.6l4 44.8 25.6-44.8h26.4l-60.8 112H168l18.4-33.6z" style="" fill="#21789E" data-original="#21789e"></path><path d="m201.6 202 4 44 25.6-45.6h26.4l-60.8 112H168l18.4-32.8" style="" fill="#1A5B80" data-original="#1a5b80"></path><path d="M68.8 176.4h-48L0 280.4h28l7.2-32h20c19.2 0 35.2-11.2 39.2-31.2 4.8-23.2-12-40.8-25.6-40.8zm-.8 36c-1.6 7.2-8.8 12-16 12H39.2l5.6-24h13.6c7.2 0 11.2 4.8 9.6 12z" style="" fill="#21789E" data-original="#21789e"></path><path d="M68.8 176.4H47.2L0 280.4h28l7.2-32h20c19.2 0 35.2-11.2 39.2-31.2 4.8-23.2-12-40.8-25.6-40.8zm-.8 36c-1.6 7.2-8.8 12-16 12H39.2l5.6-24h13.6c7.2 0 11.2 4.8 9.6 12z" style="" fill="#1A5B80" data-original="#1a5b80"></path><path d="M127.2 228.4c-21.6 1.6-36 8-39.2 24-5.6 32 28.8 32.8 42.4 18.4l-1.6 9.6h25.6l4-19.2-31.2-32.8zm7.2 25.6c-1.6 6.4-7.2 8.8-13.6 9.6-5.6 0-10.4-3.2-6.4-9.6 3.2-4.8 10.4-4.8 15.2-4.8h6.4c-.8-.8-1.6 2.4-1.6 4.8zM207.2 244.4l-1.6 2.4 16.8 16 35.2-62.4h-26.4zM28 280.4l7.2-32-32.8 32z" style="" fill="#06435E" data-original="#06435e"></path><path d="m276 280.4 7.2-33.6v.8l-32.8 32.8zM376 228.4c-21.6 1.6-36 8-39.2 24-5.6 32 29.6 32.8 43.2 18.4l-2.4 9.6h25.6l4-19.2-31.2-32.8zm7.2 25.6c-1.6 6.4-7.2 8.8-13.6 9.6-5.6 0-10.4-3.2-7.2-9.6 3.2-4.8 10.4-4.8 16-4.8h6.4c-.8-.8-1.6 2.4-1.6 4.8zM433.6 233.2l-18.4 47.2h25.6l7.2-32z" style="" fill="#2273AA" data-original="#2273aa"></path><path d="M468 193.2V182h-4v-1.6h10.4v1.6h-4v11.2H468zM476 193.2v-12.8h2.4l3.2 8.8c0 .8.8 1.6.8 1.6 0-.8 0-.8.8-2.4l3.2-8.8h2.4v12.8h-1.6v-11.2l-4 11.2h-2.4l-4-11.2v11.2h-.8v.8z" style="" fill="#32A6CE" data-original="#32a6ce"></path></g></svg>