<svg xmlns="http://www.w3.org/2000/svg" version="1.1" xmlns:xlink="http://www.w3.org/1999/xlink" width="512" height="512" x="0" y="0" viewBox="0 0 50 50" style="enable-background:new 0 0 512 512" xml:space="preserve" class=""><defs><linearGradient id="a" x1="24.973" x2="24.973" y1="10.988" y2="39.02" gradientUnits="userSpaceOnUse"><stop offset="0" stop-color="#f12711"></stop><stop offset="1" stop-color="#f5ae19"></stop></linearGradient></defs><g><linearGradient id="a" x1="24.973" x2="24.973" y1="10.988" y2="39.02" gradientUnits="userSpaceOnUse"><stop offset="0" stop-color="#f12711"></stop><stop offset="1" stop-color="#f5ae19"></stop></linearGradient><path fill="url(&quot;#a&quot;)" d="M31.801 10.988a13.92 13.92 0 0 0-6.818 1.782 14.016 14.016 0 1 0 0 24.468 14.01 14.01 0 1 0 6.818-26.25zM21.327 34.285a9.722 9.722 0 0 1-3.163.568 9.85 9.85 0 0 1 0-19.698 9.725 9.725 0 0 1 3.163.568 13.932 13.932 0 0 0 0 18.562zm3.656-2.203a9.782 9.782 0 0 1 0-14.156 9.784 9.784 0 0 1 0 14.156zm6.818 2.771a9.722 9.722 0 0 1-3.163-.568 13.932 13.932 0 0 0 0-18.562 9.725 9.725 0 0 1 3.163-.568 9.85 9.85 0 0 1 0 19.698z" opacity="1" data-original="url(#a)"></path></g></svg>