<svg width="1300" height="444" viewBox="0 0 1300 444" fill="none" xmlns="http://www.w3.org/2000/svg">
<path d="M242.574 355.082C240.5 353.881 238.849 352.226 237.675 350.315C236.533 348.866 235.661 347.165 235.154 345.268L192.136 184.308C191.972 183.695 191.151 183.586 190.834 184.136L74.3928 386.339L99.0852 429.218C104.162 438.034 113.544 443.465 123.697 443.465H314.028C324.181 443.465 333.563 438.034 338.639 429.218L433.805 263.961C438.881 255.145 438.881 244.284 433.805 235.469L380.682 143.22L261.626 349.964C257.775 356.652 249.245 358.943 242.574 355.082Z" fill="url(#paint0_linear_233_324)"/>
<path d="M364.578 115.254L254.774 305.932C254.457 306.482 253.636 306.373 253.472 305.76L210.84 146.242C210.734 145.845 210.612 145.457 210.475 145.078C210.453 145.019 210.439 144.957 210.433 144.895C210.01 140.557 207.576 136.48 203.524 134.134C196.853 130.273 188.324 132.565 184.472 139.252L58.2886 358.374L3.91975 263.961C-1.15685 255.145 -1.15684 244.284 3.91975 235.468L99.0852 70.2111C104.162 61.3955 113.544 55.9648 123.697 55.9648L314.028 55.9649C324.181 55.9649 333.563 61.3955 338.639 70.2112L364.578 115.254Z" fill="url(#paint1_linear_233_324)"/>
<path d="M578.137 55.5352C600.8 55.5866 622.521 64.6102 638.549 80.6326C654.577 96.6549 663.608 118.372 663.667 141.035V347.075H607.942V141.06C607.993 137.114 607.26 133.197 605.785 129.536C604.311 125.876 602.124 122.544 599.351 119.736C596.579 116.927 593.276 114.697 589.635 113.175C585.994 111.653 582.086 110.869 578.14 110.869C574.193 110.869 570.286 111.653 566.645 113.175C563.004 114.697 559.701 116.927 556.928 119.736C554.156 122.544 551.969 125.876 550.494 129.536C549.019 133.197 548.286 137.114 548.337 141.06V347.1H492.612V141.06C492.665 118.394 501.693 96.6708 517.72 80.6432C533.748 64.6156 555.471 55.588 578.137 55.5352Z" fill="#232323"/>
<path d="M784.173 55.5352C795.463 55.5279 806.644 57.7462 817.076 62.0633C827.508 66.3803 836.986 72.7114 844.97 80.6944C852.953 88.6774 859.285 98.1558 863.603 108.588C867.92 119.02 870.139 130.2 870.133 141.49V347.1H813.988V141.49C813.988 133.585 810.848 126.004 805.258 120.415C799.668 114.825 792.088 111.685 784.183 111.685C776.278 111.685 768.697 114.825 763.107 120.415C757.518 126.004 754.378 133.585 754.378 141.49V171.73C754.399 172.067 754.543 172.385 754.783 172.624C755.022 172.862 755.34 173.005 755.678 173.025H800.178V229.175H755.678C748.133 229.179 740.661 227.696 733.689 224.81C726.718 221.925 720.383 217.694 715.047 212.359C709.712 207.024 705.48 200.69 702.594 193.718C699.708 186.747 698.224 179.275 698.228 171.73V141.49C698.221 130.201 700.44 119.022 704.756 108.591C709.073 98.1603 715.403 88.6825 723.385 80.6997C731.367 72.7168 740.844 66.3855 751.274 62.0676C761.705 57.7497 772.884 55.5299 784.173 55.5352ZM698.218 214.06C704.75 222.847 713.205 230.023 722.938 235.039C732.67 240.055 743.421 242.779 754.368 243V347.1H698.218V214.06Z" fill="#232323"/>
<path d="M1105.56 55.5352C1128.22 55.5932 1149.93 64.6199 1165.96 80.6417C1181.98 96.6634 1191 118.377 1191.06 141.035V347.075H1135.36V141.06C1135.36 133.155 1132.22 125.574 1126.63 119.985C1121.04 114.395 1113.46 111.255 1105.56 111.255C1097.65 111.255 1090.07 114.395 1084.48 119.985C1078.89 125.574 1075.75 133.155 1075.75 141.06H1020.03C1020.03 133.155 1016.89 125.574 1011.3 119.985C1005.71 114.395 998.132 111.255 990.227 111.255C982.322 111.255 974.741 114.395 969.152 119.985C963.562 125.574 960.422 133.155 960.422 141.06V347.1H904.702V141.06C904.755 118.394 913.783 96.6708 929.81 80.6432C945.838 64.6156 967.561 55.588 990.227 55.5352C1011.62 55.6665 1032.22 63.6604 1048.11 77.9952C1063.78 63.6008 1084.28 55.5895 1105.56 55.5352ZM1020.03 347.1V154.885H1075.75V347.1H1020.03Z" fill="#232323"/>
<path d="M1225.67 347.1V105.535H1281.83V347.1H1225.67Z" fill="#232323"/>
<path d="M1232.51 21.9189L1224.83 14.2439C1224.31 13.7621 1223.63 13.4989 1222.93 13.5101C1222.22 13.5213 1221.55 13.8058 1221.05 14.3037C1220.55 14.8016 1220.27 15.4738 1220.26 16.1783C1220.24 16.8827 1220.51 17.5642 1220.99 18.0789L1228.67 25.7589C1229.18 26.2682 1229.87 26.5542 1230.59 26.5542C1231.31 26.5542 1232 26.2682 1232.51 25.7589C1233.02 25.2497 1233.3 24.5591 1233.3 23.8389C1233.3 23.1188 1233.02 22.4281 1232.51 21.9189Z" fill="#F9B233"/>
<path d="M1221.05 44.1255H1210C1209.3 44.1556 1208.64 44.455 1208.16 44.9613C1207.67 45.4677 1207.4 46.1419 1207.4 46.8431C1207.4 47.5443 1207.67 48.2184 1208.16 48.7247C1208.64 49.231 1209.3 49.5304 1210 49.5605H1221.05C1221.41 49.5762 1221.78 49.5176 1222.12 49.3882C1222.47 49.2587 1222.78 49.0611 1223.05 48.8072C1223.31 48.5533 1223.52 48.2483 1223.67 47.9108C1223.81 47.5732 1223.88 47.2101 1223.88 46.8431C1223.88 46.476 1223.81 46.1128 1223.67 45.7753C1223.52 45.4377 1223.31 45.1328 1223.05 44.879C1222.78 44.6251 1222.47 44.4274 1222.12 44.2979C1221.78 44.1684 1221.41 44.1098 1221.05 44.1255Z" fill="#F9B233"/>
<path d="M1297.17 44.1255H1286.13C1285.76 44.1098 1285.39 44.1684 1285.05 44.2979C1284.71 44.4274 1284.39 44.6251 1284.13 44.879C1283.86 45.1328 1283.65 45.4377 1283.51 45.7753C1283.37 46.1128 1283.29 46.476 1283.29 46.8431C1283.29 47.2101 1283.37 47.5732 1283.51 47.9108C1283.65 48.2483 1283.86 48.5533 1284.13 48.8072C1284.39 49.0611 1284.71 49.2587 1285.05 49.3882C1285.39 49.5176 1285.76 49.5762 1286.13 49.5605H1297.17C1297.89 49.5514 1298.58 49.2618 1299.08 48.7535C1299.59 48.2453 1299.88 47.5587 1299.89 46.8405C1299.89 46.4838 1299.82 46.1304 1299.68 45.8007C1299.55 45.471 1299.35 45.1716 1299.09 44.9193C1298.84 44.6671 1298.54 44.4671 1298.21 44.3309C1297.88 44.1946 1297.53 44.1249 1297.17 44.1255Z" fill="#F9B233"/>
<path d="M1286.2 14.239C1285.94 13.9856 1285.65 13.7846 1285.32 13.6474C1284.99 13.5101 1284.63 13.4395 1284.28 13.4395C1283.92 13.4395 1283.57 13.5101 1283.24 13.6474C1282.91 13.7846 1282.61 13.9856 1282.36 14.239L1274.68 21.914C1274.42 22.1662 1274.22 22.4655 1274.09 22.7949C1273.95 23.1244 1273.88 23.4775 1273.88 23.834C1273.88 24.1906 1273.95 24.5437 1274.09 24.8731C1274.22 25.2025 1274.42 25.5019 1274.68 25.7541C1274.93 26.0062 1275.23 26.2061 1275.56 26.3426C1275.89 26.479 1276.24 26.5493 1276.6 26.5493C1276.95 26.5493 1277.31 26.479 1277.64 26.3426C1277.96 26.2061 1278.26 26.0062 1278.52 25.7541L1286.2 18.074C1286.45 17.8223 1286.65 17.5234 1286.78 17.1944C1286.92 16.8654 1286.99 16.5127 1286.99 16.1565C1286.99 15.8003 1286.92 15.4476 1286.78 15.1186C1286.65 14.7896 1286.45 14.4907 1286.2 14.239Z" fill="#F9B233"/>
<path d="M1253.59 0.535161C1253.23 0.534502 1252.88 0.60426 1252.55 0.740468C1252.22 0.876676 1251.92 1.07668 1251.67 1.32892C1251.42 1.58117 1251.22 1.88073 1251.08 2.21042C1250.95 2.54012 1250.88 2.89343 1250.88 3.25016V14.2952C1250.88 15.0133 1251.17 15.6999 1251.68 16.2081C1252.19 16.7164 1252.87 17.0061 1253.59 17.0152C1253.95 17.0158 1254.3 16.9459 1254.63 16.8093C1254.96 16.6728 1255.26 16.4724 1255.51 16.2197C1255.77 15.9669 1255.97 15.6668 1256.1 15.3365C1256.24 15.0062 1256.31 14.6523 1256.31 14.2952V3.25016C1256.3 2.53251 1256.01 1.84647 1255.5 1.33899C1254.99 0.831514 1254.31 0.542962 1253.59 0.535161Z" fill="#F9B233"/>
<path d="M1268.77 27.7057C1265.84 25.3854 1262.41 23.7686 1258.76 22.9798C1255.1 22.191 1251.32 22.2512 1247.69 23.1557C1243.4 24.1663 1239.47 26.338 1236.33 29.4328C1233.2 32.5275 1230.97 36.4259 1229.91 40.7007C1228.84 44.8683 1228.89 49.2413 1230.04 53.3856C1231.19 57.5299 1233.4 61.3013 1236.46 64.3256C1238.8 66.8422 1240.07 70.1639 1240.01 73.5957V74.1856C1240 74.5445 1240.07 74.9009 1240.2 75.2337C1240.34 75.5665 1240.54 75.8688 1240.79 76.1226C1241.04 76.3764 1241.35 76.5765 1241.68 76.711C1242.01 76.8456 1242.37 76.9118 1242.73 76.9057H1264.46C1264.82 76.9118 1265.18 76.8456 1265.51 76.711C1265.84 76.5764 1266.14 76.3762 1266.4 76.1223C1266.65 75.8684 1266.85 75.5661 1266.98 75.2334C1267.12 74.9007 1267.18 74.5443 1267.18 74.1856V73.5957C1267.14 70.0815 1268.47 66.6914 1270.9 64.1457C1275.45 59.5598 1277.99 53.3599 1277.99 46.9006C1278.03 43.2083 1277.22 39.5559 1275.62 36.2271C1274.02 32.8982 1271.68 29.9823 1268.77 27.7057ZM1253.59 38.7057C1251.82 38.6628 1250.08 39.215 1248.66 40.2744C1247.23 41.3337 1246.21 42.8391 1245.74 44.5506C1245.56 45.2533 1245.11 45.8579 1244.49 46.2325C1243.87 46.6072 1243.13 46.7215 1242.43 46.5507C1242.08 46.4696 1241.75 46.3183 1241.46 46.106C1241.17 45.8936 1240.93 45.6248 1240.74 45.3156C1240.56 45.0065 1240.45 44.6636 1240.4 44.3077C1240.36 43.9519 1240.38 43.5905 1240.48 43.2457C1241.24 40.3551 1242.94 37.8005 1245.32 35.9884C1247.69 34.1763 1250.6 33.2109 1253.59 33.2457C1254.31 33.2548 1255 33.5444 1255.5 34.0527C1256.01 34.561 1256.3 35.2476 1256.31 35.9657C1256.31 36.3232 1256.24 36.6777 1256.1 37.0085C1255.97 37.3394 1255.77 37.6401 1255.52 37.8934C1255.26 38.1467 1254.96 38.3476 1254.63 38.4844C1254.3 38.6213 1253.95 38.6913 1253.59 38.6907V38.7057Z" fill="#F9B233"/>
<path d="M1242.73 82.3418V85.0569C1242.73 87.2172 1243.59 89.2878 1245.12 90.8154C1246.65 92.3429 1248.72 93.2028 1250.88 93.2068H1256.31C1258.47 93.2029 1260.54 92.3431 1262.07 90.8157C1263.6 89.2883 1264.46 87.2176 1264.46 85.0569V82.3418H1242.73Z" fill="#F9B233"/>
<path d="M499.082 405.065V428.245H492.612V377.33H526.747V383.09H499.082V399.305H523.402V405.065H499.082Z" fill="#232323"/>
<path d="M548.223 390.916C550.631 390.775 553.037 391.226 555.231 392.229C557.424 393.233 559.339 394.757 560.808 396.671C563.555 400.618 564.907 405.369 564.648 410.171C564.832 412.798 564.487 415.435 563.632 417.926C562.777 420.416 561.431 422.71 559.673 424.671C556.255 427.677 551.796 429.226 547.25 428.987C542.704 428.748 538.432 426.739 535.348 423.391C532.61 419.543 531.257 414.881 531.508 410.166C531.329 407.478 531.683 404.78 532.55 402.23C533.417 399.679 534.779 397.324 536.558 395.301C538.097 393.808 539.927 392.649 541.934 391.894C543.941 391.14 546.082 390.807 548.223 390.916ZM548.223 396.246C546.713 396.186 545.212 396.494 543.848 397.145C542.485 397.796 541.3 398.769 540.398 399.981C538.351 402.976 537.351 406.564 537.553 410.186C537.297 413.901 538.438 417.578 540.753 420.496C541.677 421.532 542.82 422.35 544.099 422.892C545.378 423.433 546.761 423.684 548.148 423.626C549.615 423.694 551.076 423.407 552.407 422.788C553.739 422.169 554.9 421.236 555.793 420.071C557.776 417.17 558.74 413.693 558.533 410.186C558.79 406.37 557.681 402.588 555.403 399.516C554.541 398.452 553.444 397.603 552.198 397.036C550.952 396.468 549.591 396.198 548.223 396.246Z" fill="#232323"/>
<path d="M572.684 391.697H578.089V398.382C578.748 396.212 580.083 394.31 581.901 392.953C583.718 391.597 585.921 390.857 588.189 390.842C588.88 390.856 589.569 390.928 590.249 391.057V397.027C587.54 396.821 584.828 397.388 582.429 398.662C580.98 399.99 579.87 401.645 579.19 403.488C578.51 405.332 578.28 407.311 578.519 409.262V428.262H572.684V391.697Z" fill="#232323"/>
<path d="M635.053 401.72H628.648C628.465 398.054 626.025 396.22 621.328 396.22C619.326 396.115 617.336 396.596 615.603 397.605C614.956 397.988 614.42 398.535 614.052 399.191C613.683 399.846 613.494 400.588 613.503 401.34C613.503 403.71 615.755 405.417 620.258 406.46L625.878 407.74C628.781 408.239 631.503 409.488 633.773 411.365C634.598 412.207 635.238 413.211 635.654 414.314C636.07 415.417 636.252 416.593 636.188 417.77C636.241 419.366 635.899 420.951 635.193 422.383C634.486 423.815 633.437 425.051 632.138 425.98C628.911 428.149 625.066 429.211 621.183 429.005C617.056 429.298 612.969 428.029 609.733 425.45C608.644 424.471 607.77 423.276 607.168 421.941C606.565 420.606 606.247 419.16 606.233 417.695H612.848C613.072 419.011 613.609 420.255 614.413 421.32C615.378 422.192 616.519 422.846 617.759 423.24C618.998 423.633 620.307 423.756 621.598 423.6C623.768 423.709 625.924 423.203 627.818 422.14C628.517 421.762 629.1 421.202 629.506 420.52C629.913 419.838 630.128 419.059 630.128 418.265C630.128 415.852 628.257 414.194 624.513 413.29L619.013 412.005C615.901 411.451 612.941 410.245 610.328 408.465C609.367 407.633 608.61 406.59 608.117 405.417C607.623 404.245 607.407 402.975 607.483 401.705C607.432 400.18 607.751 398.664 608.414 397.289C609.076 395.914 610.063 394.72 611.288 393.81C614.273 391.735 617.863 390.711 621.493 390.9C625.252 390.665 628.961 391.858 631.878 394.24C632.92 395.181 633.744 396.338 634.292 397.63C634.84 398.921 635.1 400.318 635.053 401.72Z" fill="#232323"/>
<path d="M658.328 390.916C660.737 390.776 663.143 391.227 665.338 392.23C667.532 393.233 669.448 394.757 670.918 396.671C673.666 400.617 675.017 405.369 674.758 410.171C674.939 412.799 674.59 415.437 673.731 417.928C672.872 420.419 671.521 422.712 669.758 424.671C666.341 427.677 661.883 429.226 657.337 428.987C652.792 428.747 648.521 426.739 645.438 423.391C642.701 419.543 641.347 414.881 641.598 410.166C641.419 407.477 641.772 404.78 642.639 402.229C643.505 399.678 644.868 397.323 646.648 395.301C648.189 393.806 650.021 392.645 652.031 391.89C654.041 391.136 656.184 390.804 658.328 390.916ZM658.328 396.246C656.819 396.186 655.317 396.495 653.954 397.145C652.59 397.796 651.406 398.769 650.503 399.981C648.458 402.976 647.46 406.564 647.663 410.186C647.405 413.901 648.546 417.579 650.863 420.496C651.787 421.533 652.93 422.351 654.209 422.892C655.488 423.434 656.871 423.684 658.258 423.626C659.725 423.694 661.186 423.406 662.517 422.787C663.849 422.168 665.01 421.236 665.903 420.071C667.886 417.17 668.85 413.693 668.643 410.186C668.901 406.37 667.791 402.587 665.513 399.516C664.65 398.452 663.552 397.604 662.305 397.036C661.058 396.469 659.697 396.198 658.328 396.246Z" fill="#232323"/>
<path d="M695.921 391.698V396.388H689.876V428.248H684.116V396.388H679.211V391.698H684.116V385.438C684.051 384.32 684.216 383.2 684.602 382.148C684.987 381.096 685.584 380.135 686.356 379.323C687.205 378.554 688.2 377.963 689.281 377.584C690.362 377.206 691.508 377.047 692.651 377.118C693.75 377.125 694.846 377.244 695.921 377.473V382.308H695.281C694.781 382.263 694.311 382.238 693.931 382.238C691.228 382.238 689.876 383.471 689.876 385.938V391.698H695.921Z" fill="#232323"/>
<path d="M716.548 391.694V396.384H709.078V420.709C709.07 421.112 709.145 421.513 709.298 421.886C709.451 422.259 709.679 422.597 709.968 422.879C710.273 423.176 710.635 423.407 711.032 423.56C711.429 423.712 711.853 423.781 712.278 423.764C713.672 423.694 715.054 423.479 716.403 423.124L717.043 428.244C714.84 428.686 712.604 428.949 710.358 429.029C705.665 429.029 703.318 427.109 703.318 423.269V396.384H698.318V391.694H703.318V384.224L709.078 381.594V391.694H716.548Z" fill="#232323"/>
<path d="M757.152 428.247H750.537L743.067 399.517L736.027 428.247H729.487L718.892 391.697H725.292L732.827 420.142L739.797 391.697H746.907L754.092 420.142L761.347 391.697H767.887L757.152 428.247Z" fill="#232323"/>
<path d="M806.218 423.34V428.035C805.015 428.513 803.745 428.8 802.453 428.885C801.697 429.002 800.925 428.956 800.188 428.751C799.452 428.545 798.768 428.184 798.181 427.693C797.595 427.202 797.121 426.591 796.79 425.901C796.459 425.212 796.28 424.459 796.263 423.695C794.786 425.535 792.88 426.984 790.711 427.914C788.543 428.845 786.179 429.228 783.828 429.03C782.157 429.132 780.483 428.894 778.906 428.332C777.33 427.77 775.883 426.895 774.653 425.76C773.706 424.797 772.966 423.65 772.477 422.39C771.989 421.131 771.763 419.785 771.813 418.435C771.733 416.924 772.021 415.416 772.652 414.041C773.284 412.665 774.24 411.464 775.438 410.54C778.099 409.01 781.014 407.974 784.043 407.48L795.988 404.78L796.063 401.72C796.063 398.053 793.313 396.22 787.813 396.22C782.55 396.22 779.728 398.353 779.348 402.62H773.448C773.397 399.953 774.248 397.347 775.863 395.225C777.465 393.657 779.39 392.457 781.503 391.708C783.616 390.96 785.866 390.68 788.098 390.89C797.245 390.89 801.818 394.208 801.818 400.845V421.255C801.818 423.055 802.601 423.955 804.168 423.955C804.682 423.87 805.186 423.728 805.668 423.53C805.855 423.478 806.039 423.415 806.218 423.34ZM796.053 409.545L786.663 411.96C784.224 412.448 781.882 413.337 779.733 414.59C779.127 415.009 778.636 415.574 778.307 416.233C777.977 416.892 777.819 417.624 777.848 418.36C777.848 422.107 780.265 423.98 785.098 423.98C788.318 424.054 791.438 422.853 793.778 420.64C794.475 420.069 795.04 419.354 795.432 418.543C795.825 417.732 796.037 416.846 796.053 415.945V409.545Z" fill="#232323"/>
<path d="M812.547 391.697H817.952V398.382C818.611 396.212 819.947 394.31 821.764 392.953C823.581 391.597 825.784 390.857 828.052 390.842C828.743 390.856 829.432 390.928 830.112 391.057V397.027C827.403 396.82 824.691 397.387 822.292 398.662C820.843 399.989 819.731 401.644 819.05 403.488C818.37 405.331 818.139 407.311 818.377 409.262V428.262H812.547V391.697Z" fill="#232323"/>
<path d="M866.738 411.675H839.783C839.693 414.308 840.389 416.909 841.783 419.145C842.736 420.595 844.049 421.773 845.595 422.562C847.141 423.351 848.865 423.724 850.598 423.645C852.726 423.768 854.833 423.168 856.576 421.941C858.319 420.715 859.595 418.934 860.198 416.89H866.028C865.451 420.427 863.576 423.622 860.768 425.85C857.769 428.062 854.107 429.19 850.383 429.05C847.961 429.191 845.54 428.747 843.324 427.757C841.109 426.767 839.164 425.259 837.653 423.36C834.893 419.547 833.514 414.907 833.743 410.205C833.581 407.535 833.95 404.859 834.829 402.332C835.708 399.806 837.079 397.478 838.863 395.485C840.378 393.969 842.19 392.782 844.185 391.999C846.181 391.216 848.316 390.854 850.458 390.935C853.68 390.872 856.852 391.74 859.593 393.435C862.173 395.034 864.159 397.432 865.248 400.265C866.418 403.89 866.926 407.695 866.748 411.5L866.738 411.675ZM860.478 406.91C860.539 405.503 860.323 404.097 859.841 402.773C859.359 401.449 858.62 400.233 857.668 399.195C856.742 398.222 855.62 397.457 854.376 396.948C853.133 396.44 851.796 396.2 850.453 396.245C849.105 396.193 847.76 396.422 846.505 396.918C845.25 397.414 844.112 398.165 843.163 399.125C841.201 401.252 840.076 404.018 839.998 406.91H860.478Z" fill="#232323"/>
<path d="M917.512 377.33V428.245H911.677V423.2C910.605 425.093 909.025 426.649 907.116 427.691C905.206 428.734 903.044 429.222 900.872 429.1C898.488 429.222 896.112 428.753 893.953 427.736C891.795 426.719 889.92 425.185 888.497 423.27C885.819 419.293 884.497 414.559 884.727 409.77C884.42 404.524 886.181 399.368 889.632 395.405C891.022 393.926 892.713 392.762 894.59 391.99C896.468 391.219 898.488 390.857 900.517 390.93C902.698 390.808 904.873 391.256 906.829 392.228C908.786 393.2 910.456 394.663 911.677 396.475V377.345L917.512 377.33ZM901.512 396.33C900.004 396.292 898.509 396.618 897.154 397.28C895.799 397.943 894.623 398.922 893.727 400.135C891.64 403.063 890.601 406.609 890.777 410.2C890.563 413.903 891.786 417.546 894.192 420.37C895.106 421.427 896.244 422.269 897.523 422.834C898.801 423.399 900.189 423.675 901.587 423.64C903.017 423.683 904.436 423.375 905.719 422.742C907.002 422.109 908.11 421.171 908.947 420.01C910.8 416.927 911.747 413.383 911.678 409.786C911.609 406.19 910.527 402.685 908.557 399.675C907.722 398.608 906.65 397.749 905.427 397.166C904.204 396.583 902.862 396.292 901.507 396.315L901.512 396.33Z" fill="#232323"/>
<path d="M957.478 411.675H930.523C930.433 414.309 931.13 416.909 932.523 419.145C933.479 420.594 934.793 421.771 936.339 422.559C937.885 423.348 939.609 423.722 941.343 423.645C943.471 423.768 945.578 423.168 947.321 421.941C949.064 420.715 950.341 418.934 950.943 416.89H956.773C956.197 420.428 954.321 423.622 951.513 425.85C948.513 428.061 944.852 429.19 941.128 429.05C938.706 429.191 936.285 428.748 934.069 427.758C931.854 426.768 929.909 425.259 928.398 423.36C925.636 419.548 924.256 414.907 924.488 410.205C924.326 407.535 924.696 404.859 925.574 402.333C926.453 399.806 927.824 397.478 929.608 395.485C931.123 393.969 932.935 392.782 934.93 391.999C936.926 391.216 939.061 390.853 941.203 390.935C944.425 390.873 947.597 391.741 950.338 393.435C952.918 395.034 954.904 397.432 955.993 400.265C957.163 403.89 957.671 407.696 957.493 411.5L957.478 411.675ZM951.218 406.91C951.28 405.503 951.063 404.097 950.581 402.773C950.099 401.449 949.36 400.234 948.408 399.195C947.482 398.222 946.36 397.457 945.116 396.948C943.873 396.44 942.536 396.2 941.193 396.245C939.845 396.193 938.5 396.422 937.245 396.918C935.99 397.414 934.852 398.166 933.903 399.125C931.941 401.252 930.816 404.018 930.738 406.91H951.218Z" fill="#232323"/>
<path d="M980.447 428.247H974.112L961.242 391.697H967.857L977.527 421.282L987.912 391.697H994.452L980.447 428.247Z" fill="#232323"/>
<path d="M1031.22 411.676H1004.27C1004.18 414.309 1004.87 416.909 1006.27 419.145C1007.22 420.596 1008.53 421.774 1010.08 422.563C1011.62 423.352 1013.35 423.725 1015.08 423.646C1017.21 423.769 1019.32 423.168 1021.06 421.942C1022.8 420.715 1024.08 418.935 1024.68 416.891H1030.51C1029.93 420.427 1028.06 423.621 1025.25 425.85C1022.25 428.062 1018.59 429.19 1014.87 429.051C1012.44 429.192 1010.02 428.749 1007.81 427.758C1005.59 426.768 1003.65 425.26 1002.14 423.361C999.375 419.547 997.996 414.907 998.226 410.205C998.057 407.533 998.421 404.854 999.296 402.324C1000.17 399.793 1001.54 397.462 1003.33 395.466C1004.84 393.949 1006.65 392.762 1008.65 391.979C1010.64 391.196 1012.77 390.834 1014.92 390.915C1018.14 390.852 1021.31 391.72 1024.06 393.415C1026.64 395.013 1028.62 397.412 1029.71 400.245C1030.88 403.87 1031.39 407.676 1031.21 411.481L1031.22 411.676ZM1024.96 406.911C1025.08 404.068 1024.07 401.294 1022.15 399.196C1021.22 398.222 1020.1 397.456 1018.86 396.948C1017.61 396.44 1016.27 396.2 1014.93 396.246C1013.58 396.194 1012.24 396.424 1010.98 396.92C1009.73 397.416 1008.59 398.167 1007.64 399.125C1005.68 401.254 1004.56 404.019 1004.48 406.911H1024.96Z" fill="#232323"/>
<path d="M1044.87 377.33V428.245H1039.04V377.33H1044.87Z" fill="#232323"/>
<path d="M1068.98 390.916C1071.39 390.776 1073.79 391.227 1075.99 392.23C1078.18 393.233 1080.1 394.757 1081.57 396.671C1084.31 400.617 1085.67 405.369 1085.41 410.171C1085.59 412.797 1085.24 415.434 1084.39 417.925C1083.54 420.416 1082.19 422.709 1080.43 424.671C1077.01 427.677 1072.55 429.226 1068.01 428.987C1063.46 428.748 1059.19 426.739 1056.11 423.391C1053.37 419.543 1052.02 414.881 1052.27 410.166C1052.09 407.477 1052.44 404.78 1053.31 402.229C1054.17 399.678 1055.54 397.323 1057.32 395.301C1058.86 393.808 1060.68 392.649 1062.69 391.895C1064.7 391.14 1066.84 390.807 1068.98 390.916ZM1068.98 396.246C1067.47 396.185 1065.97 396.494 1064.6 397.145C1063.24 397.796 1062.06 398.769 1061.16 399.981C1059.11 402.976 1058.11 406.563 1058.31 410.186C1058.06 413.901 1059.2 417.578 1061.51 420.496C1062.44 421.532 1063.58 422.35 1064.86 422.891C1066.14 423.433 1067.52 423.684 1068.91 423.626C1070.37 423.693 1071.84 423.405 1073.17 422.786C1074.5 422.167 1075.66 421.236 1076.56 420.071C1078.54 417.169 1079.5 413.692 1079.29 410.186C1079.55 406.37 1078.44 402.587 1076.16 399.516C1075.3 398.452 1074.2 397.603 1072.95 397.035C1071.71 396.468 1070.35 396.197 1068.98 396.246Z" fill="#232323"/>
<path d="M1092.38 443.464V391.694H1097.78V397.309C1098.97 395.291 1100.68 393.632 1102.73 392.506C1104.78 391.381 1107.1 390.83 1109.44 390.914C1111.78 390.81 1114.1 391.304 1116.19 392.349C1118.28 393.394 1120.07 394.955 1121.39 396.884C1124.02 400.935 1125.32 405.712 1125.09 410.539C1125.4 415.688 1123.66 420.75 1120.25 424.619C1118.78 426.059 1117.04 427.191 1115.13 427.947C1113.22 428.703 1111.17 429.069 1109.12 429.022C1107.06 428.976 1105.04 428.518 1103.17 427.676C1101.29 426.833 1099.6 425.624 1098.2 424.119V443.464H1092.38ZM1108.44 396.314C1106.99 396.281 1105.55 396.608 1104.26 397.266C1102.96 397.923 1101.85 398.892 1101.02 400.084C1099.01 403.055 1098.02 406.601 1098.2 410.184C1097.99 413.873 1099.12 417.515 1101.4 420.424C1102.27 421.442 1103.35 422.252 1104.57 422.794C1105.78 423.336 1107.11 423.596 1108.44 423.554C1109.93 423.604 1111.4 423.297 1112.75 422.659C1114.09 422.022 1115.26 421.072 1116.16 419.889C1118.2 417.078 1119.22 413.653 1119.04 410.184C1119.26 406.396 1118.1 402.658 1115.77 399.659C1114.88 398.589 1113.76 397.732 1112.49 397.153C1111.22 396.574 1109.84 396.288 1108.44 396.314Z" fill="#232323"/>
<path d="M1132.33 391.695H1137.74V396.965C1138.94 395.087 1140.61 393.546 1142.57 392.49C1144.54 391.433 1146.74 390.894 1148.97 390.925C1150.95 390.8 1152.93 391.242 1154.66 392.198C1156.4 393.154 1157.83 394.586 1158.79 396.325C1160.17 394.584 1161.9 393.145 1163.87 392.095C1165.78 391.259 1167.86 390.859 1169.95 390.925C1177.06 390.925 1180.62 394.258 1180.62 400.925V428.23H1174.79V403.215C1174.79 398.382 1172.51 395.963 1167.96 395.96C1166.81 395.95 1165.67 396.193 1164.62 396.673C1163.58 397.152 1162.65 397.856 1161.91 398.735C1160.26 400.54 1159.37 402.907 1159.41 405.35V428.245H1153.58V403.215C1153.58 398.382 1151.33 395.963 1146.83 395.96C1145.66 395.945 1144.51 396.183 1143.45 396.656C1142.39 397.129 1141.44 397.826 1140.68 398.7C1139.01 400.507 1138.11 402.893 1138.18 405.35V428.245H1132.33V391.695Z" fill="#232323"/>
<path d="M1221.37 411.675H1194.42C1194.33 414.308 1195.03 416.908 1196.42 419.145C1197.37 420.593 1198.69 421.769 1200.23 422.558C1201.78 423.347 1203.5 423.721 1205.23 423.645C1207.36 423.769 1209.47 423.168 1211.21 421.942C1212.96 420.715 1214.23 418.935 1214.84 416.89H1220.67C1220.09 420.427 1218.21 423.621 1215.41 425.85C1212.41 428.059 1208.75 429.187 1205.02 429.05C1202.6 429.191 1200.18 428.748 1197.96 427.758C1195.75 426.768 1193.8 425.259 1192.29 423.36C1189.53 419.549 1188.15 414.908 1188.38 410.205C1188.22 407.535 1188.58 404.859 1189.46 402.332C1190.34 399.806 1191.71 397.478 1193.5 395.485C1195.01 393.969 1196.83 392.782 1198.82 391.999C1200.82 391.216 1202.95 390.854 1205.1 390.935C1208.32 390.873 1211.49 391.741 1214.23 393.435C1216.81 395.032 1218.8 397.432 1219.88 400.265C1221.05 403.889 1221.56 407.695 1221.38 411.5L1221.37 411.675ZM1215.11 406.91C1215.17 405.503 1214.96 404.097 1214.48 402.773C1214 401.45 1213.26 400.234 1212.31 399.195C1211.38 398.222 1210.26 397.457 1209.02 396.948C1207.77 396.44 1206.43 396.2 1205.09 396.245C1203.74 396.193 1202.4 396.422 1201.14 396.918C1199.89 397.414 1198.75 398.166 1197.8 399.125C1195.84 401.251 1194.71 404.017 1194.63 406.91H1215.11Z" fill="#232323"/>
<path d="M1229.33 391.695H1234.73V397.88C1235.93 395.739 1237.69 393.962 1239.82 392.736C1241.95 391.51 1244.37 390.881 1246.82 390.915C1249.87 390.748 1252.88 391.696 1255.28 393.58C1256.31 394.455 1257.13 395.553 1257.67 396.791C1258.22 398.029 1258.47 399.374 1258.42 400.725V428.225H1252.65V403.055C1252.7 402.097 1252.55 401.14 1252.21 400.244C1251.86 399.349 1251.33 398.537 1250.65 397.86C1249.14 396.523 1247.17 395.834 1245.15 395.94C1243.76 395.889 1242.38 396.165 1241.12 396.746C1239.86 397.327 1238.76 398.197 1237.9 399.285C1235.99 401.843 1235.03 404.987 1235.19 408.175V428.225H1229.33V391.695Z" fill="#232323"/>
<path d="M1282.46 391.694V396.384H1274.99V420.709C1274.99 421.112 1275.06 421.513 1275.21 421.886C1275.37 422.259 1275.59 422.597 1275.88 422.879C1276.19 423.176 1276.55 423.407 1276.95 423.56C1277.34 423.712 1277.77 423.781 1278.19 423.764C1279.59 423.693 1280.97 423.479 1282.32 423.124L1282.96 428.244C1280.76 428.686 1278.52 428.949 1276.27 429.029C1271.58 429.029 1269.23 427.109 1269.23 423.269V396.384H1264.23V391.694H1269.23V384.224L1274.99 381.594V391.694H1282.46Z" fill="#232323"/>
<defs>
<linearGradient id="paint0_linear_233_324" x1="66.9079" y1="389.54" x2="361.033" y2="110.974" gradientUnits="userSpaceOnUse">
<stop stop-color="#009F6F"/>
<stop offset="1" stop-color="#69B42D"/>
</linearGradient>
<linearGradient id="paint1_linear_233_324" x1="66.9079" y1="389.54" x2="361.033" y2="110.974" gradientUnits="userSpaceOnUse">
<stop stop-color="#009F6F"/>
<stop offset="1" stop-color="#69B42D"/>
</linearGradient>
</defs>
</svg>
