<svg id="Layer_1" data-name="Layer 1" xmlns="http://www.w3.org/2000/svg" viewBox="0 0 656.972 245.027"><path d="M666.639,505.655c-.466.2-.84.4-1.234.528a3.189,3.189,0,0,0-1.188.7,3.229,3.229,0,0,1-.708.427c-.246.13-.518.214-.752.361-1.395.874-1.288.707-1.928,2.092-.1.211-.2.422-.31.625a.949.949,0,0,1-.246.336,7.559,7.559,0,0,1-2.328,1.49c-.315.078-.624.186-1.011.3l-1.076-.246a1.273,1.273,0,0,0-.43.233,8.076,8.076,0,0,1-2.581,1.864,3.109,3.109,0,0,0-1.525,1.728c-.117.3-.255.6-.386.9-.55.285-1.1.542-1.615.846-.481.282-.927.623-1.4.922a2.062,2.062,0,0,1-1.193.339,4.949,4.949,0,0,0-1.914.316,2.452,2.452,0,0,1-.824.119,5.691,5.691,0,0,0-1.638.3c-.8.238-1.623.413-2.436.61a5.876,5.876,0,0,0-1.573.563,4.585,4.585,0,0,1-1.307.47,3.658,3.658,0,0,0-1.754.811,2.871,2.871,0,0,1-.977.525,2.887,2.887,0,0,0-1.481,1.217,5,5,0,0,1-.387.58,2.211,2.211,0,0,1-1.52.9,3.414,3.414,0,0,0-1.667.647,13.42,13.42,0,0,1-1.218.671,2.954,2.954,0,0,0-.613.325,10.36,10.36,0,0,1-2.213,1.161c-.069.038-.225-.085-.325-.127-.034-.339.218-.421.39-.559a.9.9,0,0,0,.352-.862c-.046-.366-.114-.728-.17-1.073.487-.8,1.262-1.3,1.765-2.011.349-.724.209-1.588.731-2.32,1.009-.456,1.827-1.332,2.911-1.785a1.278,1.278,0,0,0,.347-.232,11.194,11.194,0,0,1,2.862-1.717,3,3,0,0,0,.923-.614,3.914,3.914,0,0,1,1.144-.786c.376-.181.733-.4,1.1-.605a15.53,15.53,0,0,1,2.511-1.213,5.376,5.376,0,0,0,1.365-.695,14.543,14.543,0,0,1,3.094-1.6,5.585,5.585,0,0,0,2.3-1.387,3.092,3.092,0,0,1,.484-.132,4.852,4.852,0,0,0,3.048-1.223.577.577,0,0,1,.115-.08c1.052-.595,2.023-1.314,3.032-1.976.971-.637,2-1.188,3.017-1.754a5.43,5.43,0,0,0,1.337-.994,8.375,8.375,0,0,1,2.22-1.671,10.652,10.652,0,0,0,1.614-1.094,31.873,31.873,0,0,1,2.727-1.939c1.1-.691,2.119-1.506,3.176-2.263.978-.7,1.833-1.572,2.771-2.334a20.146,20.146,0,0,1,1.711-1.205,19.171,19.171,0,0,0,3.751-3.1,2.3,2.3,0,0,1,.782-.572,8.323,8.323,0,0,0,3.373-2.846,18.529,18.529,0,0,1,2.127-2.213c.529-.522,1.038-1.074,1.614-1.54.539-.437,1.155-.778,1.735-1.165a5.754,5.754,0,0,0,1.384-1.163,2.836,2.836,0,0,1,.514-.469c.921-.709,1.85-1.406,2.771-2.115a7.25,7.25,0,0,0,.85-.72,5,5,0,0,1,2.347-1.5,6.176,6.176,0,0,1,1.686-1.618,2.6,2.6,0,0,0,.857-.906,3.473,3.473,0,0,1,1.182-1.164c.158-.1.3-.221.463-.312a8.253,8.253,0,0,0,2.128-1.778,7.664,7.664,0,0,0,.856-1.095,2.271,2.271,0,0,1,.488-.674,10.067,10.067,0,0,0,1.584-1.736,7.063,7.063,0,0,1,2.2-1.914,2.445,2.445,0,0,0,.751-.615c.272-.317.566-.615.9-.973.113-.336.239-.734.383-1.126a2.307,2.307,0,0,1,.913-1.2,5.684,5.684,0,0,0,1.815-1.9c.144-.238.338-.444.5-.674a5.931,5.931,0,0,1,1.666-1.671,2.564,2.564,0,0,0,1.163-1.512,2.346,2.346,0,0,1,.969-1.322,8.812,8.812,0,0,0,.849-.723,8.552,8.552,0,0,1,1.681-1.241,6.743,6.743,0,0,0,.707-.448,1.108,1.108,0,0,0,.518-.8,5.811,5.811,0,0,1,.527-1.725c.1-.26.19-.525.266-.793a.944.944,0,0,0-.372-.983,2.028,2.028,0,0,0-1.154-.448,15.919,15.919,0,0,1-2.076-.251,4.055,4.055,0,0,0-1.933.16,5.079,5.079,0,0,1-1.653.188c-1.862-.032-3.724-.043-5.586-.058a8.33,8.33,0,0,0-2.08.181,5.035,5.035,0,0,1-1.247.092,13.718,13.718,0,0,0-3.471.278,3.1,3.1,0,0,1-1.656-.063,3.615,3.615,0,0,0-1.655-.088c-.594.093-1.2.128-1.8.162-1.532.087-3.044.362-4.573.471a2.4,2.4,0,0,1-.692-.051,3.61,3.61,0,0,0-2.325.15,2.646,2.646,0,0,1-1.239.147,14.419,14.419,0,0,0-2.51.06,2.763,2.763,0,0,1-.832-.024,13.73,13.73,0,0,0-4.856.047,12.157,12.157,0,0,1-2.768.281,1.318,1.318,0,0,0-.416.034,3.727,3.727,0,0,1-2.065,0,1.828,1.828,0,0,0-1.227.14,12.746,12.746,0,0,1-2.9.811,5,5,0,0,0-2.249-.276,8.52,8.52,0,0,1-1.116-.038,6.233,6.233,0,0,0-2.212.206,2.668,2.668,0,0,1-1.241.014,9.194,9.194,0,0,0-4.012.125,4.585,4.585,0,0,1-1.245.129c-1.256.021-2.513.042-3.764.167-.325.032-.654.035-.972.1-1.234.239-2.479.382-3.728.508-.923.093-1.842.233-2.844.362L642.5,450.9a6.348,6.348,0,0,0-2.381.393,19.47,19.47,0,0,0-4.706-.2c-.322,0-.643.094-.966.128-.6.062-1.2.153-1.8.159-1.3.013-2.606-.042-3.908-.026a13.937,13.937,0,0,0-3.053.276,6.365,6.365,0,0,1-2.079.167,6.285,6.285,0,0,0-1.113.032,14.427,14.427,0,0,1-3.2.158,3,3,0,0,0-.69.075,3.525,3.525,0,0,1-.832.068,32.944,32.944,0,0,0-3.9.1,8.99,8.99,0,0,0-1.654.239,6.889,6.889,0,0,1-1.661.158,5.1,5.1,0,0,0-1.91.354,1.749,1.749,0,0,0-.467.293.736.736,0,0,0-.186.207,18.694,18.694,0,0,0-1.6,2.611,21.985,21.985,0,0,1-2.134,3.754c-.741,1.127-1.559,2.213-2.2,3.393a49.683,49.683,0,0,1-3.936,5.579c-.5.673-.953,1.376-1.425,2.068a6.828,6.828,0,0,1-.462.7c-.8.907-1.618,1.8-2.431,2.695a2.583,2.583,0,0,1-.3.293,16.522,16.522,0,0,0-2.363,2.367,1.532,1.532,0,0,1-.295.3c-.857.572-1.529,1.357-2.319,2-.756.619-1.537,1.209-2.315,1.8-.519.394-1.061.756-1.578,1.15a16.245,16.245,0,0,1-3.412,1.878,7.947,7.947,0,0,0-1.6.857,13.712,13.712,0,0,1-3.083,1.618c-1.337.547-2.649,1.139-3.93,1.809a12.072,12.072,0,0,1-2.587,1.034c-.532.137-1.01.471-1.533.658s-1.088.262-1.606.46a13.177,13.177,0,0,0-1.358.7,16.187,16.187,0,0,0-4.7,1.694,1.674,1.674,0,0,1-.271.057,8.145,8.145,0,0,0-3.116.668,4.528,4.528,0,0,1-.938.27,10.2,10.2,0,0,0-1.864.582,2.532,2.532,0,0,1-.393.143,52.359,52.359,0,0,1-6.508,1.552,5.814,5.814,0,0,0-1.738.48,8.878,8.878,0,0,1-3.369.811c-.418.013-.834.08-1.251.113a5.714,5.714,0,0,0-1.758.417,6.441,6.441,0,0,1-2.3.547,5.108,5.108,0,0,0-.967.136,15.663,15.663,0,0,1-2.77.332,4.534,4.534,0,0,0-1.63.335,5.013,5.013,0,0,1-.945.228c-.408.086-.817.171-1.229.243a4.647,4.647,0,0,1-.826.106,11.664,11.664,0,0,0-2.483.34,4.773,4.773,0,0,1-.959.162,20.145,20.145,0,0,0-4.967.678c-1,.253-2.036.214-3.038.429-.181.039-.378.014-.553.065a20.708,20.708,0,0,1-4.143.487,6.266,6.266,0,0,1-1.938,0,1.87,1.87,0,0,0-.823.067,21.346,21.346,0,0,1-4.132.595c-.277.015-.553.064-.83.1-.415.051-.829.121-1.246.15a4.259,4.259,0,0,0-1.893.4,1.7,1.7,0,0,1-.541.128q-.755.13-1.513.247a3.247,3.247,0,0,1-.555.052,9.386,9.386,0,0,0-2.625.309,6.776,6.776,0,0,1-1.247.121c-.6.043-1.207.079-1.811.113a11.727,11.727,0,0,0-2.472.412,5.72,5.72,0,0,1-2.353.166,3.926,3.926,0,0,0-1.109.016c-.829.12-1.649.3-2.477.423a32.671,32.671,0,0,1-3.869.473,25.907,25.907,0,0,0-4.992.532,4.73,4.73,0,0,1-1.387.054,8.079,8.079,0,0,0-1.947.043c-.366.061-.743.048-1.114.075a4.982,4.982,0,0,0-.831.087,16.472,16.472,0,0,1-3.321.352c-.791.035-1.579.009-2.368.008-1.3,0-2.6.072-3.9.16a8.465,8.465,0,0,1-1.669.039,2.235,2.235,0,0,0-1.228.168,1.17,1.17,0,0,1-.531.159c-1.086-.1-2.1.391-3.18.356a7.138,7.138,0,0,0-.967.121,3.445,3.445,0,0,1-.694.031c-.971-.1-1.943-.2-2.91-.334a6.8,6.8,0,0,0-2.224.061,7.518,7.518,0,0,1-2.637.074,3.816,3.816,0,0,0-1.389.04,9.407,9.407,0,0,1-2.5.177,5.2,5.2,0,0,0-1.659.175c-.4.107-.829.127-1.234.229a3.306,3.306,0,0,1-2.179-.128,17.009,17.009,0,0,1-4.176.273,10.709,10.709,0,0,0-1.808.051,1.753,1.753,0,0,1-1.337-.252,5.16,5.16,0,0,0-.5-.257c-.7.049-1.317.478-2.04.407-.647-.064-1.3-.082-2.118-.131a9.167,9.167,0,0,1-3.275.37c-1.163,0-2.325-.074-3.487-.133a3.614,3.614,0,0,1-.819-.163,2.67,2.67,0,0,0-1.38-.034,17.51,17.51,0,0,1-5.277.3c-.324-.024-.651-.018-.976-.012-1.071.018-2.143.092-3.211.052a16.6,16.6,0,0,1-3.665-.379c-.262.039-.582.093-.9.133a5.718,5.718,0,0,1-.972.091,8.157,8.157,0,0,0-2.493.091,2.263,2.263,0,0,1-.961-.111,3.918,3.918,0,0,0-2.067-.017,1.83,1.83,0,0,1-1.232-.074c-.259-.1-.527-.177-.694-.232a1.293,1.293,0,0,0-.381,0,3.875,3.875,0,0,1-2.456.234,2.2,2.2,0,0,0-.556-.041,3.979,3.979,0,0,1-2.032-.391,2.218,2.218,0,0,0-1.089-.2c-.326.007-.652.018-.977.039a3.085,3.085,0,0,1-1.374-.172,6.7,6.7,0,0,0-2.744-.392c-.6.019-1.21-.012-1.815-.021a3.547,3.547,0,0,1-1.375-.2c-.543-.234-1.127.069-1.65-.153a4.164,4.164,0,0,0-1.488-.3c-.974-.041-1.946-.158-2.918-.244a1.309,1.309,0,0,0-.139-.014c-.6.017-1.209.051-1.813.051a15.036,15.036,0,0,0-1.649-.251,1.893,1.893,0,0,1-.956-.153,3.59,3.59,0,0,0-1.5-.249,5.277,5.277,0,0,1-.975-.041,7.761,7.761,0,0,0-2.769.009,4.751,4.751,0,0,1-2.21-.187,14.315,14.315,0,0,0-1.914-.373,13.13,13.13,0,0,0-3.026-.392,2.272,2.272,0,0,1-.54-.128c-.364-.072-.729-.14-1.095-.2-.412-.066-.826-.122-1.239-.184a1.831,1.831,0,0,0-.548-.075,2.748,2.748,0,0,1-1.677-.439c-1.364-.009-2.805-.019-4.246-.027a5.88,5.88,0,0,1-2.065-.274,2.7,2.7,0,0,0-1.243-.113,3.4,3.4,0,0,1-1.649-.166,2.643,2.643,0,0,0-1.238-.143,3.465,3.465,0,0,1-1.237-.143c-.9-.235-1.812-.422-2.72-.625a1.467,1.467,0,0,0-.413-.055,24.43,24.43,0,0,0-2.927.01,17.207,17.207,0,0,1-4.283-.473,1.64,1.64,0,0,0-.267-.082c-.46-.047-.929-.05-1.382-.136a6.326,6.326,0,0,0-1.231-.226,4.67,4.67,0,0,1-2.031-.438,1.928,1.928,0,0,0-1.493-.094,5.372,5.372,0,0,1-1.933.2c-.838-.021-1.676-.044-2.513-.039a5.066,5.066,0,0,1-1.651-.231c-.265-.088-.533-.17-.8-.234a9,9,0,0,0-3.181-.291c-.415.051-.838.035-1.254.079a4.283,4.283,0,0,1-1.388-.064,4.643,4.643,0,0,0-1.666-.045c-.185.025-.371.035-.556.055a3.837,3.837,0,0,1-1.787-.2,7.758,7.758,0,0,0-3.292-.476,3.885,3.885,0,0,1-1.518-.167,4.8,4.8,0,0,0-1.655-.2,8.639,8.639,0,0,1-1.943-.168,6.826,6.826,0,0,0-1.248-.1c-.465-.011-.931.016-1.4.023a6.08,6.08,0,0,1-2.461-.287,8.7,8.7,0,0,1-2.095.283,2.8,2.8,0,0,1-1.089-.2,4.887,4.887,0,0,0-3.144-.239c-.32.059-.628.174-.946.244a1.775,1.775,0,0,1-.686.091c-.874-.169-1.765.039-2.641-.159a2.367,2.367,0,0,0-.962.077,2.993,2.993,0,0,1-2.043-.163,2.033,2.033,0,0,0-1.232-.153,6.9,6.9,0,0,1-3.032-.3,5.54,5.54,0,0,0-2.9-.065,4.4,4.4,0,0,1-2.346-.067,2.941,2.941,0,0,0-1.241-.1c-.6.075-1.2.14-1.8.173a6.084,6.084,0,0,1-2.624-.184,3.067,3.067,0,0,0-1.242-.129c-.417.016-.834.041-1.279.064a4.3,4.3,0,0,1-.515-.456,2.11,2.11,0,0,0-1.877-.716c-.464.023-.928.041-1.391.07-1.543.1-3.061-.221-4.595-.273a2.19,2.19,0,0,1-.549-.1,7.974,7.974,0,0,0-2.486-.3,5.918,5.918,0,0,1-1.658-.186,3.884,3.884,0,0,0-1.1-.115,3.991,3.991,0,0,1-1.376-.173,2.294,2.294,0,0,0-.405-.1,34.971,34.971,0,0,1-5.019-1.19c-.09-.026-.179-.056-.27-.074a17.462,17.462,0,0,1-1.772-.353c-.532-.16-1.033-.417-1.586-.529a2.934,2.934,0,0,1-1.569-.861,5.9,5.9,0,0,0-1.6-1.105c-.453-.237-.891-.5-1.32-.782a1.272,1.272,0,0,1-.538-.788c-.24-.946-.49-1.89-.73-2.81a1.993,1.993,0,0,1,.351-1.071c.143-.239.319-.459.463-.7.763-1.265.669-1.069,1.793-1.66a8.724,8.724,0,0,0,1.274-.851,2.836,2.836,0,0,1,1.383-.622,5.869,5.869,0,0,0,1.61-.438,1.14,1.14,0,0,1,.4-.1,7.44,7.44,0,0,0,1.905-.4,3.247,3.247,0,0,1,.967-.087,7.418,7.418,0,0,0,2.482-.314,3.575,3.575,0,0,1,1.243-.13,5.221,5.221,0,0,0,1.784-.269,4.332,4.332,0,0,1,2.059-.253,3.064,3.064,0,0,0,1.375-.179,8.668,8.668,0,0,1,2.89-.377,16.808,16.808,0,0,0,2.364-.179,16.218,16.218,0,0,0,1.934-.273,23.675,23.675,0,0,1,3.468-.363,13.428,13.428,0,0,0,2.748-.457,2.391,2.391,0,0,1,.822-.121,4.94,4.94,0,0,0,2.136-.374c.14,0,.234-.008.326,0a11.114,11.114,0,0,0,3.332-.039,5.724,5.724,0,0,1,1.531-.009,3.233,3.233,0,0,0,1.37-.178c.306-.112.62-.2.933-.291a3.162,3.162,0,0,1,1.655-.067,6.479,6.479,0,0,0,2.635.053c.366-.061.74-.079,1.11-.114a3.668,3.668,0,0,0,.693-.066,9.124,9.124,0,0,1,2.769-.253,2.933,2.933,0,0,0,.953-.164A4.686,4.686,0,0,1,284,476.46a16.059,16.059,0,0,0,1.8-.192,7.177,7.177,0,0,1,1.947-.067,4.12,4.12,0,0,0,.973.027,10.623,10.623,0,0,1,1.81-.063,4.412,4.412,0,0,0,.966-.111,11.146,11.146,0,0,1,3.612-.125,8.824,8.824,0,0,0,.974.083,1.749,1.749,0,0,0,.692-.042,22.09,22.09,0,0,1,2.873-.538,6.132,6.132,0,0,1,1.244-.136,20.647,20.647,0,0,0,3.476-.268,2.4,2.4,0,0,1,.556-.039,6.743,6.743,0,0,0,2.478-.324,1.875,1.875,0,0,1,.967-.043,5.318,5.318,0,0,0,1.527-.025,28.666,28.666,0,0,1,3.055-.243,4.514,4.514,0,0,0,1.374-.22,2.961,2.961,0,0,1,1.236-.166,9.485,9.485,0,0,0,3.449-.375,1.982,1.982,0,0,1,.226-.015c.1.014.284.035.466.068a1.657,1.657,0,0,0,1.091-.12,3.24,3.24,0,0,1,1.625-.316,4.975,4.975,0,0,0,1.521-.172.945.945,0,0,1,.272-.061c1.305.019,2.589-.311,3.9-.246a5.757,5.757,0,0,0,1.94-.159,6.1,6.1,0,0,1,1.73,0,5.877,5.877,0,0,1,2.543-.364,1.492,1.492,0,0,0,.417-.023,15.422,15.422,0,0,1,2.917-.243c.647-.026,1.288-.2,1.935-.223.6-.021,1.2.1,1.809.107a8.284,8.284,0,0,0,2.178-.452c.223-.059.437-.154.631-.224a23.337,23.337,0,0,0,4.763.017c.367-.018.732-.214,1.093-.2a19.578,19.578,0,0,0,2.76-.354,14.6,14.6,0,0,1,1.951-.053,3.167,3.167,0,0,0,1.5-.192,3.357,3.357,0,0,1,1.371-.2A7.767,7.767,0,0,0,360,469.88a2.239,2.239,0,0,1,.691-.072c1.023,0,2.048-.01,3.071.018a5.6,5.6,0,0,0,1.523-.146,3.909,3.909,0,0,1,2.2-.054,1.931,1.931,0,0,0,1.1-.059,21.348,21.348,0,0,1,4-.56c1.02-.074,2.038-.166,3.056-.26a2.256,2.256,0,0,0,.543-.126,4.693,4.693,0,0,1,1.651-.239c1.821.026,3.615-.287,5.423-.425a7.774,7.774,0,0,0,1.235-.218,3.406,3.406,0,0,1,1.384-.077,4.513,4.513,0,0,0,2.34-.189,1.226,1.226,0,0,1,.409-.082c.979,0,1.933-.264,2.917-.263a9.342,9.342,0,0,0,1.8-.2,12.523,12.523,0,0,1,2.479-.374.662.662,0,0,0,.273-.049,6.8,6.8,0,0,1,3.028-.291,7.188,7.188,0,0,0,1.66-.151,12.486,12.486,0,0,1,2.618-.4,2.3,2.3,0,0,0,.553-.07,3.536,3.536,0,0,1,2.221-.031c.852-.167,1.578-.329,2.312-.447s1.476-.195,2.215-.283c.184-.022.376.007.557-.028a9.805,9.805,0,0,1,2.629-.252,1.584,1.584,0,0,0,.549-.09,8.791,8.791,0,0,1,2.351-.272,21.9,21.9,0,0,0,5.809-.648,9.533,9.533,0,0,1,2.355-.235,4.1,4.1,0,0,0,1.1-.131,10,10,0,0,1,1.376-.219c.974-.08,1.951-.121,2.926-.193a4.417,4.417,0,0,0,.96-.151,4.369,4.369,0,0,1,1.8-.146,5.959,5.959,0,0,0,1.943-.1c.317-.067.648-.067.968-.122a8.1,8.1,0,0,0,1.5-.31,10.666,10.666,0,0,1,3.3-.516c.651-.037,1.3-.074,1.954-.053,1.077.036,2.129-.221,3.2-.235a.681.681,0,0,0,.274-.045,6.043,6.043,0,0,1,2.474-.3,9.841,9.841,0,0,0,2.353-.265,7.4,7.4,0,0,1,1.244-.142,4.41,4.41,0,0,0,.97-.079,9.932,9.932,0,0,1,2.479-.3c1.018-.074,2.031-.258,3.04-.431.779-.133,1.551-.316,2.322-.492a2.837,2.837,0,0,1,1.106-.087,12.608,12.608,0,0,0,3.893-.135c1.109-.162,2.219-.25,3.332-.312a6.271,6.271,0,0,0,1.647-.272,6.164,6.164,0,0,1,1.922-.3c.744,0,1.489-.043,2.232-.084a18.089,18.089,0,0,0,2.77-.333,12.027,12.027,0,0,1,1.934-.257,14.009,14.009,0,0,1,2.785-.086,1.762,1.762,0,0,0,.686-.095,22.33,22.33,0,0,1,4.835-.632,4.149,4.149,0,0,0,.968-.1,20.942,20.942,0,0,1,2.754-.453,15.624,15.624,0,0,1,2.089-.1,6.8,6.8,0,0,0,1.8-.217,35.523,35.523,0,0,1,5.9-1.054c1.756-.189,3.512-.369,5.252-.686a6.437,6.437,0,0,1,.973-.077q3.142-.082,6.267-.431c.646-.073,1.288-.152,1.932-.249a12.08,12.08,0,0,1,2.226-.1,6.949,6.949,0,0,0,1.937-.175c.407-.1.818-.183,1.227-.274a10.2,10.2,0,0,1,2.769-.238,15.724,15.724,0,0,0,3.756-.21,2.639,2.639,0,0,1,.826-.071,5.66,5.66,0,0,0,1.8-.07,5.056,5.056,0,0,1,1.11-.093,12.642,12.642,0,0,0,2.364-.142,15.609,15.609,0,0,1,1.811-.11,9.165,9.165,0,0,0,1.942-.185,7.825,7.825,0,0,1,1.941-.181c.513.005,1.025.011,1.537.01a5.168,5.168,0,0,0,.836-.025,34.807,34.807,0,0,1,5.708-.282,3.045,3.045,0,0,0,.826-.093,15.541,15.541,0,0,1,4.409-.6q1.118.009,2.235-.01c.558-.011,1.115-.048,1.673-.068.418-.016.836-.04,1.254-.033a7.053,7.053,0,0,0,1.8-.141,2.3,2.3,0,0,1,.827-.067,6.008,6.008,0,0,0,1.528-.068q1.8-.213,3.61-.382c.462-.043.929-.025,1.394-.033,1.21-.021,2.42-.039,3.63-.063a2.391,2.391,0,0,0,.555-.052,8.665,8.665,0,0,1,2.777-.136,9.943,9.943,0,0,0,2.228-.086,13.58,13.58,0,0,1,2.508-.132,44.15,44.15,0,0,0,4.878-.2c.645-.057,1.3.016,1.95,0a16.568,16.568,0,0,1,1.8-.218,6.045,6.045,0,0,0,1.94-.151,4.553,4.553,0,0,1,1.109-.081c2.379.023,4.743-.218,7.108-.41a6.324,6.324,0,0,1,2.216.068,2.615,2.615,0,0,0,2.02-.3,4.984,4.984,0,0,1,.618-.324,3.591,3.591,0,0,0,1.807-1.672,8.953,8.953,0,0,0,.939-2.022c.244-.849.447-1.71.668-2.566.129-.5.235-1,.4-1.482a9.514,9.514,0,0,0,.421-1.619,5.783,5.783,0,0,1,.222-.8,2.7,2.7,0,0,0,.1-.26c.24-1.284.813-2.464,1.172-3.712a3.841,3.841,0,0,0,.165-1.924,2.157,2.157,0,0,1,.1-1.236,6.943,6.943,0,0,0,.382-2.61,14.065,14.065,0,0,1,.212-2.918,5.508,5.508,0,0,0-.017-2.222,3.775,3.775,0,0,1-.123-.827c.022-2.007-.346-3.984-.448-5.981-.053-1.022-.091-2.045-.144-3.067-.017-.324-.049-.649-.1-.97a30.333,30.333,0,0,0-.682-3.7,2.031,2.031,0,0,1-.082-.551,22.049,22.049,0,0,0-.87-4.8,6.3,6.3,0,0,0-1.416-2.7,7.085,7.085,0,0,1-1.271-3.49,2.116,2.116,0,0,1,.079-.827,2.078,2.078,0,0,0-.239-1.481,2.415,2.415,0,0,0-.132-.246,3.428,3.428,0,0,1-.572-2.118,2.427,2.427,0,0,0-.6-1.673,5.024,5.024,0,0,1-1.042-2.553,11.035,11.035,0,0,0-.5-2.03,8.359,8.359,0,0,1-.46-1.9,1.891,1.891,0,0,0-.83-1.394c-.419-.295-.844-.581-1.258-.881a2,2,0,0,0-1.6-.324c-.594.108-1.182.255-1.765.415a2.727,2.727,0,0,0-.618.314c-.24.14-.464.309-.708.443a.7.7,0,0,1-.947-.329,1.824,1.824,0,0,1-.176-.665,9.84,9.84,0,0,1,.325-2.764,3.265,3.265,0,0,1,.863-1.573,3.231,3.231,0,0,0,.869-2.428,1.425,1.425,0,0,0-.076-.549,10.086,10.086,0,0,0-.785-1.784,14.785,14.785,0,0,0-1.692-2.217,1.791,1.791,0,0,0-1.356-.608c-.326,0-.652,0-.978-.014a5.978,5.978,0,0,1-1.924-.3,4.3,4.3,0,0,0-1.928-.187c-1.6.145-1.553.062-2.573-.957-.1-.1-.2-.2-.3-.3-1.082-1.069-1.1-1.106-2.563-1.125a31.54,31.54,0,0,0-5.432.272,7.5,7.5,0,0,1-1.25.107,12.809,12.809,0,0,0-2.778.176,2.941,2.941,0,0,1-.971-.026,7.438,7.438,0,0,0-2.086.037,13.019,13.019,0,0,1-1.528.121c-1.071.026-2.142.04-3.212.034a10.129,10.129,0,0,0-2.08.225,11.17,11.17,0,0,1-3.2.124,4.154,4.154,0,0,0-1.385.047,5.068,5.068,0,0,1-2.081.049,4.347,4.347,0,0,0-1.526-.028,1.837,1.837,0,0,1-.555.045,10.193,10.193,0,0,0-2.9.331,1.782,1.782,0,0,0-1.286.979.531.531,0,0,0,.166.622,2,2,0,0,0,.239.141,21.074,21.074,0,0,0,2.763.977c1.355.34,2.675.8,4,1.224,1.064.342,2.12.708,3.179,1.062.133.045.272.073.4.13,1.231.556,2.535.911,3.8,1.37,1.18.427,2.386.788,3.586,1.158,1.69.521,3.385,1.024,5.079,1.533a11.653,11.653,0,0,1,1.816.716,18.1,18.1,0,0,0,3.1,1.27,3.418,3.418,0,0,1,1,.486,11.847,11.847,0,0,0,2.667,1.506c1.019.652,2.04,1.3,3.054,1.959.234.152.431.359.667.506a9.493,9.493,0,0,1,2.373,2.534,3.264,3.264,0,0,1-.433,4.1,13.929,13.929,0,0,0-1.452,1.5,1.758,1.758,0,0,1-1.474.657,8.47,8.47,0,0,0-1.253.054,2.752,2.752,0,0,0-1.727.768,1.141,1.141,0,0,0-.128.276,19.327,19.327,0,0,1-.816,3.1,9.523,9.523,0,0,1-1.308,2.61,12.567,12.567,0,0,1-1.454,1.872,3.449,3.449,0,0,0-.588.777,18.4,18.4,0,0,1-2.734,3.519c-1.453,1.509-2.956,2.969-4.452,4.436a8.968,8.968,0,0,1-1.081.88,4.466,4.466,0,0,0-1.175,1.179,9.026,9.026,0,0,1-1.276,1.477,44.653,44.653,0,0,0-3.737,4.332c-.4.512-.843.993-1.26,1.494a10.691,10.691,0,0,0-.689.876,3.176,3.176,0,0,0-.632,1.819,2.151,2.151,0,0,1-.434,1.3c-.134.19-.246.4-.388.58a8.545,8.545,0,0,0-1.452,2.68,3.9,3.9,0,0,1-1.423,1.86,2.2,2.2,0,0,1-1.7.489c-.231-.031-.461-.07-.692-.1a4.168,4.168,0,0,1-2.758-1.5,4.116,4.116,0,0,1,.139-2.734c.2-.471.354-.96.519-1.444a10.035,10.035,0,0,0,.37-1.2,5.87,5.87,0,0,1,.625-1.695c.226-.407.433-.824.642-1.24a7.118,7.118,0,0,1,1.3-1.8c.909-.93,1.778-1.9,2.65-2.866a8.309,8.309,0,0,0,.664-.891A24.087,24.087,0,0,1,558.7,410.6c.5-.554.937-1.157,1.381-1.755a4.571,4.571,0,0,1,.947-1.016,6.638,6.638,0,0,0,1.369-1.386,3.86,3.86,0,0,1,.647-.729,28.667,28.667,0,0,0,2.135-2c.3-.291.6-.582.9-.874a3.576,3.576,0,0,1,.5-.489,18.077,18.077,0,0,0,2.51-2.414c.267-.259.511-.541.765-.814a3.274,3.274,0,0,0,.465-.517c.492-.848,1.117-1.6,1.662-2.413a13.108,13.108,0,0,0,1.116-2.248,4.143,4.143,0,0,0,.249-1.648,1.89,1.89,0,0,0-.378-1.178,8.094,8.094,0,0,0-1.013-1.146c-.561-.486-1.176-.913-1.781-1.347a1.928,1.928,0,0,0-.623-.3,17.969,17.969,0,0,1-2.09-.782,4.582,4.582,0,0,0-1.209-.322c-1.345-.136-2.662-.436-4-.622a10.1,10.1,0,0,0-1.251-.1,11.388,11.388,0,0,1-2.5-.236,4.072,4.072,0,0,0-1.248-.019,4.716,4.716,0,0,1-1.388-.059,4.079,4.079,0,0,0-.829-.1,7.97,7.97,0,0,1-1.932-.259,3.776,3.776,0,0,0-.967-.127c-1.308.025-2.584-.363-3.892-.289-.65.037-1.3.15-1.946.142-.6-.007-1.2-.155-1.8-.191a4.75,4.75,0,0,1-1.232-.213,4.242,4.242,0,0,0-1.376-.2c-.7,0-1.4.011-2.094-.013-1.023-.034-2.046-.076-3.066-.153a7.475,7.475,0,0,0-1.532-.022,4.272,4.272,0,0,1-1.662-.1,2.461,2.461,0,0,0-1.376.046,9.608,9.608,0,0,1-3.461.214,6.726,6.726,0,0,0-1.8.009,1.933,1.933,0,0,1-1.223-.168c-.38-.175-.768-.336-1.159-.485a2.356,2.356,0,0,1-1.165-.959q-.57-.877-1.138-1.758a2.439,2.439,0,0,1,.044-2.753,4.185,4.185,0,0,1,3.429-1.853,8.8,8.8,0,0,1,1.39.106,8.633,8.633,0,0,0,1.81.087,1.887,1.887,0,0,1,.418-.009c1.436.191,2.884.038,4.323.143a6.6,6.6,0,0,0,1.39-.047,11.523,11.523,0,0,1,3.2.01,19.535,19.535,0,0,0,3.2.129,12.8,12.8,0,0,1,2.089.058,4.143,4.143,0,0,0,2.538-.6.771.771,0,0,0,.279-1.089,2.821,2.821,0,0,0-.847-.915,8.255,8.255,0,0,0-1.849-.97c-.96-.356-1.91-.738-2.867-1.1a7.809,7.809,0,0,0-.928-.306c-1.445-.357-2.9-.691-4.341-1.053a4.778,4.778,0,0,0-2.211-.086,4.58,4.58,0,0,1-.97.1,10.316,10.316,0,0,0-2.634.24,1.076,1.076,0,0,1-.277.032c-1.163-.009-2.328.017-3.488-.049a10.294,10.294,0,0,1-1.7-.388c-.207.048-.481.1-.748.174a3.254,3.254,0,0,1-3.44-.95c-.227-.233-.459-.462-.7-.683-.169-.156-.355-.3-.558-.462l-3.214.164c-.572.214-.82.642-1.192.916a.817.817,0,0,1-.917.1c-.492-.262-.977-.542-1.446-.842a2.157,2.157,0,0,0-1.458-.346c-.832.092-1.667.148-2.5.216a1.625,1.625,0,0,1-.418,0,33.426,33.426,0,0,0-4.04-.116,5.043,5.043,0,0,0-1.528.114,2.525,2.525,0,0,1-.55.089c-2.512.04-5,.475-7.523.375a10.544,10.544,0,0,0-2.367.118,4.57,4.57,0,0,1-1.53-.017,7.762,7.762,0,0,0-2.367,0,20.943,20.943,0,0,1-3.9.075,14.465,14.465,0,0,0-1.53.022c-.927.068-1.858.1-2.786.092-.508,0-1.016-.158-1.523-.152s-1.011.165-1.519.186a8.327,8.327,0,0,1-1.529-.085,3.129,3.129,0,0,0-1.379.068,5.55,5.55,0,0,1-1.938.155q-1.116-.065-2.233-.1a4.38,4.38,0,0,0-1.786.25,2.314,2.314,0,0,1-1.234.117,12.093,12.093,0,0,0-3.065-.008c-1.067.109-2.134.162-3.2.2-.139,0-.277.028-.4.04-.745.407-.741.411-1.021.9a1.083,1.083,0,0,0,.659.836,5.321,5.321,0,0,1,.518.195c.1.064.157.212.224.31a1.876,1.876,0,0,1-.122.278.659.659,0,0,1-.2.194,1.928,1.928,0,0,1-2.843-.416,5.788,5.788,0,0,1-.493-.676c-.181-.271-.35-.55-.521-.827a1.139,1.139,0,0,0-1.165-.6c-.278.031-.557.048-.834.08a6.56,6.56,0,0,1-2.631-.159,2.12,2.12,0,0,0-1.1-.028,8.564,8.564,0,0,1-1.944.16c-.792,0-1.583,0-2.375.007a4.16,4.16,0,0,1-.418,0c-.556-.052-1.11-.151-1.666-.159s-1.111.1-1.668.1a5.48,5.48,0,0,1-1.245-.123,5.45,5.45,0,0,0-2.9,0,2.649,2.649,0,0,1-.69.089c-1.862.062-3.724.045-5.584-.036a11.284,11.284,0,0,1-1.177-.178,13.4,13.4,0,0,1-4.649.132,14.22,14.22,0,0,0-1.811-.065,9.865,9.865,0,0,1-2.5-.14,1.8,1.8,0,0,0-.967.04,6.921,6.921,0,0,1-1.8.21,28.247,28.247,0,0,0-4.037.261,4.244,4.244,0,0,1-.7.035,19.827,19.827,0,0,0-3.617.255,3.971,3.971,0,0,1-.975.046c-1.581-.089-3.163-.02-4.745-.033-.558,0-1.118-.024-1.673-.071a3.333,3.333,0,0,0-1.381.111,3.973,3.973,0,0,1-1.656.167c-1.581-.147-3.164,0-4.746-.044a2.812,2.812,0,0,0-.691.065,12.48,12.48,0,0,1-3.33.2q-1.673-.084-3.349-.062c-1.582.02-3.164.089-4.746.132-.278.007-.558,0-.837-.015-1.581-.063-3.163-.125-4.744-.2a3.155,3.155,0,0,0-1.1.13,4.5,4.5,0,0,1-1.378.144,24.514,24.514,0,0,0-2.788.1,8.565,8.565,0,0,1-1.808-.065,20.457,20.457,0,0,0-2.788-.133,6.64,6.64,0,0,0-.836.041,8.278,8.278,0,0,1-2.358.009,9.8,9.8,0,0,0-2.086.074,5.142,5.142,0,0,1-1.527-.014,11.186,11.186,0,0,0-3.615-.017,11.174,11.174,0,0,1-2.085.047,28.92,28.92,0,0,0-5.019.106,8.592,8.592,0,0,1-.973.074c-1.769,0-3.537-.016-5.306-.021-.559,0-1.117.012-1.676.016a6.435,6.435,0,0,1-1.8-.134,2.139,2.139,0,0,0-1.106.014,3.827,3.827,0,0,1-1.383.078,7.686,7.686,0,0,0-1.251.006,17.65,17.65,0,0,1-4.179-.054,2.876,2.876,0,0,0-.556-.042c-.929.014-1.858.038-2.787.058-.093,0-.186.009-.279,0a16.146,16.146,0,0,0-1.668-.112c-.506.016-1.007.172-1.514.221a8.318,8.318,0,0,1-1.116-.01c-.186-.007-.37-.055-.555-.059-.65-.014-1.306.037-1.947-.041a13.969,13.969,0,0,0-1.8-.155,8.743,8.743,0,0,0-1.94.182,6.528,6.528,0,0,1-1.386.119q-2.234.037-4.469.036c-.743,0-1.487-.054-2.231-.076-.371-.01-.743-.006-1.114,0a10.255,10.255,0,0,1-1.672,0,11.87,11.87,0,0,0-2.637-.062,21.305,21.305,0,0,1-2.649-.053,4.01,4.01,0,0,0-1.382.069,2.746,2.746,0,0,1-1.383.03,6.243,6.243,0,0,0-1.526-.112c-.7.014-1.395-.032-2.092-.058-.372-.014-.743-.045-1.115-.057a2.869,2.869,0,0,0-1.491.288,2.5,2.5,0,0,1-1.488.2c-.926-.084-1.859-.087-2.789-.111a5.424,5.424,0,0,1-1.385-.147,1.658,1.658,0,0,0-.41-.077c-1.721-.038-3.433-.284-5.158-.216a2.213,2.213,0,0,0-.688.093,2.538,2.538,0,0,1-1.642-.041,4.136,4.136,0,0,0-1.1-.176c-1.536,0-3.056-.285-4.594-.251-.558.012-1.117-.029-1.675-.027a4.713,4.713,0,0,1-1.784-.258,3.053,3.053,0,0,0-1.242-.119c-.651.022-1.3.03-1.954.028a3.609,3.609,0,0,1-.832-.072,12.893,12.893,0,0,0-2.916-.193,28.2,28.2,0,0,1-4.036-.194c-.092-.014-.183-.036-.275-.047-.556-.067-1.107.181-1.666.026a4.613,4.613,0,0,0-1.665-.065,4.814,4.814,0,0,1-.975,0,9.358,9.358,0,0,0-2.089-.057,2.251,2.251,0,0,1-1.093-.179,3.9,3.9,0,0,0-1.923-.226,15.932,15.932,0,0,1-4.31-.2,19.4,19.4,0,0,0-2.365-.169c-.837-.035-1.676-.028-2.514-.052a4.336,4.336,0,0,0-1.786.226,2.384,2.384,0,0,1-1.238.07c-.692-.088-1.388-.14-2.082-.21a5.429,5.429,0,0,1-.829-.1c-1.217-.321-2.464-.483-3.7-.7-.5-.089-1.015-.119-1.522-.186a3.746,3.746,0,0,1-.956-.166c-1.076-.46-2.221-.689-3.322-1.061-.133-.045-.267-.083-.4-.128a1.989,1.989,0,0,1-.908-.628,5.114,5.114,0,0,1-1.005-1.822,1.035,1.035,0,0,1,.2-1.048,9.348,9.348,0,0,1,1.2-1.163,4.026,4.026,0,0,1,2.616-.811c.695.031,1.385.156,2.078.235.369.042.739.077,1.109.113a3.456,3.456,0,0,1,.829.085,8.171,8.171,0,0,0,2.067.248c1.853.186,3.721.128,5.568.386.322.045.649.063.974.079a19.97,19.97,0,0,1,3.188.357,10.046,10.046,0,0,0,2.084.173,12.9,12.9,0,0,1,2.911.289,7.8,7.8,0,0,0,1.108.11c.6.05,1.206.08,1.806.148a9.332,9.332,0,0,0,2.361.144,3.013,3.013,0,0,1,.825.093c.368.054.733.153,1.1.17,1.441.063,2.883.114,4.326.143a11.533,11.533,0,0,1,1.932.225,19.707,19.707,0,0,0,3.325.376c.791.014,1.581.062,2.372.081a8.457,8.457,0,0,0,1.254-.026,7.72,7.72,0,0,1,2.773.177,8.441,8.441,0,0,0,1.8.21,33.008,33.008,0,0,1,3.487.163,1.673,1.673,0,0,0,.418.013,14.6,14.6,0,0,1,3.335.174,9.528,9.528,0,0,0,1.672.05c.369-.025.742.025,1.114.034.744.018,1.491.083,2.231.035a22.944,22.944,0,0,1,5.01.188A28.85,28.85,0,0,0,294.4,367a8.069,8.069,0,0,0,1.39-.1,7.088,7.088,0,0,1,1.946-.029,14.973,14.973,0,0,0,3.483.054,2.164,2.164,0,0,1,.557,0,7.232,7.232,0,0,0,2.5-.153,6.942,6.942,0,0,1,2.773,0,5.441,5.441,0,0,0,1.663.1,2.9,2.9,0,0,1,.558-.018,31.1,31.1,0,0,0,3.626.072c1.16-.05,2.325.042,3.488.065.419.008.84.019,1.256-.014a19.061,19.061,0,0,1,3.069-.037c.093.008.186,0,.279.01.842.066,1.673-.162,2.5-.131a15.756,15.756,0,0,0,2.5.089,3.582,3.582,0,0,1,.558-.014A25.566,25.566,0,0,0,331,366.6a4.393,4.393,0,0,1,.695-.057q2.025.045,4.048.11c.511.015,1.022.063,1.534.069,1.815.022,3.631.027,5.447.051a12.4,12.4,0,0,1,1.53.094,7.943,7.943,0,0,0,1.949-.007,45.075,45.075,0,0,1,6.266-.314c.418.012.838.014,1.256-.01,4.1-.239,8.192-.16,12.287-.026,1.678.054,3.351-.008,5.025-.081.837-.037,1.673-.091,2.51-.128a4.973,4.973,0,0,1,.837.012,37.677,37.677,0,0,0,6.692.067c.836-.043,1.674-.019,2.512-.023.511,0,1.023,0,1.535,0,.977,0,1.956-.034,2.932.012a6.974,6.974,0,0,0,1.941-.125,5.037,5.037,0,0,1,2.485-.021,5.07,5.07,0,0,0,2.22.026,4.835,4.835,0,0,1,2.074.017,3.455,3.455,0,0,0,.834.048c1.536-.013,3.072-.049,4.607-.046a15.094,15.094,0,0,0,2.506-.1,2.738,2.738,0,0,1,.558,0,4.971,4.971,0,0,0,.556.042c1.535-.1,3.068.062,4.6.033,1.583-.03,3.158-.178,4.739-.225a3.2,3.2,0,0,0,.692-.077,8.589,8.589,0,0,1,2.361-.165q1.674.045,3.35.078a7.234,7.234,0,0,0,.977-.01,37.429,37.429,0,0,1,4.046-.133c.837,0,1.675-.02,2.513-.027a7.232,7.232,0,0,1,.977.011,11.665,11.665,0,0,0,3.61-.209,4.9,4.9,0,0,1,2.212.033,2.851,2.851,0,0,0,1.517.017,3.034,3.034,0,0,1,1.248-.027,9.119,9.119,0,0,0,1.669.031c1.162-.044,2.327-.026,3.491-.023a7.057,7.057,0,0,0,2.078-.179,2.041,2.041,0,0,1,1.1.031,2.791,2.791,0,0,0,1.1,0,31.494,31.494,0,0,1,4.72-.412,5.664,5.664,0,0,1,.835.045,12.52,12.52,0,0,0,2.508.075,12.2,12.2,0,0,1,2.371,0,4.175,4.175,0,0,0,.834-.026c.465-.022.93-.074,1.4-.067,3.072.049,6.144-.059,9.216-.038.466,0,.931.035,1.4.041a10.939,10.939,0,0,0,1.255-.01,57.567,57.567,0,0,1,6.421-.128,40.465,40.465,0,0,0,5.855-.223,5.906,5.906,0,0,1,1.809.053,3.615,3.615,0,0,0,1.109.038c.6-.078,1.2-.128,1.805-.166.836-.054,1.671-.1,2.506-.177a25.177,25.177,0,0,1,4.324.015,9.331,9.331,0,0,1,1.777.358,2.373,2.373,0,0,0,1.753-.1,5.641,5.641,0,0,1,2.858-.476c.509.043,1.023.027,1.535.051a8.532,8.532,0,0,0,3.007-.537c.8-.257.931-.8.306-1.321a8.417,8.417,0,0,0-2.477-1.535,17.38,17.38,0,0,0-2.958-.816,6.247,6.247,0,0,1-1.465-.439c-.893-.394-1.836-.666-2.713-1.106a2.885,2.885,0,0,0-.939-.248,7.387,7.387,0,0,1-1.627-.385,40.232,40.232,0,0,1-4.335-1.543.579.579,0,0,0-.129-.054c-1.774-.389-3.4-1.253-5.194-1.6a17.79,17.79,0,0,1-3.088-.871,7.062,7.062,0,0,0-2.723-.536,5.055,5.055,0,0,1-.723-.092,4.854,4.854,0,0,0-2.828-1.352,10.521,10.521,0,0,1-1.6-.481A5.221,5.221,0,0,0,473,351.01c-.419,0-.838-.012-1.257-.015a2.029,2.029,0,0,1-1.179-.374c-.038-.027-.079-.051-.114-.08a4.606,4.606,0,0,0-4.09-.815,2.575,2.575,0,0,1-2.432-.711c-.268-.257-.549-.5-.791-.722a3.371,3.371,0,0,0-.437-.164,3.058,3.058,0,0,1-1.378-.639,2.535,2.535,0,0,0-1.8-.632,1.831,1.831,0,0,1-.44-.1l-.591-.926a1.464,1.464,0,0,0-.367-.178c-.319-.061-.643-.1-.967-.129a2.584,2.584,0,0,1-1.63-.711c-.1-.1-.2-.19-.31-.282a3.013,3.013,0,0,0-1.213-.669,15.577,15.577,0,0,0-3.112-.768,1.845,1.845,0,0,1-.782-.266,4.613,4.613,0,0,0-2.653-.719,2.007,2.007,0,0,1-1.072-.264c-.287-.155-.586-.292-.855-.473a11.854,11.854,0,0,0-3.326-1.418,4.786,4.786,0,0,1-.671-.19,6.006,6.006,0,0,0-2.686-.658,1.26,1.26,0,0,1-.65-.223,10.675,10.675,0,0,0-1.353-.718,3.032,3.032,0,0,1-.782-.571,4.207,4.207,0,0,0-1.154-.771c-1.1-.5-2.2-1.011-3.292-1.524-.38-.178-.76-.357-1.122-.565a5.265,5.265,0,0,0-1.269-.57,2.189,2.189,0,0,1-.644-.26,7.579,7.579,0,0,0-2.061-.841,4.289,4.289,0,0,1-.792-.267c-1.358-.728-2.842-1.164-4.213-1.858-.374-.19-.764-.352-1.12-.57a12.629,12.629,0,0,0-2.9-1.349,4.745,4.745,0,0,1-1.014-.466,6.294,6.294,0,0,0-2.3-.965,2.257,2.257,0,0,1-.853-.45c-.575-.395-1.121-.834-1.7-1.221a6.4,6.4,0,0,0-1.22-.667,6.093,6.093,0,0,1-1.69-.96c-.287-.235-.63-.408-.9-.66a3.611,3.611,0,0,0-2.012-.884,3.742,3.742,0,0,0-.554-.068,2.358,2.358,0,0,1-1.714-.814,6.811,6.811,0,0,1-1.367-1.752,5.992,5.992,0,0,0-1.623-2.073,2.1,2.1,0,0,1-.661-.887,8.746,8.746,0,0,1-.87-1.894,16.571,16.571,0,0,1-.247-3.754,2.969,2.969,0,0,1,1.239-2.25c.677-.493,1.363-.975,2.028-1.482a9.4,9.4,0,0,1,2.073-1.143c.557-.237,1.1-.5,1.656-.741.726-.312,1.444-.657,2.193-.9,1.061-.346,2.143-.631,3.224-.912s2.166-.548,3.26-.777,2.2-.395,3.293-.6c.456-.087.911-.19,1.358-.316,1.3-.367,2.593-.749,3.889-1.124.313-.091.633-.16.941-.267,2.6-.9,5.334-1.3,7.975-2.042.448-.127.9-.242,1.345-.377a6.82,6.82,0,0,1,1.779-.333,4.615,4.615,0,0,0,.7-.062c2.055-.392,4.132-.679,6.164-1.193a3.235,3.235,0,0,1,.546-.115,47.474,47.474,0,0,0,5.08-.907c1.553-.294,3.105-.594,4.662-.866.779-.136,1.564-.239,2.344-.367.964-.159,1.927-.328,2.89-.5a5.847,5.847,0,0,1,.685-.128,34.914,34.914,0,0,0,3.994-.626c1.284-.219,2.559-.5,3.837-.747,1.324-.26,2.646-.533,3.972-.779.731-.136,1.47-.232,2.206-.336,1.013-.144,2.031-.257,3.041-.424.734-.121,1.456-.311,2.184-.464a6.806,6.806,0,0,1,1.234-.221c1.125-.017,2.214-.292,3.324-.408.37-.039.736-.117,1.107-.14a24.74,24.74,0,0,0,4.4-.741,5.025,5.025,0,0,1,.821-.152c1.024-.079,2.019-.333,3.031-.479a26.819,26.819,0,0,1,4.14-.537,14.863,14.863,0,0,0,3.044-.372,41.034,41.034,0,0,1,4.269-.709c.6-.055,1.194-.191,1.79-.3a40.466,40.466,0,0,1,4.729-.387c.559-.032,1.109-.112,1.663-.173a36.566,36.566,0,0,1,5.138-.484,3.95,3.95,0,0,0,1.107-.1,10.009,10.009,0,0,1,1.8-.222,18.288,18.288,0,0,0,1.94-.226,11.747,11.747,0,0,1,2.221-.192c.7.007,1.4,0,2.095-.011a5.488,5.488,0,0,0,1.113-.069,10.134,10.134,0,0,1,2.22-.128c1.023-.007,2.046-.086,3.067-.161,2.787-.207,5.575-.326,8.37-.3,1.21.011,2.421,0,3.631-.022a4.87,4.87,0,0,0,1.108-.1,8.821,8.821,0,0,1,2.079-.2c1.211-.009,2.421-.031,3.631-.057a9.861,9.861,0,0,0,1.114-.075,12.352,12.352,0,0,1,1.951-.085,10.3,10.3,0,0,0,1.4-.036,30.551,30.551,0,0,1,4.744-.081,10.605,10.605,0,0,0,2.639-.188,3.08,3.08,0,0,1,1.243-.018,10.432,10.432,0,0,0,2.5.144c.836-.046,1.675-.041,2.513-.043,2.421-.007,4.842.006,7.263-.013,1.07-.008,2.141-.047,3.207-.127.662-.049,1.3.123,1.946.125s1.3-.106,1.951-.063a63.349,63.349,0,0,0,7.395.015c.186-.009.373-.009.559,0,2,.087,4,.1,6,.021a6.144,6.144,0,0,1,.836.031,28.77,28.77,0,0,0,3.906.079c.745-.028,1.49-.036,2.235-.037,1.4,0,2.793.022,4.19.013a27.243,27.243,0,0,1,4.175.3,10.738,10.738,0,0,0,1.67.109c.558,0,1.117.006,1.676.006a7.688,7.688,0,0,1,1.8.18,4.786,4.786,0,0,0,1.8.083c.829-.119,1.671.006,2.5-.16a3.844,3.844,0,0,1,1.1.1c.462.049.923.134,1.385.142,2.141.042,4.282.117,6.423.017a6.527,6.527,0,0,1,1.528.1c.5.094,1.013.133,1.521.188a6.733,6.733,0,0,1,.834.066,14.846,14.846,0,0,0,3.2.235c1.163.021,2.328.016,3.491.019a20.787,20.787,0,0,1,3.477.258,15.556,15.556,0,0,0,2.225.151,12.04,12.04,0,0,1,2.084.168,8.8,8.8,0,0,0,1.249.121c1.022.057,2.045.1,3.068.149a15.92,15.92,0,0,0,1.675.053,14.648,14.648,0,0,1,3.608.29,2.948,2.948,0,0,0,1.379-.012,2.069,2.069,0,0,1,1.1-.009,13.08,13.08,0,0,0,3.192.287,24.082,24.082,0,0,1,3.9.256,6.9,6.9,0,0,0,1.112.093,11.266,11.266,0,0,1,2.22.209,5.562,5.562,0,0,0,1.112.08c.884.007,1.769,0,2.653-.009a6.652,6.652,0,0,1,1.661.177,8.4,8.4,0,0,0,1.377.206,12.211,12.211,0,0,1,2.478.393,8.173,8.173,0,0,0,2.207.292,7.926,7.926,0,0,1,2.761.311,2.767,2.767,0,0,0,.829.083c.558.022,1.117.039,1.676.041a26.652,26.652,0,0,1,3.48.248c.323.043.648.071.972.108a36.188,36.188,0,0,1,4.566.548,5.7,5.7,0,0,0,1.391.068,16.532,16.532,0,0,1,2.221.171,29.815,29.815,0,0,0,3.619.24,24.827,24.827,0,0,1,4.294.47,18.217,18.217,0,0,0,4.584.327,4.971,4.971,0,0,1,2.065.218,7.387,7.387,0,0,0,1.921.335,26.419,26.419,0,0,0,3.208.128,4.488,4.488,0,0,1,1.107.1,24.344,24.344,0,0,0,3.73.5,18.64,18.64,0,0,1,2.615.432,8.655,8.655,0,0,0,1.8.208,1.41,1.41,0,0,1,.417.019c1.078.319,2.211.274,3.3.5a9.14,9.14,0,0,0,1.384.15,15.205,15.205,0,0,1,3.039.408,10.762,10.762,0,0,0,2.348.313,17.657,17.657,0,0,1,3.866.532,10.585,10.585,0,0,0,2.9.357,8.741,8.741,0,0,1,1.246.112c1.71.214,3.381.639,5.078.925a11.832,11.832,0,0,0,1.8.2,6.3,6.3,0,0,1,2.2.331,1.078,1.078,0,0,0,.407.087,8.67,8.67,0,0,1,2.463.448,4.727,4.727,0,0,0,.684.135c1.62.155,3.242.284,4.86.458.924.1,1.844.246,2.758.415a38.553,38.553,0,0,0,3.851.655,6.307,6.307,0,0,1,1.221.286,13.435,13.435,0,0,0,2.188.438c1.477.176,2.957.344,4.426.574a22.06,22.06,0,0,1,2.585.588,33.7,33.7,0,0,0,4.522.851,33.773,33.773,0,0,1,3.431.612c.947.233,1.916.386,2.881.533,1.012.153,2.021.314,3.029.5,1.144.211,2.274.462,3.4.727,1.767.413,3.554.737,5.332,1.1.182.037.362.086.544.128q1.836.418,3.673.835a1,1,0,0,0,.276.039,10.069,10.069,0,0,1,2.728.509,27.9,27.9,0,0,0,4.507.918c1.171.3,2.4.322,3.555.7a.924.924,0,0,0,.135.035c1.514.261,3,.642,4.5.99.771.18,1.545.342,2.319.509s1.547.331,2.32.5c.318.068.639.129.953.213,1.349.36,2.7.728,4.044,1.093.134.037.266.085.4.116.728.164,1.339.638,2.1.739a18.32,18.32,0,0,1,2.042.456c.992.251,1.98.523,2.97.784l3.235.85a2.827,2.827,0,0,1,.536.156,22.2,22.2,0,0,0,3.734,1.106,22.1,22.1,0,0,1,3.591,1.121,4.91,4.91,0,0,0,1.052.371c1.461.324,2.823.945,4.237,1.407a9.65,9.65,0,0,1,1.519.7,24.141,24.141,0,0,1,3.967,2.306,5.4,5.4,0,0,1,.8.774,2.685,2.685,0,0,1,.584,2.355c-.155.728-.3,1.462-.517,2.172a5.426,5.426,0,0,1-.649,1.385c-.513.775-1.1,1.5-1.644,2.254a3.689,3.689,0,0,1-1.01.951,9.713,9.713,0,0,0-1.633,1.3,8.248,8.248,0,0,1-.98.781,16.618,16.618,0,0,0-2.49,2.013,9.883,9.883,0,0,1-1.291,1.006,17.969,17.969,0,0,0-2.4.292,5.342,5.342,0,0,0-1.575.539,3.359,3.359,0,0,1-1.58.512,3.844,3.844,0,0,0-2.155.7c-1.453.227-2.833.437-4.21.662a5.572,5.572,0,0,0-.943.24c-.3.106-.593.263-.888.4a8.493,8.493,0,0,0-2.353-.118,3.765,3.765,0,0,1-2.343.656l-3.571,1.753c-.82.028-1.656.069-2.492.079a3.593,3.593,0,0,0-1.755.373,3.528,3.528,0,0,1-1.613.393,8.942,8.942,0,0,0-1.8.237,3.239,3.239,0,0,1-.967.107,3.554,3.554,0,0,0-2.385.593,3.523,3.523,0,0,1-1.3.48,2.4,2.4,0,0,1-1.376-.033,2.768,2.768,0,0,0-1.65-.072c-.647.16-1.305-.016-1.946.08-.6.089-1.173.356-1.767.389a27.855,27.855,0,0,1-3.617.235,2.986,2.986,0,0,0-.834.047,14.019,14.019,0,0,1-2.781.208,6.6,6.6,0,0,0-1.928.272,28.371,28.371,0,0,1-4.25.789c-.6.093-1.194.2-1.795.253-.74.061-1.485.1-2.227.087a3.748,3.748,0,0,1-.9-.228,7.085,7.085,0,0,1-2.96.848,2.286,2.286,0,0,1-.416.047,23.968,23.968,0,0,0-3.054.169c-1.02.076-2.048.05-3.072.045a5.989,5.989,0,0,0-1.38.16,12.1,12.1,0,0,0-3.182,1.03c-.238-.03-.47-.043-.695-.091a4.393,4.393,0,0,0-1.248-.084,5.865,5.865,0,0,1-.974-.008,2.075,2.075,0,0,0-1.087.181c-.254.116-.5.246-.766.338a6.505,6.505,0,0,1-2.178.423,12.216,12.216,0,0,0-3.455.4,3.484,3.484,0,0,1-1.106.091,32.346,32.346,0,0,0-5.016.206,12.334,12.334,0,0,0-2.736.513,3.5,3.5,0,0,1-.965.122c-.883.054-1.767.091-2.65.14a16.721,16.721,0,0,0-2.907.354,6.779,6.779,0,0,1-1.94.187,5.013,5.013,0,0,0-1.522.149,4.377,4.377,0,0,1-.964.136,14.219,14.219,0,0,0-1.943.2,5.973,5.973,0,0,1-1.111.058,4.607,4.607,0,0,0-1.656.184,4.5,4.5,0,0,1-1.655.188c-.791-.028-1.582-.064-2.373-.091-.278-.009-.557,0-.873,0a7.216,7.216,0,0,1-2.343.778c-.415.05-.831.119-1.248.132-1.211.039-2.41.189-3.614.317a26.648,26.648,0,0,1-3.319.41,2.9,2.9,0,0,0-.684.118,3.75,3.75,0,0,1-.672.182c-1.582.061-3.124.5-4.714.483a5.47,5.47,0,0,0-1.525.138,5.356,5.356,0,0,1-1.525.132c-.372-.008-.745-.006-1.117-.018a5.181,5.181,0,0,0-1.925.273,3.168,3.168,0,0,1-1.513.136,16.543,16.543,0,0,0-3.344.088,6,6,0,0,0-1.349.34,3.771,3.771,0,0,1-1.923.189,2.683,2.683,0,0,0-.694-.03c-1.348.082-2.7.175-4.042.264-.324.021-.649.038-.974.056-.046,0-.094-.008-.14,0-1.2.1-2.4.268-3.611.27a2.347,2.347,0,0,0-.809.2,5.176,5.176,0,0,1-2.476.283,6.629,6.629,0,0,0-2.076.108c-.638.126-1.285.209-1.927.315a8.159,8.159,0,0,1-1.95.063,3.243,3.243,0,0,0-1.376.154,2.206,2.206,0,0,1-.538.147,31.5,31.5,0,0,1-4.723.412,26.026,26.026,0,0,1-2.647-.1,3.04,3.04,0,0,0-.834.03c-.923.12-1.843.255-2.765.384-.23.032-.46.076-.692.09-1.068.064-2.136.117-3.2.18a7.622,7.622,0,0,0-2.334.382,3.314,3.314,0,0,1-1.238.168,7.984,7.984,0,0,0-1.525.154,18.218,18.218,0,0,1-3.061.211,5.692,5.692,0,0,0-2.2.305,1.322,1.322,0,0,1-.407.1c-1.018.074-2.036.175-3.056.195a10.43,10.43,0,0,0-1.667.108,3.691,3.691,0,0,1-1.389.038,11.264,11.264,0,0,0-4.023.168,16.451,16.451,0,0,1-1.8.209c-.789.04-1.575.149-2.363.222-.833.078-1.668.15-2.5.221-1.438.122-2.875.246-4.314.358a9.351,9.351,0,0,1-1.252.034,19.621,19.621,0,0,0-4.585.337,17.739,17.739,0,0,1-2.5.242c-1.347.049-2.693.146-4.041.2-.461.019-.924-.028-1.484-.048a7.66,7.66,0,0,1-2.387.3,4.506,4.506,0,0,0-.7.019c-1.1.173-2.209.3-3.32.4-.6.054-1.2.15-1.8.178a16.847,16.847,0,0,0-3.33.321,3.081,3.081,0,0,1-.694.059,19.156,19.156,0,0,0-3.893.256c-2,.117-3.994.258-6,.255a31.463,31.463,0,0,0-4.73.294,4.632,4.632,0,0,0-2.27,1,1.312,1.312,0,0,0-.359.42,1.075,1.075,0,0,0-.1.53,1.376,1.376,0,0,0,.175.525,12.986,12.986,0,0,0,1.934,3.058,2.533,2.533,0,0,1,.4.568c.375.7.745,1.4,1.1,2.1.6,1.206,1.188,2.422,1.792,3.627a9.4,9.4,0,0,1,1.083,2.559,2.618,2.618,0,0,0,.317.771,16.872,16.872,0,0,1,1.039,2.59c.518,1.494,1.018,3,1.535,4.49a8.135,8.135,0,0,0,.342.764c.236.506.477,1.01.713,1.516.078.169.154.34.221.513a2.131,2.131,0,0,1,.172.53c.111,1.173.754,2.2.91,3.36a15.354,15.354,0,0,0,.923,3.5,9.807,9.807,0,0,1,.7,2.838,4.659,4.659,0,0,0,.158.822c.386,1.488.621,3.006.893,4.517a14.483,14.483,0,0,1,.407,2.334c.008.511.064,1.022.114,1.531.064.648.145,1.293.217,1.94a2.271,2.271,0,0,1,.04.416,9.962,9.962,0,0,0,.332,2.9c.211.952.31,1.928.446,2.9a3.772,3.772,0,0,1,.023.7,6.792,6.792,0,0,0,.178,2.078,2.533,2.533,0,0,1,.048,1.109,13.014,13.014,0,0,0-.12,2.367c0,.652-.008,1.3,0,1.956a4.894,4.894,0,0,1-.214,1.652,4.205,4.205,0,0,0-.193,1.516c.008.326,0,.653.018.978a6.745,6.745,0,0,1-.4,2.6,10.428,10.428,0,0,0-.685,3.121,3.69,3.69,0,0,1-.52,1.862,3.323,3.323,0,0,0-.434,1.316,9.2,9.2,0,0,1-.207.953c-.142.587-.284,1.176-.442,1.759-.17.628-.364,1.251-.54,1.878a5.79,5.79,0,0,0-.268,1.081,7.187,7.187,0,0,1-.358,1.912.474.474,0,0,0,.315.552,15.969,15.969,0,0,0,2.195.37c1.067.05,2.139-.006,3.207-.049a5.355,5.355,0,0,0,2.264-.421,4.37,4.37,0,0,0,1.869.089c.362-.069.742-.039,1.113-.072a9.9,9.9,0,0,0,1.241-.156,5.436,5.436,0,0,1,1.245-.119q1.4.017,2.793,0a11.4,11.4,0,0,1,2.09.053,1.825,1.825,0,0,0,.557.009c1.2-.175,2.409-.195,3.594-.43a7.448,7.448,0,0,1,1.8-.169,5.2,5.2,0,0,0,2.066-.256,1.993,1.993,0,0,1,.966-.079,7.528,7.528,0,0,0,2.088-.036,7.527,7.527,0,0,1,1.392-.035,10.991,10.991,0,0,0,1.673-.047,14.311,14.311,0,0,1,1.667-.133,2.059,2.059,0,0,0,.689-.087,6.634,6.634,0,0,1,2.209-.251c.373,0,.745-.041,1.117-.042a11.937,11.937,0,0,1,1.391.042,7.168,7.168,0,0,0,2.361-.077,7.392,7.392,0,0,1,2.358-.164,1.331,1.331,0,0,0,.418-.006,5.546,5.546,0,0,1,2.491.086,1.37,1.37,0,0,0,.955-.1,3.833,3.833,0,0,1,1.765-.337c.884-.011,1.769-.034,2.653-.044a11.829,11.829,0,0,0,2.221-.213,11.591,11.591,0,0,1,1.244-.173q2.014-.187,4.032-.352c.277-.024.557-.021.836-.023a5.8,5.8,0,0,0,.7.009,33.374,33.374,0,0,1,4.461-.03,8.614,8.614,0,0,0,2.081-.182,8.289,8.289,0,0,1,1.106-.134c.324-.032.656-.017.973-.079a8.288,8.288,0,0,1,2.085-.125,1.871,1.871,0,0,0,.28.006c.555-.05,1.109-.133,1.664-.15s1.118.082,1.671.042c1.859-.135,3.719-.17,5.582-.15a9.607,9.607,0,0,0,1.384-.134,27.131,27.131,0,0,1,4.16-.386,26.086,26.086,0,0,0,4.317-.2.653.653,0,0,1,.138-.018c.509.027,1.02.091,1.528.076a7.868,7.868,0,0,1,1.528-.067,6.287,6.287,0,0,0,2.5-.082,3.365,3.365,0,0,1,.829-.1c1.12.012,2.229-.108,3.343-.2,1.857-.147,3.72-.154,5.583-.115.744.016,1.489.034,2.233.029a3.99,3.99,0,0,0,.826-.109c.27-.06.532-.161.8-.246l1.077.277a2.961,2.961,0,0,0,.417-.1,2.9,2.9,0,0,0,1.4-1.1,2.14,2.14,0,0,1,.247-.338,23.223,23.223,0,0,0,2.23-2.857c.491-.679,1-1.347,1.5-2.017.363-.482.745-.951,1.1-1.442a12.4,12.4,0,0,0,.758-1.168,8.878,8.878,0,0,1,1.624-2.258,2.076,2.076,0,0,0,.591-1.085,17.672,17.672,0,0,1,1.256-3.395,25.3,25.3,0,0,0,1.662-3.839,3.065,3.065,0,0,1,.27-.642,23.54,23.54,0,0,0,1.2-2.672,10.256,10.256,0,0,0,.794-2.227,2.3,2.3,0,0,1,.344-.756,3.694,3.694,0,0,0,.5-1.441,6.835,6.835,0,0,1,.559-2.009,2.122,2.122,0,0,0,.117-.4,1.049,1.049,0,0,0-.219-.917,2.3,2.3,0,0,0-2.058-.957,11.382,11.382,0,0,1-1.534-.007,2.5,2.5,0,0,1-.951-.187,6.062,6.062,0,0,0-2.435-.562l-1.009-.719c-.55-.176-1,.219-1.539.2a.965.965,0,0,1-.25-.03,14.8,14.8,0,0,0-3.227-.872,3.108,3.108,0,0,1-1.507-.685c-.182-.145-.354-.3-.541-.442a1.639,1.639,0,0,0-1.444-.34,6.725,6.725,0,0,1-3.956-.485,9.565,9.565,0,0,1-2.58-1.045.329.329,0,0,0-.128-.053,13.73,13.73,0,0,1-3.1-1.251c-.6-.262-1.186-.541-1.777-.814a4.487,4.487,0,0,1-.5-.246c-1.023-.647-2.059-1.268-3.13-1.834a5.6,5.6,0,0,1-.879-.684,18.744,18.744,0,0,1-3.032-3.453c-.166-.223-.315-.462-.5-.674a3.816,3.816,0,0,1-.672-1.214c-.126-.35-.3-.682-.419-1.035a5.636,5.636,0,0,1-.256-1.082,5.39,5.39,0,0,0-.223-1.088,7.336,7.336,0,0,1-.064-4.4c.129-.447.294-.883.428-1.329a9.876,9.876,0,0,1,2.255-3.813,20.077,20.077,0,0,1,1.481-1.48,11.173,11.173,0,0,0,1.7-1.646,1.509,1.509,0,0,1,.308-.282,43.928,43.928,0,0,1,5.3-3.625,4.908,4.908,0,0,1,1-.49,24.2,24.2,0,0,0,4.08-1.8c1.3-.64,2.631-1.184,3.966-1.731a8.245,8.245,0,0,1,.925-.313c.717-.2,1.436-.394,2.16-.564,1-.235,2-.451,2.971-.77a3.9,3.9,0,0,1,.826-.123c.231-.023.47.008.7-.032a8.106,8.106,0,0,1,2.5.111,11.116,11.116,0,0,1,3.03,1.024,1.217,1.217,0,0,1,.358.214,13.459,13.459,0,0,0,2.1,1.358,18.1,18.1,0,0,1,3.411,2.644c.6.648,1.248,1.254,1.87,1.884a5.462,5.462,0,0,1,1.406,2.057,1.656,1.656,0,0,0,.183.376,27.479,27.479,0,0,1,1.979,4.61,11.839,11.839,0,0,1,.639,3.837c.019.278,0,.559.014.837a5.212,5.212,0,0,0,.1.829c.266,1.18.531,2.36.829,3.532a3.472,3.472,0,0,1-.2,2.317,2.04,2.04,0,0,1-.189.373,1.39,1.39,0,0,0-.1,1.575,3.656,3.656,0,0,1,.393,1.614,4.13,4.13,0,0,0,.094.691,3,3,0,0,1-.028,1.244c-.308,1.5-.592,3.01-.894,4.559a8.312,8.312,0,0,0,1.158,1.959,3.135,3.135,0,0,0,1.542.292,10.329,10.329,0,0,1,2.637.2.665.665,0,0,0,.277.017,8.649,8.649,0,0,1,2.768.173,14.987,14.987,0,0,0,2.089.109,26.324,26.324,0,0,1,3.6.428,15.613,15.613,0,0,0,2.08.212,11.794,11.794,0,0,1,2.5.232,3.791,3.791,0,0,0,.832.076,12.222,12.222,0,0,1,1.8.2c.78.121,1.572.177,2.361.222a13.457,13.457,0,0,1,1.661.195,22.161,22.161,0,0,0,3.467.356,16.992,16.992,0,0,1,3.044.333,18.61,18.61,0,0,0,3.592.47,13.933,13.933,0,0,1,3.321.356,19.525,19.525,0,0,0,4.583.342c1.024.01,2.048.026,3.071.054a8.413,8.413,0,0,1,1.111.1,10.006,10.006,0,0,0,2.087.139,2.729,2.729,0,0,1,1.354.27c.544.262,1.1.5,1.635.783a3.237,3.237,0,0,1,1.549,2.224,1.86,1.86,0,0,1-.564,1.79c-.522.53-1.07,1.034-1.64,1.581a5.872,5.872,0,0,0-1.916,1.032.935.935,0,0,1-.8.17,22.246,22.246,0,0,0-2.21-.31,4.505,4.505,0,0,1-.8-.228c-.535-.16-1.066-.335-1.6-.477a3.026,3.026,0,0,0-1.79.014,3.246,3.246,0,0,1-1.373.169,3.223,3.223,0,0,0-.831.051,3.08,3.08,0,0,1-1.108-.016,7.083,7.083,0,0,0-1.107-.108c-.651-.016-1.3,0-1.955,0a8.035,8.035,0,0,0-2.217.223,1.707,1.707,0,0,1-.41.078c-1.353.048-2.676.336-4.015.5a4.2,4.2,0,0,0-1.09.212c-1.082.445-2.235.641-3.342,1a5.785,5.785,0,0,1-2.062.272,6.486,6.486,0,0,0-2.592.441,9.273,9.273,0,0,1-2.024.5c-.23.03-.457.088-.685.135a2.414,2.414,0,0,0-1.787,1.606.776.776,0,0,0,.047.674,3.342,3.342,0,0,0,1.095,1.246,7.823,7.823,0,0,0,1.209.7q2.434,1.053,4.891,2.052a14.379,14.379,0,0,0,1.725.555,9.276,9.276,0,0,1,1.959.727,6.023,6.023,0,0,0,2.947.745,4.17,4.17,0,0,1,1.889.425,7.183,7.183,0,0,0,2.4.691,12.56,12.56,0,0,1,1.639.342,10.241,10.241,0,0,0,2.335.388,2.959,2.959,0,0,1,.818.165c.981.292,1.965.58,2.935.906a4.683,4.683,0,0,0,1.641.281,17.906,17.906,0,0,1,3.46.423,4.484,4.484,0,0,1,1.316.443,7.188,7.188,0,0,0,3.252.661,9.046,9.046,0,0,1,1.525.118,7.308,7.308,0,0,0,.97.11,11.366,11.366,0,0,1,2.623.335c.483.143,1.021.084,1.519.187,1.643.337,3.311.511,4.965.775a5.866,5.866,0,0,0,.971.091,4.091,4.091,0,0,1,2.17.4c.691.09,1.379.21,2.073.259a6.843,6.843,0,0,1,1.516.207,1.188,1.188,0,0,0,.41.079,16.187,16.187,0,0,1,3.576.531,5.469,5.469,0,0,1,2.547.96l1.358.089a2.825,2.825,0,0,1,.466.209,2.915,2.915,0,0,0,1.858.5,21.945,21.945,0,0,1,3.883.376,2.366,2.366,0,0,1,.679.151,12.528,12.528,0,0,0,4.072.864,6.219,6.219,0,0,1,.958.174c.317.073.63.165.941.26a9.76,9.76,0,0,0,2.877.483,15.5,15.5,0,0,1,3.3.56,6.671,6.671,0,0,0,1.657.2,4.02,4.02,0,0,1,1.239.168c.4.114.817.171,1.226.257a15.785,15.785,0,0,0,2.9.377,6.483,6.483,0,0,1,1.377.222,12.075,12.075,0,0,0,2.2.325,7.819,7.819,0,0,1,1.771.368,8.644,8.644,0,0,0,2.2.309,31.525,31.525,0,0,1,4.033.311,6.427,6.427,0,0,0,2.724.048,5.109,5.109,0,0,0,2.384.374,14.606,14.606,0,0,0,3.052-.271,2.326,2.326,0,0,1,.554-.055c1.117-.019,2.235-.044,3.352-.042a4.856,4.856,0,0,1,2.136.584,1.576,1.576,0,0,1,.607.559,8.746,8.746,0,0,1,.849,1.6,2.2,2.2,0,0,1-1.433,3.018,23.45,23.45,0,0,0-2.485.9,5.375,5.375,0,0,1-.674.176c-.4.113-.81.215-1.2.354a5.7,5.7,0,0,1-2.035.432,3.573,3.573,0,0,0-.823.14,8.4,8.4,0,0,1-2.224.144,3.433,3.433,0,0,1-2.194-.786,2.319,2.319,0,0,0-1.38-.6,2.761,2.761,0,0,1-.687-.118,5.023,5.023,0,0,0-2.481-.165c-.138.02-.278.021-.476.035-.212-.075-.478-.159-.735-.263a3.9,3.9,0,0,0-1.507-.244,3.628,3.628,0,0,1-1.5-.286,4.746,4.746,0,0,0-1.91-.351c-.652-.006-1.3-.008-1.956-.013-.465,0-.934.024-1.395-.026s-.912-.176-1.444-.285l-1.322.257a2.655,2.655,0,0,1-.515-.128,2.783,2.783,0,0,0-1.771-.211,4.126,4.126,0,0,1-1.378-.07,8.532,8.532,0,0,0-3.865.123c-.659.217-1.349.34-2.159.538a1.712,1.712,0,0,1-.649-.257c-.333-.168-.665-.336-1-.509a2.5,2.5,0,0,0-1.2-.331,5.075,5.075,0,0,1-1.381-.175,1.659,1.659,0,0,0-.413-.063c-1.911-.009-3.8-.369-5.708-.381a2.312,2.312,0,0,1-.694-.04,25.056,25.056,0,0,0-3.453-.385,2.5,2.5,0,0,0-1.245.068,2.53,2.53,0,0,1-1.644.015,1.775,1.775,0,0,0-1.484.14,3.625,3.625,0,0,1-.508.23,1.58,1.58,0,0,1-.962.025,1.617,1.617,0,0,1-.392-.145,6.518,6.518,0,0,0-3.385-.639c-.51,0-1.021-.054-1.531-.044a25.392,25.392,0,0,0-4.173-.035,1.429,1.429,0,0,1-.418.01c-.923-.1-1.851-.188-2.768-.334a24.549,24.549,0,0,0-3.065-.151,9.275,9.275,0,0,1-1.795-.192,19.22,19.22,0,0,0-4.158-.426c-1.024-.008-2.041-.077-3.063-.184a12.48,12.48,0,0,0-2.918-.075,4.6,4.6,0,0,1-2.346-.121.518.518,0,0,0-.274-.043c-.873.192-1.764-.089-2.631.1-.468.1-.933-.027-1.39.029a6.525,6.525,0,0,1-1.791-.118,15.593,15.593,0,0,0-2.781-.173,15.977,15.977,0,0,0-3.2.2,1.983,1.983,0,0,1-.828-.031,2.679,2.679,0,0,0-1.77.185,1.382,1.382,0,0,1-.335.083,1.23,1.23,0,0,1-.348,0,8.47,8.47,0,0,0-3.441-.325,9.2,9.2,0,0,1-2.634-.077,4.317,4.317,0,0,0-1.11-.043,9.222,9.222,0,0,1-.972.079c-1.672-.137-3.352-.02-5.021-.186-.741-.074-1.481-.157-2.224-.211a5.828,5.828,0,0,0-1.113.012,12.462,12.462,0,0,1-2.647.044,3.461,3.461,0,0,0-1.246.089,9.258,9.258,0,0,1-2.632.259c-.605-.01-1.21-.047-1.815-.044-.558,0-1.115.039-1.672.066a7.8,7.8,0,0,1-.833.054,3.437,3.437,0,0,0-1.24.144,5.35,5.35,0,0,1-1.658.181,21.26,21.26,0,0,1-2.787-.134,3.664,3.664,0,0,0-1.387.06,3.364,3.364,0,0,1-.826.12,23.239,23.239,0,0,1-4.767-.24,7.127,7.127,0,0,1-2.451.307,3.879,3.879,0,0,0-1.24.167,7.719,7.719,0,0,1-1.091.219,3.061,3.061,0,0,0-1.837.919q-.434.453-.845.928c-.485.564-.968,1.13-1.439,1.706a4.2,4.2,0,0,0-.556.8,7.158,7.158,0,0,1-.938,1.38c-.411.5-.778,1.046-1.15,1.58a2.991,2.991,0,0,1-.791.775c-.653.445-1.288.916-1.93,1.378a3.106,3.106,0,0,0-.935,1.024c-.472.867-1.226,1.518-1.771,2.331a2.374,2.374,0,0,1-.97.781c-.251.121-.5.246-.758.373-.547.622-.928,1.412-1.735,1.721a31.411,31.411,0,0,1-2.377,3.5,3.311,3.311,0,0,0-.25.335A10.481,10.481,0,0,1,708.505,469a2.465,2.465,0,0,0-.611.75,6.062,6.062,0,0,1-1.586,1.923c-.361.29-.654.663-1,.975a6.184,6.184,0,0,1-2.474,1.522,2.469,2.469,0,0,0-1.347.943q-.336.446-.64.913c-.152.234-.269.49-.417.727a2.627,2.627,0,0,1-1.354,1.156,3.179,3.179,0,0,0-1.641,1.234,4.7,4.7,0,0,1-1.682,1.441,4.09,4.09,0,0,0-1.027.708,7,7,0,0,1-1.673,1.457,1.163,1.163,0,0,0-.527.8c-.074.315-.121.636-.167.884a1.4,1.4,0,0,1-.213.285c-1.151.794-2.183,1.738-3.276,2.6-.874.691-1.694,1.452-2.51,2.212a2.9,2.9,0,0,1-1.7.887,1.754,1.754,0,0,0-1.338.9,17.055,17.055,0,0,1-2.567,3.114,10.526,10.526,0,0,0-1.54,1.978,4.529,4.529,0,0,1-1.477,1.454,11.678,11.678,0,0,0-2.184,1.723,7.119,7.119,0,0,1-2.777,1.824,5.244,5.244,0,0,0-.516.214,1.722,1.722,0,0,0-.742.615c-.629.922-1.268,1.838-1.888,2.766a2.071,2.071,0,0,1-.8.751,1.723,1.723,0,0,1-1.607.1A5.127,5.127,0,0,0,666.639,505.655Zm7.895-214.227a6.855,6.855,0,0,1-2.968.367c-1.3-.04-2.606-.042-3.909-.054a17.046,17.046,0,0,1-2.779-.222c-.777-.135-1.571-.184-2.358-.248-1.16-.1-2.323-.151-3.481-.259a10.3,10.3,0,0,1-1.646-.3,5.83,5.83,0,0,0-1.515-.188c-.743,0-1.487-.056-2.23-.083-1.674-.063-3.345-.186-5.023-.088a10.41,10.41,0,0,1-2.92-.154,2.168,2.168,0,0,0-.692-.065,8.955,8.955,0,0,1-2.776-.149,3.208,3.208,0,0,0-.556-.031c-1.211-.026-2.421-.083-3.631-.066a14.935,14.935,0,0,1-3.73-.454,3.636,3.636,0,0,0-1.786-.01,6.235,6.235,0,0,1-3.041-.069,6.522,6.522,0,0,0-1.933-.2c-.6.03-1.209.064-1.813.078a19.4,19.4,0,0,1-3.485-.1c-1.109-.176-2.222-.217-3.336-.283-.465-.028-.931-.052-1.392-.109a17.964,17.964,0,0,0-2.509-.091,29.4,29.4,0,0,1-3.487.038,41.243,41.243,0,0,0-5.58-.151,13.184,13.184,0,0,1-2.369-.052,13.485,13.485,0,0,0-2.78-.125c-.463.028-.93-.017-1.395-.034-.745-.028-1.488-.08-2.233-.087-1.815-.018-3.631-.041-5.446-.012-.846.014-1.668-.23-2.5-.2s-1.669.1-2.508.078c-.558-.013-1.116,0-1.674,0-.606,0-1.213.039-1.815,0a14.208,14.208,0,0,0-2.782-.028,3.553,3.553,0,0,1-.971-.07,11.9,11.9,0,0,0-3.753.076,9.614,9.614,0,0,1-3.056.029,6.512,6.512,0,0,0-1.522-.035,21.366,21.366,0,0,1-4.736.018,3.768,3.768,0,0,0-.972-.02,40.814,40.814,0,0,1-4.743.137c-1.815.009-3.63.058-5.444.1a4.381,4.381,0,0,0-.694.073,20.222,20.222,0,0,1-3.894.268c-.883-.011-1.772-.03-2.651.039-1.395.11-2.789.124-4.185.121-.326,0-.652-.016-.977,0-1.3.058-2.6.135-3.9.184-.511.019-1.023-.009-1.535-.03a14.973,14.973,0,0,0-2.925.113,22.477,22.477,0,0,1-2.643.2,19.044,19.044,0,0,0-3.757.189c-1.59,0-3.134.407-4.711.537a7.207,7.207,0,0,1-1.667.042,3.362,3.362,0,0,0-1.387.056,10.768,10.768,0,0,1-2.493.252c-.883.033-1.771.062-2.645.179-1.752.234-3.5.494-5.269.565-1.255.05-2.5.291-3.758.28a5.513,5.513,0,0,0-.689.1,6.135,6.135,0,0,1-.832.073,8.5,8.5,0,0,0-1.662.18,12.706,12.706,0,0,1-2.628.324,1.806,1.806,0,0,0-.552.073c-1.571.454-3.235.392-4.8.864a2.173,2.173,0,0,1-.692.073,10.89,10.89,0,0,0-2.494.263,24.431,24.431,0,0,1-2.472.44c-1.58.13-3.112.588-4.7.641a3.615,3.615,0,0,0-.684.129c-.769.183-1.533.392-2.307.551-.82.169-1.644.336-2.475.426a24.7,24.7,0,0,0-3.436.58,11.175,11.175,0,0,1-3.3.532,2.846,2.846,0,0,0-.82.15c-1.082.277-2.161.563-3.242.846a10.475,10.475,0,0,1-2.619.373,2.785,2.785,0,0,0-.964.115,9.452,9.452,0,0,1-3.135.6,4.3,4.3,0,0,0-.688.116c-.777.15-1.552.309-2.33.454-1.783.332-3.557.72-5.363.921a7.8,7.8,0,0,0-.818.178c-1.5.329-3,.661-4.5.985-.272.059-.553.079-.828.123-.5.081-1.008.166-1.512.251-.87.148-1.737.333-2.613.436a26.778,26.778,0,0,0-4.12.724c-.537.15-1.084.268-1.629.387q-1.773.39-3.549.765c-1.5.319-3,.653-4.506.94a4.992,4.992,0,0,0-1.45.472,5.9,5.9,0,0,1-1.838.637,10.48,10.48,0,0,0-1.2.363,6.188,6.188,0,0,1-1.207.326,13.164,13.164,0,0,0-2.184.44,16.515,16.515,0,0,0-2.815.784,2.893,2.893,0,0,1-.542.127c-.589.139-1.182.263-1.764.427a7.2,7.2,0,0,0-1.036.4c-1.054.489-2.1,1-3.152,1.486-.21.1-.439.154-.658.235-.349.128-.694.267-1.045.39a4.122,4.122,0,0,0-1.5.986,2.653,2.653,0,0,0-1.012,1.906,4.543,4.543,0,0,1-.24.942c-.043.177-.063.359-.1.547.131.164.234.317.359.45a15,15,0,0,0,2.963,2.316c1.178.745,2.431,1.371,3.543,2.227a4.972,4.972,0,0,0,.861.455c1.46.724,2.934,1.419,4.376,2.175,1.031.54,2.06,1.079,3.136,1.527a7.122,7.122,0,0,1,1.11.584,24.253,24.253,0,0,0,3.991,1.994c.559.229,1.115.469,1.66.731,1.132.545,2.25,1.113,3.428,1.564.954.364,1.871.827,2.809,1.237.681.3,1.354.625,2.057.86a28.467,28.467,0,0,1,2.7,1.134,33.08,33.08,0,0,0,4.908,1.988c.267.073.517.21.779.305.349.127.7.246,1.054.362.265.087.54.145.8.246,1.6.625,3.123,1.45,4.774,1.958a2.132,2.132,0,0,1,.379.176,11.278,11.278,0,0,0,2.082.8,8.842,8.842,0,0,1,1.841.644,6.8,6.8,0,0,0,2.105.712,9.373,9.373,0,0,1,2.791.865,9.466,9.466,0,0,0,2.088.772c.719.193,1.431.414,2.14.643a4.175,4.175,0,0,1,.894.385A9.512,9.512,0,0,0,469.7,343.6a7.747,7.747,0,0,1,.934.286,39.706,39.706,0,0,0,3.854,1.234c.983.284,1.938.665,2.95.851a4.889,4.889,0,0,1,.658.229c.97.325,1.934.674,2.914.965a18.646,18.646,0,0,1,2.617.962,12.263,12.263,0,0,0,3.437,1.128,4.2,4.2,0,0,1,1.061.334,8.615,8.615,0,0,0,1.184.407c.944.253,1.893.49,2.843.72a16.091,16.091,0,0,1,2.522.808c.941.4,1.911.73,2.871,1.084a3.13,3.13,0,0,0,.54.141,25.9,25.9,0,0,1,4.144,1.228c.745.265,1.523.44,2.258.727a9.438,9.438,0,0,0,2.377.786,15.4,15.4,0,0,1,2.379.78c.045.012.09.022.136.032a23.037,23.037,0,0,1,4.479,1.546,6.916,6.916,0,0,0,1.046.387c1,.261,1.916.717,2.878,1.065.524.19,1.016.472,1.543.65a16.053,16.053,0,0,0,2.645.878c.924.143,1.694.758,2.614.953.408.086.8.229,1.208.341.538.15,1.1.25,1.612.452a5.946,5.946,0,0,0,2.326.366,8.043,8.043,0,0,1,1.944.135,12.018,12.018,0,0,0,4.72.01,22.258,22.258,0,0,1,4.863-.259,10.951,10.951,0,0,0,3.466-.233,10.263,10.263,0,0,1,2.347-.31c1.348-.048,2.7,0,4.048-.018a15.085,15.085,0,0,0,2.361.138c.777-.131,1.573-.149,2.361-.221.556-.052,1.116-.08,1.665-.175a8.772,8.772,0,0,1,2.226-.114,14.24,14.24,0,0,0,2.922-.127c1.527-.181,3.058-.274,4.591-.35a6.412,6.412,0,0,0,.968-.116,4.143,4.143,0,0,1,1.387-.052c.321.042.65.027.974.053,1.213.1,2.412-.122,3.62-.142a2.644,2.644,0,0,0,.552-.079,9.033,9.033,0,0,1,2.22-.222c2.1.041,4.167-.405,6.263-.432a9.014,9.014,0,0,0,.963-.156c.554-.069,1.108-.159,1.664-.173.93-.022,1.864-.028,2.792.027a8.966,8.966,0,0,0,2.631-.242,15.836,15.836,0,0,1,4.287-.477,6.792,6.792,0,0,0,1.944-.148,7.827,7.827,0,0,1,2.359-.152,21.526,21.526,0,0,0,3.616-.163c.416-.048.833-.094,1.248-.146.924-.113,1.846-.241,2.771-.339a3.75,3.75,0,0,1,1.109-.007c1.481.3,2.973-.136,4.452.089a.553.553,0,0,0,.139-.01c.784-.1,1.578-.146,2.352-.3a20.055,20.055,0,0,1,3.474-.283,8.94,8.94,0,0,0,2.355-.224,3.866,3.866,0,0,1,.831-.072c.511-.032,1.023-.052,1.533-.089,1.021-.075,2.041-.175,3.063-.23a11.078,11.078,0,0,0,2.628-.3,4.142,4.142,0,0,1,.693-.069c.415-.049.829-.109,1.244-.157.461-.053.923-.119,1.386-.142.65-.031,1.3-.039,1.954-.037a15.021,15.021,0,0,0,2.917-.251c.548-.106,1.1-.193,1.655-.257,1.756-.2,3.514-.391,5.272-.584.323-.036.647-.073.971-.1,2.647-.211,5.3-.166,7.954-.276a18.86,18.86,0,0,0,2.642-.2,9.8,9.8,0,0,1,1.251-.086c1.626-.083,3.247-.253,4.878-.228.277,0,.553-.079.831-.1a14.554,14.554,0,0,1,3.2-.182,1.43,1.43,0,0,0,.417-.021c.736-.107,1.479-.183,2.2-.342a11.952,11.952,0,0,1,2.776-.237,22.262,22.262,0,0,0,3.481-.2,13.258,13.258,0,0,1,1.532-.085,5.551,5.551,0,0,0,1.653-.224,3.529,3.529,0,0,1,.957-.174,24.437,24.437,0,0,0,3.194-.308,6.44,6.44,0,0,1,.836-.041c.279-.012.56-.007.836-.044a44.553,44.553,0,0,1,4.734-.26,21.95,21.95,0,0,0,2.364-.167,16.047,16.047,0,0,1,2.221-.207,3.322,3.322,0,0,0,.965-.113,16.894,16.894,0,0,1,4.277-.576c1.394-.051,2.781-.249,4.181-.194a7.639,7.639,0,0,0,.834-.074c.324-.023.65-.036.975-.05a40.98,40.98,0,0,0,5.982-.336c.27-.052.558,0,.836-.029a4.471,4.471,0,0,0,1.1-.157,5.762,5.762,0,0,1,2.2-.291,15.97,15.97,0,0,0,4.016-.414,13.543,13.543,0,0,1,1.516-.224c1.249-.129,2.5-.237,3.75-.36a2.142,2.142,0,0,0,.545-.114,4.5,4.5,0,0,1,1.79-.214,3.441,3.441,0,0,0,1.379-.153,4.189,4.189,0,0,1,1.512-.2,7.69,7.69,0,0,0,1.666-.092c.866-.2,1.743-.295,2.615-.438a2.921,2.921,0,0,1,1.245-.022,1.825,1.825,0,0,0,1.229-.105,3.472,3.472,0,0,1,1.912-.222,5.262,5.262,0,0,0,2.345-.227,4.8,4.8,0,0,1,1.645-.285,31.872,31.872,0,0,0,3.46-.4,21.454,21.454,0,0,1,4.712-.476,20.242,20.242,0,0,0,2.916-.259,15.326,15.326,0,0,1,2.776-.242,4.4,4.4,0,0,0,1.651-.229,7.8,7.8,0,0,1,2.04-.435c.648-.07,1.292-.171,1.938-.262a10.076,10.076,0,0,1,2.366-.106,5.714,5.714,0,0,0,1.8-.132,18.821,18.821,0,0,1,4.567-.526,6.355,6.355,0,0,0,1.652-.215,15.7,15.7,0,0,1,4.977-.478,6.779,6.779,0,0,0,2.493-.195,4.518,4.518,0,0,1,1.1-.152,9.16,9.16,0,0,0,1.521-.194,21.332,21.332,0,0,1,4.3-.36,4.96,4.96,0,0,0,.968-.063,6.267,6.267,0,0,1,1.808-.059c.37.036.74.087,1.112.1.321.015.645-.009.976-.016a3.031,3.031,0,0,1,2.155-.871,1.431,1.431,0,0,0,.411-.079,9.523,9.523,0,0,1,2.9-.325,18.724,18.724,0,0,0,3.616-.269,4.17,4.17,0,0,1,1.527-.019,4.825,4.825,0,0,0,2.474-.21,4.159,4.159,0,0,1,1.924-.237,2.726,2.726,0,0,0,1.094-.168c1.164-.328,2.331-.646,3.5-.934a6.436,6.436,0,0,1,1.107-.089,11.033,11.033,0,0,0,1.527-.11,8.106,8.106,0,0,1,2.219-.124,7.2,7.2,0,0,0,1.95-.031c1.275-.266,2.57-.443,3.819-.827a4.248,4.248,0,0,1,1.37-.241,13.48,13.48,0,0,0,2.494-.26,4.412,4.412,0,0,0,1.459-.439,2.684,2.684,0,0,1,1.2-.351,15.453,15.453,0,0,0,4.628-.971,4.347,4.347,0,0,1,1.817-.294l1.094.668a.876.876,0,0,0,.68-.31,2.182,2.182,0,0,1,.822-.739,15.273,15.273,0,0,1,3.172-1.051,16.821,16.821,0,0,0,2.064-.34,17.44,17.44,0,0,0,3.671-1.307,9.987,9.987,0,0,1,2.61-.97,4.11,4.11,0,0,0,.92-.318,25.339,25.339,0,0,0,3.317-1.455.478.478,0,0,1,.13-.052,6.618,6.618,0,0,0,2.061-1.151l1.75-1.269c.316-.474.678-1.013,1.034-1.557a.653.653,0,0,0-.052-.66,1.069,1.069,0,0,0-.191-.2,7.575,7.575,0,0,0-3.161-1.393,3.224,3.224,0,0,1-.939-.246q-.828-.367-1.674-.695c-.651-.251-1.309-.483-1.966-.719-.437-.157-.872-.321-1.315-.456-1.647-.5-3.309-.949-4.941-1.507-1.4-.479-2.865-.8-4.3-1.185-1.212-.325-2.434-.62-3.638-.972a16.243,16.243,0,0,0-3.52-.843,1.949,1.949,0,0,1-.794-.24,4.007,4.007,0,0,0-2.118-.6,1.623,1.623,0,0,1-.548-.1,19.219,19.219,0,0,0-3.235-.837,4.146,4.146,0,0,0-1.913-.3c-.279,0-.559-.009-.838-.008a2.992,2.992,0,0,1-1.345-.326c-.251-.123-.5-.248-.743-.386a3.775,3.775,0,0,0-1.587-.486,6.142,6.142,0,0,1-1.367-.255,6.1,6.1,0,0,0-2.2-.27c-.233.011-.466.013-.7.018a2.646,2.646,0,0,1-1.344-.312c-.286-.154-.58-.292-.865-.434l-1.176.241a2.861,2.861,0,0,1-.459-.179,7.087,7.087,0,0,1-.8-.558,2.785,2.785,0,0,0-1.242-.6c-.228-.049-.453-.109-.683-.146-.919-.146-1.841-.276-2.758-.43a7.649,7.649,0,0,1-1.36-.3,33.244,33.244,0,0,0-3.787-.953,53.01,53.01,0,0,1-5.722-1.242,4.528,4.528,0,0,0-.685-.129,6.769,6.769,0,0,1-.821-.161,13.2,13.2,0,0,0-3.3-.539,4.137,4.137,0,0,1-1.354-.3,5.432,5.432,0,0,0-2.587-.458,2.025,2.025,0,0,1-1.087-.188,5.2,5.2,0,0,0-1.61-.434,9.1,9.1,0,0,1-1.093-.227,9.26,9.26,0,0,0-2.744-.447,1.8,1.8,0,0,1-.413-.065c-.957-.188-1.915-.378-2.915-.576l-1.349.248c-.391-.128-.794-.243-1.184-.391a4.03,4.03,0,0,0-1.639-.261,10.4,10.4,0,0,1-2.907-.307c-.362-.089-.721-.19-1.084-.271a2.1,2.1,0,0,0-.385-.021c-.433.1-.727.5-1.285.407a7.468,7.468,0,0,1-.74-.476,3.591,3.591,0,0,0-2.064-.765,9.713,9.713,0,0,1-2.6-.491c-.855.3-1.765.092-2.617.371a.808.808,0,0,1-.662-.159,1.823,1.823,0,0,1-.327-.26,2.285,2.285,0,0,0-1.5-.666,16.984,16.984,0,0,0-2.355-.247,3.068,3.068,0,0,1-.957-.17,22.991,22.991,0,0,0-3.57-.623c-.831-.1-1.668-.173-2.488-.332a12.525,12.525,0,0,0-2.214-.259,11.336,11.336,0,0,1-2.072-.267c-1.412-.286-2.8-.689-4.237-.856a47.5,47.5,0,0,0-5.268-.561,3.358,3.358,0,0,1-.693-.075,11.355,11.355,0,0,0-2.079-.226,6.651,6.651,0,0,1-.83-.1,23.324,23.324,0,0,0-4.559-.576,1.877,1.877,0,0,1-.415-.045c-.686-.131-1.372-.261-2.055-.4a21.331,21.331,0,0,0-3.6-.453,10.947,10.947,0,0,1-1.387-.148,14.628,14.628,0,0,0-2.5-.27,3.082,3.082,0,0,1-.827-.112,6.145,6.145,0,0,0-1.652-.23,6.683,6.683,0,0,1-.966-.136,6.53,6.53,0,0,0-.966-.13c-1.027.007-2.041-.135-3.061-.2-2.232-.146-4.431-.562-6.659-.735a3.34,3.34,0,0,1-.822-.15,4.7,4.7,0,0,0-2.207-.158,5.142,5.142,0,0,1-1.8-.113c-1.046-.222-2.1-.386-3.159-.562a6.112,6.112,0,0,0-.835-.059c-1.023-.024-2.047-.053-3.07-.055a12.143,12.143,0,0,1-2.906-.33,2.643,2.643,0,0,0-1.106-.084,7.949,7.949,0,0,1-3.046-.216,8.825,8.825,0,0,0-2.494-.16c-.555.04-1.115,0-1.673-.012a1.879,1.879,0,0,1-1.372-.588A1.533,1.533,0,0,0,674.534,291.428ZM369.394,501.01c.467-.068.88-.132,1.294-.188a1.615,1.615,0,0,1,1.084.168,2.449,2.449,0,0,0,1.62.274,8.145,8.145,0,0,1,2.636.152,11.409,11.409,0,0,0,1.387.138,21.587,21.587,0,0,1,4.15.4,1.159,1.159,0,0,0,.416.021,8.379,8.379,0,0,1,2.892.383,8.571,8.571,0,0,0,2.2.29,10.227,10.227,0,0,1,2.36.206,7.3,7.3,0,0,0,3.182.056,3.6,3.6,0,0,1,1.523.013,4.244,4.244,0,0,0,.964.136c1.814-.043,3.612.347,5.429.189a.431.431,0,0,1,.139.009,8.28,8.28,0,0,0,2.773.118c.23-.02.464.028.7.031.371,0,.745.024,1.114-.008a12.848,12.848,0,0,1,1.952,0c.555.036,1.115.013,1.672.006,1.023-.014,2.046-.038,3.07-.053.465-.007.931.025,1.394-.006a21.719,21.719,0,0,1,3.488.04,10.337,10.337,0,0,0,2.5-.035,9.44,9.44,0,0,1,1.811-.072c2.516.109,5.021-.189,7.534-.194a4.428,4.428,0,0,0,.689-.1,4.1,4.1,0,0,1,.687-.107c1.3.02,2.583-.4,3.893-.185a.7.7,0,0,0,.277-.018,3.8,3.8,0,0,1,1.793-.035,1.746,1.746,0,0,0,.685-.083c.316-.069.626-.163.762-.2.739.065,1.292.129,1.848.161,1.486.083,2.978-.03,4.464.132a3.489,3.489,0,0,0,.835-.028c1.709-.235,3.44-.111,5.152-.329a9.677,9.677,0,0,0,1.514-.22,5.086,5.086,0,0,1,1.661-.162,25.978,25.978,0,0,0,4.04-.186,4.532,4.532,0,0,1,1.11-.008,10.059,10.059,0,0,0,2.228,0,18.985,18.985,0,0,0,2.912-.305,3.91,3.91,0,0,1,.7-.041c.418-.024.841-.015,1.253-.079a21.007,21.007,0,0,1,3.622-.183,19.957,19.957,0,0,0,2.08-.208c.74-.063,1.485-.065,2.228-.1.093,0,.183-.037.275-.048a18.666,18.666,0,0,1,3.192-.307,2.04,2.04,0,0,0,.554-.058,4.07,4.07,0,0,1,1.388-.026,7.02,7.02,0,0,0,3.3-.349,10.184,10.184,0,0,1,1.768-.4c1.243-.212,2.508-.09,3.755-.269a17.624,17.624,0,0,1,2.5-.194,11.524,11.524,0,0,0,3.03-.442,33.232,33.232,0,0,1,4.131-.641,10.222,10.222,0,0,0,1.781-.305,4.354,4.354,0,0,1,1.1-.135c.744-.041,1.489-.043,2.232-.092a12.134,12.134,0,0,0,2.07-.282c.765-.186,1.571-.165,2.339-.371a.994.994,0,0,1,.417-.016,4.909,4.909,0,0,0,1.932-.155,18.521,18.521,0,0,1,1.928-.314,43.531,43.531,0,0,0,4.419-.607c.18-.039.372-.021.556-.047.413-.059.825-.127,1.237-.195a6.5,6.5,0,0,1,.823-.141c1.536-.051,3.021-.55,4.568-.518a4.1,4.1,0,0,0,.822-.151,8.071,8.071,0,0,1,.822-.152c1.811-.146,3.583-.546,5.37-.836a11.963,11.963,0,0,1,2.214-.2,7.729,7.729,0,0,0,1.792-.219c1.181-.251,2.376-.432,3.541-.765a2.671,2.671,0,0,1,.554-.06,19.158,19.158,0,0,0,3.283-.627c.947-.238,1.883-.524,2.814-.823a7.1,7.1,0,0,1,2.326-.4,4.185,4.185,0,0,0,1.371-.231c.266-.085.529-.185.8-.247a57.144,57.144,0,0,0,6.167-1.78c.57-.2,1.166-.323,1.736-.523a4.761,4.761,0,0,1,1.215-.294,3.585,3.585,0,0,0,1.336-.379c1.629-.811,3.436-1.166,5.067-1.974a1.3,1.3,0,0,1,.4-.122c1.4-.187,2.553-1.121,3.957-1.292a1.039,1.039,0,0,0,.38-.172,8.613,8.613,0,0,1,1.676-.688,9.582,9.582,0,0,0,2.3-1.007,35.621,35.621,0,0,1,3.309-1.8c.45-.24.936-.411,1.4-.615a5.776,5.776,0,0,0,1.014-.457,17.209,17.209,0,0,1,2.545-1.7.41.41,0,0,0,.11-.086,12.327,12.327,0,0,1,1.771-1.356,15.7,15.7,0,0,0,2.147-1.779c.428-.428.856-.856,1.3-1.271a11.849,11.849,0,0,1,1.046-.922,16.11,16.11,0,0,0,2.653-2.461,25.7,25.7,0,0,0,2.338-3.122,13.735,13.735,0,0,1,1.822-2.464,7.165,7.165,0,0,0,.825-1.119c.384-.583.7-1.213,1.125-1.765.68-.889,1.28-1.829,1.911-2.75a14.693,14.693,0,0,0,1.482-3.149,2.984,2.984,0,0,0,.112-.959.668.668,0,0,0-.477-.623,3.7,3.7,0,0,0-1.924-.168,3.336,3.336,0,0,1-1.382.018,2.962,2.962,0,0,0-.97-.031,13.282,13.282,0,0,1-2.5.163,5.655,5.655,0,0,0-1.111.1,19.1,19.1,0,0,1-3.614.226c-.465,0-.926.012-1.39.051a19.653,19.653,0,0,1-3.9.085,6.592,6.592,0,0,0-1.11.056c-.882.051-1.766.165-2.646.137a13.692,13.692,0,0,0-4.553.528,2.368,2.368,0,0,1-.344.042,3.766,3.766,0,0,0-1.864-.058,2.417,2.417,0,0,1-.83-.014,14.05,14.05,0,0,0-3.342.069,13.668,13.668,0,0,1-1.528.094,15.414,15.414,0,0,0-4.448.612,2.77,2.77,0,0,0-1.738.04.842.842,0,0,1-.413.044c-1.156-.185-2.322.133-3.482-.084a2.319,2.319,0,0,0-.961.117,6.908,6.908,0,0,1-1.8.085,12.849,12.849,0,0,0-1.777.3,6.05,6.05,0,0,1-.7-.024,4,4,0,0,0-.97.069,10.463,10.463,0,0,1-3.039.339,5.856,5.856,0,0,0-.7.067c-.555.054-1.109.112-1.665.162-.879.079-1.768.1-2.636.245a6.086,6.086,0,0,1-1.8.054,6.888,6.888,0,0,0-1.809-.033,20.536,20.536,0,0,1-3.2.169,5.944,5.944,0,0,0-1.253.04c-1.147.229-2.318.2-3.467.384a5.533,5.533,0,0,1-1.391.014,7.592,7.592,0,0,0-2.77.177,7.194,7.194,0,0,1-1.1.164c-.553.068-1.109.116-1.661.194a21.75,21.75,0,0,1-2.206.33,35.258,35.258,0,0,1-3.764.128,9.738,9.738,0,0,0-1.671.064,38.137,38.137,0,0,0-4.542.741,6.571,6.571,0,0,1-.689.1c-1.246.152-2.5.275-3.738.459a20.778,20.778,0,0,1-3.061.187h-1.043a5.875,5.875,0,0,1-.716.275c-.267.069-.551.071-.826.114s-.547.11-.821.155c-.367.061-.733.136-1.1.161-.975.068-1.952.111-2.928.166a3.185,3.185,0,0,0-.694.058,18.974,18.974,0,0,1-2.33.4c-.734.115-1.464.247-2.2.321a5.425,5.425,0,0,0-.952.212,9.731,9.731,0,0,1-3.586.4,5.9,5.9,0,0,0-2.211.2,16,16,0,0,1-1.912.394,3.963,3.963,0,0,1-.973.043,9.069,9.069,0,0,0-3.308.377,2.955,2.955,0,0,1-1.24.149,7.34,7.34,0,0,0-2.629.161,5.334,5.334,0,0,1-.974.061,2.016,2.016,0,0,0-.944.215,3.4,3.4,0,0,1-1.9.352,4.384,4.384,0,0,0-1.789.212,2.121,2.121,0,0,1-1.1.048,3.215,3.215,0,0,0-.965-.059,5.294,5.294,0,0,1-1.389,0,2.979,2.979,0,0,0-1.108.065,19.007,19.007,0,0,1-3.857.548,12.116,12.116,0,0,0-1.382.165,13.7,13.7,0,0,1-3.73.423,2.427,2.427,0,0,0-1.217.266,2.21,2.21,0,0,1-1.223.192,2.345,2.345,0,0,0-1.234.145,3.484,3.484,0,0,1-1.088.23,7.517,7.517,0,0,0-.97.109,2.45,2.45,0,0,1-1.241-.029,2.327,2.327,0,0,0-1.636.095,8.6,8.6,0,0,1-3.141.571,8.494,8.494,0,0,0-1.806.144,34.428,34.428,0,0,1-3.875.444c-.553.064-1.111.1-1.668.126a3.405,3.405,0,0,1-.968-.011,5.653,5.653,0,0,0-2.494.075,25.527,25.527,0,0,1-3.185.359,11.721,11.721,0,0,0-2.066.315,3.62,3.62,0,0,1-1.1.148,10.581,10.581,0,0,0-2.221.181,15.9,15.9,0,0,1-1.8.224,17.377,17.377,0,0,0-3.03.467,8.262,8.262,0,0,1-1.238.187,8.237,8.237,0,0,0-1.794.239,1.875,1.875,0,0,1-.689.041,2.741,2.741,0,0,0-1.1.094,7.953,7.953,0,0,1-1.794.231,18.012,18.012,0,0,0-3.6.423,1.778,1.778,0,0,1-.689.048,2.788,2.788,0,0,0-1.374.13,1.716,1.716,0,0,1-.959.108,4.579,4.579,0,0,0-1.372.174c-.459.043-.926,0-1.389.01a.906.906,0,0,0-.271.064,2.594,2.594,0,0,1-1.375.1,2.458,2.458,0,0,0-.97.036,8,8,0,0,1-1.239.2,14.327,14.327,0,0,0-2.481.372,6.4,6.4,0,0,1-2.492.086,3.783,3.783,0,0,0-.969-.017c-.972.085-1.944.178-2.912.3-1.015.125-2.034.243-3.036.44a25.586,25.586,0,0,1-3.038.43,11.907,11.907,0,0,0-1.516.22,10.2,10.2,0,0,1-2.763.313,3.543,3.543,0,0,0-.832.072,10.874,10.874,0,0,1-2.085.162,3.359,3.359,0,0,0-1.625.33,6.1,6.1,0,0,1-.627.236,7.672,7.672,0,0,0-.861-.106c-.325,0-.649.042-.974.066q-1.53.113-3.06.226a3.394,3.394,0,0,0-.415.057,13.5,13.5,0,0,1-3.611.2,4,4,0,0,0-2.166.409c-.2.106-.425.183-.645.277a4.392,4.392,0,0,1-.828-.129,3.078,3.078,0,0,0-2.314.017.855.855,0,0,1-.272.055c-.974.073-1.947.164-2.922.2a5.066,5.066,0,0,0-1.509.23,2.462,2.462,0,0,1-1.1.138,12.89,12.89,0,0,0-4.57.343,3.043,3.043,0,0,1-.689.1,8.862,8.862,0,0,0-2.069.29,2.593,2.593,0,0,1-1.379.015,3.681,3.681,0,0,0-1.522-.015c-1.243.165-2.492.292-3.738.43a3.661,3.661,0,0,1-.419,0,13.835,13.835,0,0,0-2.507.132,2.535,2.535,0,0,1-.7.024,12.851,12.851,0,0,0-2.218.194c-.74.05-1.488-.034-2.228.088-.184.031-.37.051-.55.1a7.388,7.388,0,0,1-2.081.167,4.019,4.019,0,0,0-1.653.177,1.606,1.606,0,0,1-.684.1,5.263,5.263,0,0,0-1.659.178,9.633,9.633,0,0,1-2.35.277c-.512,0-1.024.048-1.536.05a8.391,8.391,0,0,0-2.641.326,3.145,3.145,0,0,0-1.915-.077,3.057,3.057,0,0,1-.693.028c-.37.016-.74.031-1.11.055-.556.036-1.112.11-1.668.11a3.919,3.919,0,0,0-1.637.279,2.317,2.317,0,0,1-1.366.143,4.634,4.634,0,0,0-.555-.031c-.225.083-.449.149-.66.244a4.127,4.127,0,0,1-2.307.372,3.743,3.743,0,0,0-1.792.176,2.963,2.963,0,0,1-.963.108,10.815,10.815,0,0,0-2.767.285,4.348,4.348,0,0,1-1.244.121,20.248,20.248,0,0,0-4.3.424c-.045.009-.091.021-.137.027-.83.1-1.658.234-2.49.3-1.159.1-2.321.147-3.482.22a1.786,1.786,0,0,0-.415.051,9.713,9.713,0,0,1-3.307.409,6.5,6.5,0,0,1-2.217.065,4.549,4.549,0,0,0-.519.222,2.235,2.235,0,0,1-1.208.265c-.557-.01-1.115.016-1.672.041a22.391,22.391,0,0,1-2.512.015,16.641,16.641,0,0,0-1.671.015c-.418.013-.836.065-1.254.069a5.9,5.9,0,0,0-1.787.263,3.945,3.945,0,0,1-.959.147c-1.579.106-3.158.194-4.737.3a6.6,6.6,0,0,0-1.1.159,4.19,4.19,0,0,1-1.385.077,4.645,4.645,0,0,0-1.11-.026,21.393,21.393,0,0,0-2.187.445,4.857,4.857,0,0,1-1.651.161,12.157,12.157,0,0,0-2.916.169c-1.19.189-2.4.262-3.585.5a4.3,4.3,0,0,1-.558.017,7.447,7.447,0,0,0-.833.072,8.9,8.9,0,0,0-1.916.358,12.256,12.256,0,0,1-2.071.238c-.045.011-.092.018-.136.032a6.054,6.054,0,0,1-2.624.155,3.1,3.1,0,0,0-2.452.78c-.247.212-.5.415-.738.64a1.527,1.527,0,0,0-.208.33.688.688,0,0,0,.5.639,4.043,4.043,0,0,1,1.335.735,3.547,3.547,0,0,0,2.549.95,5.431,5.431,0,0,1,2.168.475c.3.12.6.247.866.358a2.1,2.1,0,0,0,.322,0,7.416,7.416,0,0,1,2.636.078,9.784,9.784,0,0,0,1.386.147,3.786,3.786,0,0,1,1.494.292,2.609,2.609,0,0,0,1.092.195c.419,0,.839-.012,1.257,0a3.31,3.31,0,0,1,.965.1,6.829,6.829,0,0,0,2.345.267c.745,0,1.49-.009,2.235,0a6.53,6.53,0,0,1,1.11.093,9.947,9.947,0,0,0,3.055.158,1.943,1.943,0,0,1,.826.057,11.592,11.592,0,0,0,3.175.4,11.9,11.9,0,0,1,1.39.1c1.424.25,2.869.268,4.3.376a33.314,33.314,0,0,0,3.766.025c1.025-.038,2.046.013,3.069.007.93,0,1.86.009,2.791.016.232,0,.465.006.7.008.93,0,1.86.017,2.791.013a22.959,22.959,0,0,1,3.763.075,2.2,2.2,0,0,0,.555-.012,21.7,21.7,0,0,1,4.18-.009,11.2,11.2,0,0,0,1.533.019,5.238,5.238,0,0,1,1.525.1,5.708,5.708,0,0,0,.687.121c1.154.146,2.307.292,3.462.423a3.076,3.076,0,0,0,.83,0,7.927,7.927,0,0,1,2.627.231,9.723,9.723,0,0,0,2.023.51,2.708,2.708,0,0,0,1.379,0,2.814,2.814,0,0,1,.961-.119,33.006,33.006,0,0,0,3.486.143,4.068,4.068,0,0,1,1.637.3,1.9,1.9,0,0,0,.947.2,6.7,6.7,0,0,1,2.31.32,8.085,8.085,0,0,1,2.4-.048c1.055.184,2.136.166,3.18.438a3.2,3.2,0,0,0,.694.057c1.3.037,2.606.088,3.909.1a7.331,7.331,0,0,1,2.334.357,3.364,3.364,0,0,0,1.082.239,11.06,11.06,0,0,1,2.5.195,1.361,1.361,0,0,0,.418.007,7.66,7.66,0,0,1,2.484.28c.408.092.823.158,1.228.262a26.6,26.6,0,0,1,2.874.557,1.709,1.709,0,0,0,.551.069c.651.018,1.3.042,1.954.032a11.738,11.738,0,0,1,3.045.31,7.929,7.929,0,0,0,1.515.232,14.086,14.086,0,0,0,3.612-.076,4.736,4.736,0,0,0,2.069.3,2.838,2.838,0,0,1,1.228.2,31.993,31.993,0,0,0,3.226.879,10.133,10.133,0,0,0,3.325.14,5.251,5.251,0,0,1,.832,0c.418.018.835.061,1.253.075a2.835,2.835,0,0,1,1.082.239C368.867,500.8,369.084,500.882,369.394,501.01ZM742.966,392.49a7.468,7.468,0,0,0-.193-2.269c-.151-.635-.222-1.285-.362-1.917s-.451-1.219-.641-1.84a26.29,26.29,0,0,0-1.5-3.3,1.9,1.9,0,0,0-.232-.348c-.656-.845-1.35-1.663-1.965-2.537a18.644,18.644,0,0,0-3.2-2.888.575.575,0,0,0-.12-.071,6.244,6.244,0,0,0-4.037-.755,6.158,6.158,0,0,1-2.084.092c-1.067-.167-2.137.133-3.2-.106a1.355,1.355,0,0,0-.549.067,5.04,5.04,0,0,0-1.451.488,2.671,2.671,0,0,1-1.053.349,2.116,2.116,0,0,0-1.24.588,3.372,3.372,0,0,1-1.582.833,10.075,10.075,0,0,0-3.289,1.5A11.3,11.3,0,0,0,713.6,382.6a6,6,0,0,1-.7.678,2,2,0,0,0-.645.9,3.741,3.741,0,0,1-1.771,2.233,2.323,2.323,0,0,0-1.069,1.872,6.511,6.511,0,0,0-.052.975,4.38,4.38,0,0,0,.693,2.376,10.118,10.118,0,0,1,1.326,2.758c.073.221.15.44.229.659a1.662,1.662,0,0,0,.668.867c.39.255.771.521,1.148.794a3.069,3.069,0,0,0,1.671.644,4.153,4.153,0,0,1,2.071.754c.509.326,1.046.606,1.564.919.61.368,1.355.371,1.963.706a10.339,10.339,0,0,0,2.029.92,18.411,18.411,0,0,1,2.381.793,4.68,4.68,0,0,0,.951.2,4.908,4.908,0,0,1,.944.227,10.6,10.6,0,0,0,3.094.8,1.984,1.984,0,0,1,.8.22,4.022,4.022,0,0,0,1.981.6,2.393,2.393,0,0,1,.549.095c1.119.313,2.294.388,3.39.8a1.871,1.871,0,0,0,.409.086,9.619,9.619,0,0,1,1.9.441,2.646,2.646,0,0,0,2.031-.178,1.789,1.789,0,0,0,1.144-1.458,28.244,28.244,0,0,0,.343-3.332c.015-.465.024-.932.077-1.393a5.63,5.63,0,0,0-.017-1.391,6.88,6.88,0,0,1,.094-2.5A8.668,8.668,0,0,0,742.966,392.49Zm42.356,43.636a18.392,18.392,0,0,1-3.62-.811,9.118,9.118,0,0,0-1.772-.346,9.475,9.475,0,0,1-1.513-.227,17.729,17.729,0,0,0-3.419-.627,2.82,2.82,0,0,1-.817-.17c-1.049-.391-2.134-.653-3.21-.949-1.031-.283-2.058-.582-3.093-.85a12.26,12.26,0,0,1-2.108-.724c-.5-.234-1.027-.433-1.551-.622a7.774,7.774,0,0,1-1.853-.958,6.43,6.43,0,0,0-.681-.483c-.946-.5-1.9-.974-2.857-1.453a5,5,0,0,1-1.277-.842c-.533-.518-1.082-1.025-1.578-1.578a4.774,4.774,0,0,1-1.235-4.128,3.275,3.275,0,0,1,.724-1.635,7.181,7.181,0,0,1,1.8-1.535,6.153,6.153,0,0,1,2.353-1.169,2.841,2.841,0,0,0,.784-.283,16.65,16.65,0,0,1,2.479-.93,3.941,3.941,0,0,0,1.789-1.042.44.44,0,0,0-.011-.62,4.276,4.276,0,0,0-1.6-.831c-.766-.187-1.545-.323-2.325-.444-1.1-.171-2.207-.334-3.316-.452a9.712,9.712,0,0,0-2.5-.1,2.412,2.412,0,0,1-.557,0c-.693-.057-1.389-.105-2.079-.194a2.8,2.8,0,0,0-1.1.018,2.092,2.092,0,0,1-1.235-.057,6.254,6.254,0,0,0-.671-.191,1.274,1.274,0,0,0-1.065.191c-.413.3-.828.6-1.216.936a2.142,2.142,0,0,0-.806,1.275,11.139,11.139,0,0,1-.773,2.234c-.36.957-.727,1.914-1.147,2.846a10.091,10.091,0,0,0-.782,1.783,8.65,8.65,0,0,1-.916,1.714c-.041.084-.075.171-.108.258a4.922,4.922,0,0,0-.4,1.472,2.019,2.019,0,0,1-1.173,1.771,4.924,4.924,0,0,0-.506.335,2.72,2.72,0,0,0-.331,1.29,2.306,2.306,0,0,1-.749,1.6,6.422,6.422,0,0,0-1.334,1.9c.017.316.037.594.046.872a1.8,1.8,0,0,1-.434,1.292,10.475,10.475,0,0,0-.959,1.369,4.519,4.519,0,0,1-1.089,1.262,5.954,5.954,0,0,0-1.746,2.48.753.753,0,0,0,.106.789,1.207,1.207,0,0,0,.787.536,5.067,5.067,0,0,0,.968.072,3.421,3.421,0,0,1,1.105.1,4.686,4.686,0,0,0,1.936.114c.323-.039.648-.07.973-.086,1.44-.07,2.868-.273,4.3-.439a11.555,11.555,0,0,1,2.086-.1,10.13,10.13,0,0,0,2.642-.127,2.909,2.909,0,0,1,1.108.017,5.037,5.037,0,0,0,3.078-.237,12.891,12.891,0,0,0,3.821.206,5.958,5.958,0,0,1,.835-.015c.7.007,1.4.04,2.094.023a29.75,29.75,0,0,0,4.178-.153,1.981,1.981,0,0,1,.692.048,9.107,9.107,0,0,0,2.225.083,10.447,10.447,0,0,1,1.251-.014,6.74,6.74,0,0,0,1.944-.1,2.163,2.163,0,0,1,1.1.008,7.477,7.477,0,0,0,2.351.221c1.535-.037,3.069-.028,4.6.064,1.3.078,2.6.1,3.9.111,1.256.008,2.511-.033,3.767-.054a2.755,2.755,0,0,0,.417-.024,2.909,2.909,0,0,0,1.884-1.091.749.749,0,0,0,.032-.789,2.479,2.479,0,0,0-.994-.954C786.438,436.707,785.9,436.43,785.322,436.126Z" transform="translate(-222.809 -283.303)"/></svg>